<?xml version="1.0" standalone="no"?>
<!DOCTYPE svg PUBLIC "-//W3C//DTD SVG 1.1//EN" "http://www.w3.org/Graphics/SVG/1.1/DTD/svg11.dtd" >
<svg xmlns="http://www.w3.org/2000/svg">
<metadata>
Created by FontPrep 20130207 at Tue Aug 19 15:55:32 2014
 By Kristof Hermans
Copyright (c) Mark Simonson, 2005. All rights reserved.
</metadata>
<defs>
<font id="8f1cbcaed94f1eb236a1eaab052adb4d" horiz-adv-x='1024' >
  <font-face 
    font-family="ProximaNovaExCn-Bold"
    font-weight="700"
    font-stretch="normal"
    units-per-em="2048"
    panose-1="2 0 5 6 3 0 0 2 0 4"
    ascent="1618"
    descent="-430"
    x-height="989"
    cap-height="1366"
    bbox="-201 -580 1733 1815"
    underline-thickness="40"
    underline-position="-231"
    unicode-range="U+0020-FB04"
  />
<missing-glyph horiz-adv-x="931" 
d="M760 -123v1602h-590v-1602h590zM825 -184h-719v1724h719v-1724z" />
    <glyph glyph-name="f_f_j" unicode="ffj" horiz-adv-x="1439" 
d="M1067 -401q-80 0 -123 49l53 178q16 -27 52 -27q68 0 67 115v1075h230v-1075q0 -162 -66 -238t-213 -77zM1231 1106q-59 0 -101 41q-41 41 -40 98q0 57 40 100q40 41 100 41t101 -42t41 -98q0 -58 -41 -99t-100 -41zM866 0h-231v788h-90v201h90v103q0 139 65 217
q66 78 179 77q82 0 141 -26l-39 -186q-12 12 -39 12q-76 0 -76 -94v-103h125v-201h-125v-788zM356 0h-231v788h-90v201h90v103q0 141 69 218q70 76 188 76t181 -53l-57 -180q-31 33 -70 33q-80 0 -80 -94v-103h125v-201h-125v-788z" />
    <glyph glyph-name="f_j" unicode="fj" horiz-adv-x="929" 
d="M555 -401q-80 0 -123 49l53 178q16 -27 52 -27q68 0 67 115v1075h230v-1075q0 -162 -66 -238t-213 -77zM719 1106q-59 0 -101 41q-41 41 -40 98q0 57 40 100q40 41 100 41t101 -42t41 -98q0 -58 -41 -99t-100 -41zM356 0h-231v788h-90v201h90v103q0 139 65 217
q66 78 179 77q82 0 141 -26l-39 -186q-12 12 -39 12q-76 0 -76 -94v-103h125v-201h-125v-788z" />
    <glyph glyph-name="f_b" unicode="fb" horiz-adv-x="1376" 
d="M834 0h-230v1366h230v-500q29 74 81 111q53 37 113 37q143 0 218 -140t75 -382q0 -240 -75 -378t-218 -139q-55 0 -108 38t-86 110v-123zM952 180q131 0 131 314t-131 315q-36 0 -68 -34t-50 -85v-391q18 -51 51 -85t67 -34zM356 0h-231v788h-90v201h90v103q0 139 65 217
q66 78 179 77q82 0 141 -26l-39 -186q-12 12 -39 12q-76 0 -76 -94v-103h125v-201h-125v-788z" />
    <glyph glyph-name="f_h" unicode="fh" horiz-adv-x="1370" 
d="M1276 0h-232v707q0 102 -75 102q-41 0 -78 -38t-57 -91v-680h-230v1366h230v-506q33 61 100 108q68 46 135 46q207 0 207 -223v-791zM356 0h-231v788h-90v201h90v103q0 139 65 217q66 78 179 77q82 0 141 -26l-39 -186q-12 12 -39 12q-76 0 -76 -94v-103h125v-201h-125
v-788z" />
    <glyph glyph-name="f_k" unicode="fk" horiz-adv-x="1335" 
d="M834 0h-230v1366h230v-834l229 457h252l-234 -440l244 -549h-254l-145 395l-92 -164v-231zM356 0h-231v788h-90v201h90v103q0 139 65 217q66 78 179 77q82 0 141 -26l-39 -186q-12 12 -39 12q-76 0 -76 -94v-103h125v-201h-125v-788z" />
    <glyph glyph-name="fl.alt1" unicode="f&#xf002;" horiz-adv-x="987" 
d="M818 -25q-110 -1 -162 61t-52 191v1139h230v-1094q0 -92 55 -92q35 0 55 27l49 -182q-65 -50 -175 -50zM356 0h-231v788h-90v201h90v103q0 139 65 217q66 78 179 77q82 0 141 -26l-39 -186q-12 12 -39 12q-76 0 -76 -94v-103h125v-201h-125v-788z" />
    <glyph glyph-name="f_f_l.alt1" unicode="ff&#xf002;" horiz-adv-x="1499" 
d="M1330 -25q-110 -1 -162 61t-52 191v1139h230v-1094q0 -92 55 -92q35 0 55 27l49 -182q-65 -50 -175 -50zM866 0h-231v788h-90v201h90v103q0 139 65 217q66 78 179 77q82 0 141 -26l-39 -186q-12 12 -39 12q-76 0 -76 -94v-103h125v-201h-125v-788zM356 0h-231v788h-90
v201h90v103q0 141 69 218q70 76 188 76t181 -53l-57 -180q-31 33 -70 33q-80 0 -80 -94v-103h125v-201h-125v-788z" />
    <glyph glyph-name="f_f" unicode="ff" horiz-adv-x="1021" 
d="M866 0h-231v788h-90v201h90v103q0 141 68 218q69 76 188 76t182 -53l-57 -180q-31 33 -70 33q-80 0 -80 -94v-103h125v-201h-125v-788zM356 0h-231v788h-90v201h90v103q0 141 69 218q70 76 188 76t181 -53l-57 -180q-31 33 -70 33q-80 0 -80 -94v-103h125v-201h-125v-788
z" />
    <glyph glyph-name="fi" unicode="fi" horiz-adv-x="929" 
d="M834 0h-230v989h230v-989zM719 1106q-59 0 -101 41q-41 41 -40 98q0 57 40 100q40 41 100 41t101 -42t41 -98q0 -58 -41 -99t-100 -41zM356 0h-231v788h-90v201h90v103q0 139 65 217q66 78 179 77q82 0 141 -26l-39 -186q-12 12 -39 12q-76 0 -76 -94v-103h125v-201h-125
v-788z" />
    <glyph glyph-name="fl" unicode="fl" horiz-adv-x="929" 
d="M834 0h-230v1366h230v-1366zM356 0h-231v788h-90v201h90v103q0 139 65 217q66 78 179 77q82 0 141 -26l-39 -186q-12 12 -39 12q-76 0 -76 -94v-103h125v-201h-125v-788z" />
    <glyph glyph-name="f_f_i" unicode="ffi" horiz-adv-x="1439" 
d="M1346 0h-230v989h230v-989zM1231 1106q-59 0 -101 41q-41 41 -40 98q0 57 40 100q40 41 100 41t101 -42t41 -98q0 -58 -41 -99t-100 -41zM866 0h-231v788h-90v201h90v103q0 139 65 217q66 78 179 77q82 0 141 -26l-39 -186q-12 12 -39 12q-76 0 -76 -94v-103h125v-201
h-125v-788zM356 0h-231v788h-90v201h90v103q0 141 69 218q70 76 188 76t181 -53l-57 -180q-31 33 -70 33q-80 0 -80 -94v-103h125v-201h-125v-788z" />
    <glyph glyph-name="f_f_l" unicode="ffl" horiz-adv-x="1439" 
d="M1346 0h-230v1366h230v-1366zM866 0h-231v788h-90v201h90v103q0 139 65 217q66 78 179 77q82 0 141 -26l-39 -186q-12 12 -39 12q-76 0 -76 -94v-103h125v-201h-125v-788zM356 0h-231v788h-90v201h90v103q0 141 69 218q70 76 188 76t181 -53l-57 -180q-31 33 -70 33
q-80 0 -80 -94v-103h125v-201h-125v-788z" />
    <glyph glyph-name=".notdef" horiz-adv-x="931" 
d="M760 -123v1602h-590v-1602h590zM825 -184h-719v1724h719v-1724z" />
    <glyph glyph-name=".null" horiz-adv-x="0" 
 />
    <glyph glyph-name="nonmarkingreturn" horiz-adv-x="681" 
 />
    <glyph glyph-name="space" unicode=" " horiz-adv-x="329" 
 />
    <glyph glyph-name="exclam" unicode="!" horiz-adv-x="509" 
d="M255 -23q-61 -1 -107 45t-46 107t45 107t107 45q62 0 107 -45q45 -44 45 -106t-44 -108t-107 -45zM356 428h-202l-41 938h282z" />
    <glyph glyph-name="quotedbl" unicode="&#x22;" horiz-adv-x="796" 
d="M446 1267q0 44 37 82q37 37 90 37t91 -36q37 -37 36 -90l-75 -469h-103q-76 432 -76 476zM96 1267q0 44 38 82q38 37 89 37t89 -38t38 -88l-76 -469h-102q-76 432 -76 476z" />
    <glyph glyph-name="numbersign" unicode="#" horiz-adv-x="931" 
d="M487 504l82 358h-127l-80 -358h125zM543 0h-174l86 354h-129l-82 -354h-174l84 354h-123l35 150h122l82 358h-123l33 148h125l82 356h174l-82 -356h127l82 356h172l-82 -356h121l-31 -148h-125l-84 -358h129l-34 -150h-129z" />
    <glyph glyph-name="dollar" unicode="$" horiz-adv-x="796" 
d="M328 -205v182q-182 12 -303 134l110 202q86 -109 225 -108q61 0 100 42q38 41 38 107q0 110 -154 216q-62 44 -126 96t-109 140q-45 87 -45 210t69 223q70 100 195 135v199h174v-189q143 -16 237 -106l-98 -199q-78 80 -188 80q-55 0 -91 -38t-36 -97q0 -58 45 -110
t108 -97t127 -99t108 -144q46 -90 46 -216t-69 -228t-189 -136v-199h-174z" />
    <glyph glyph-name="percent" unicode="%" horiz-adv-x="1202" 
d="M895 121q51 0 81 52t30 141q0 88 -30 142t-81 54t-81 -53t-30 -143t30 -141q30 -52 81 -52zM307 852q51 0 81 52t30 141t-30 143t-81 53q-51 0 -81 -53q-30 -54 -30 -142t30 -141t81 -53zM894 655q120 0 192 -97q72 -98 73 -244q-1 -146 -73 -242t-192 -97
q-120 1 -193 97t-73 242t73 244q73 97 193 97zM367 0h-103l572 1366h104zM308 707q-120 0 -192 96t-73 242q0 145 73 243q72 98 192 98t193 -97t73 -243t-74 -243q-72 -96 -192 -96z" />
    <glyph glyph-name="ampersand" unicode="&#x26;" horiz-adv-x="915" 
d="M391 1047q0 -61 31 -158q106 96 106 201q0 63 -18 96t-47 33q-72 0 -72 -172zM416 160q57 0 114 80q-61 100 -102 182q-47 82 -78 147q-66 -90 -66 -190q0 -99 38 -159q37 -60 94 -60zM368 -25q-140 -1 -227 101q-86 102 -86 260q-1 158 55 250q56 94 152 174
q-74 174 -74 306t77 226t193 94t192 -84t75 -190q0 -106 -39 -183t-76 -114t-116 -102q95 -189 135 -256q25 78 63 235l185 -86q-55 -211 -129 -346q78 -121 174 -260h-244l-55 86q-115 -111 -255 -111z" />
    <glyph glyph-name="quotesingle" unicode="'" horiz-adv-x="446" 
d="M96 1267q0 44 38 82q38 37 89 37t89 -38t38 -88l-76 -469h-102q-76 432 -76 476z" />
    <glyph glyph-name="parenleft" unicode="(" horiz-adv-x="528" 
d="M96 498q0 482 221 905l168 -74q-137 -413 -137 -833t137 -828l-168 -76q-221 424 -221 906z" />
    <glyph glyph-name="parenright" unicode=")" horiz-adv-x="528" 
d="M178 498q0 430 -137 831l170 74q221 -423 221 -905t-221 -906l-170 76q137 400 137 830z" />
    <glyph glyph-name="asterisk" unicode="*" horiz-adv-x="657" 
d="M387 764h-119l11 227l-191 -123l-59 103l200 104l-200 103l59 104l191 -123l-11 227h119l-10 -227l190 123l62 -104l-203 -103l203 -104l-62 -103l-190 123z" />
    <glyph glyph-name="plus" unicode="+" horiz-adv-x="784" 
d="M725 618h-252v-299h-162v299h-252v146h252v285h162v-285h252v-146z" />
    <glyph glyph-name="comma" unicode="," horiz-adv-x="514" 
d="M104 132q0 60 43 104t108 45t113 -53t48 -152t-54 -192t-143 -158l-104 84q51 29 96 85t55 107q-12 -6 -35 -6q-55 0 -91 38t-36 98z" />
    <glyph glyph-name="hyphen" unicode="-" horiz-adv-x="493" 
d="M432 397h-371v197h371v-197z" />
    <glyph glyph-name="period" unicode="." horiz-adv-x="507" 
d="M255 -23q-63 -1 -107 45t-44 107t44 107t106 45q62 0 107 -45q45 -44 45 -106t-44 -108t-107 -45z" />
    <glyph glyph-name="slash" unicode="/" horiz-adv-x="464" 
d="M164 -41h-164l301 1448h164z" />
    <glyph glyph-name="zero" unicode="0" horiz-adv-x="929" 
d="M465 205q84 0 112 120q27 119 27 357t-28 356t-111 119q-84 0 -112 -119q-27 -120 -27 -358t28 -356t111 -119zM465 -25q-137 1 -231 107t-134 260q-39 154 -39 340t39 340t133 259t232 105q104 0 184 -59t126 -161q93 -207 92 -486t-92 -481q-46 -102 -126 -163
t-184 -61z" />
    <glyph glyph-name="one" unicode="1" horiz-adv-x="712" 
d="M606 0h-258v1034l-188 -198l-150 155l373 375h223v-1366z" />
    <glyph glyph-name="two" unicode="2" horiz-adv-x="903" 
d="M836 0h-752v215q326 414 405 542q80 128 80 216t-39 136t-102 48q-131 0 -215 -149l-166 151q147 227 393 227q176 0 283 -107q106 -108 106 -284q1 -133 -79 -283t-324 -485h410v-227z" />
    <glyph glyph-name="three" unicode="3" horiz-adv-x="901" 
d="M438 -25q-131 -1 -234 61t-161 163l174 151q80 -145 211 -145q156 0 156 190q0 99 -49 143t-115 44t-86 -2v231q16 -2 83 -2t109 44t43 128q0 176 -143 176q-131 0 -201 -131l-168 137q131 223 383 223q172 0 276 -93t105 -275q0 -109 -61 -200t-156 -113
q102 -21 168 -113t66 -217q0 -180 -108 -290t-292 -110z" />
    <glyph glyph-name="four" unicode="4" horiz-adv-x="880" 
d="M489 526v539l-247 -539h247zM748 0h-259v299h-458v229l415 838h302v-840h102v-227h-102v-299z" />
    <glyph glyph-name="five" unicode="5" horiz-adv-x="911" 
d="M446 -25q-258 0 -389 224l168 151q78 -145 205 -145q74 1 117 67t43 160q0 227 -141 227q-96 0 -166 -114l-193 51v770h698v-227h-440v-367q70 111 203 111t218 -117t85 -323t-111 -337t-297 -131z" />
    <glyph glyph-name="six" unicode="6" horiz-adv-x="905" 
d="M465 205q63 -1 94 65t31 174t-36 161q-36 54 -91 54q-86 0 -139 -149q10 -305 141 -305zM852 442q0 -205 -104 -336t-260 -131q-156 -1 -252 101t-136 254q-39 152 -39 350q0 315 120 511t339 195q92 0 170 -40t125 -113l-133 -184q-56 109 -154 109t-151 -127
q-53 -126 -53 -302v-18q31 76 91 123t138 47q129 0 214 -117t85 -322z" />
    <glyph glyph-name="seven" unicode="7" horiz-adv-x="798" 
d="M35 1139v227h729v-178l-342 -1188h-275l332 1139h-444z" />
    <glyph glyph-name="eight" unicode="8" horiz-adv-x="903" 
d="M451 205q59 0 98 46t39 135t-51 154t-86 72q-35 -8 -85 -72t-50 -155q0 -90 38 -135t97 -45zM450 1157q-122 0 -122 -170q0 -57 28 -106t52 -67q23 -18 43 -28q57 26 95 95q28 49 27 106q-1 170 -123 170zM451 -25q-189 1 -291 97t-103 270q0 119 69 221t161 142
q-88 35 -151 123q-62 89 -62 208q0 170 109 260q110 90 268 90q159 0 269 -90t109 -260q0 -119 -63 -208t-152 -123q92 -39 162 -141t70 -220q0 -174 -102 -272t-293 -97z" />
    <glyph glyph-name="nine" unicode="9" horiz-adv-x="905" 
d="M582 854q-10 305 -138 305q-128 -1 -129 -237q0 -108 36 -162q36 -55 89 -55q88 0 142 149zM385 -23q-193 0 -297 154l135 184q57 -109 151 -109t151 125q56 124 57 302v20q-32 -76 -92 -123t-138 -47q-129 0 -214 117t-85 321q1 203 103 335t258 132t254 -100
q98 -102 136 -254t38 -350q0 -313 -119 -510t-338 -197z" />
    <glyph glyph-name="colon" unicode=":" horiz-adv-x="505" 
d="M255 -23q-63 -1 -107 45t-44 107t44 107t106 45q62 0 107 -45q45 -44 45 -106t-44 -108t-107 -45zM254 702q-62 0 -106 46t-44 105q0 60 44 105q44 46 106 46t107 -46t45 -106q0 -62 -46 -106t-106 -44z" />
    <glyph glyph-name="semicolon" unicode=";" horiz-adv-x="509" 
d="M104 139q0 59 43 103t108 45t113 -53t48 -152t-54 -192t-143 -158l-104 84q51 29 96 85t55 107q-12 -6 -50 -6t-75 39t-37 98zM255 702q-63 0 -107 46t-44 106q0 61 44 105q44 45 106 45t107 -44t45 -106q0 -60 -44 -106t-107 -46z" />
    <glyph glyph-name="less" unicode="&#x3c;" horiz-adv-x="784" 
d="M725 319l-666 283v166l666 285v-174l-494 -195l494 -190v-175z" />
    <glyph glyph-name="equal" unicode="=" horiz-adv-x="784" 
d="M725 416h-666v147h666v-147zM725 805h-666v147h666v-147z" />
    <glyph glyph-name="greater" unicode="&#x3e;" horiz-adv-x="784" 
d="M725 602l-666 -283v175l494 190l-494 195v174l666 -285v-166z" />
    <glyph glyph-name="question" unicode="?" horiz-adv-x="665" 
d="M338 -23q-60 -1 -106 45t-46 107t45 107t107 45q62 0 106 -45q45 -44 45 -106t-45 -108t-106 -45zM193 571q0 157 94 264t94 205q0 49 -31 87t-87 38t-105 -61l-107 160q117 122 269 122t233 -82q82 -82 82 -210q0 -82 -36 -158t-79 -125q-116 -132 -114 -238
q0 -47 32 -92l-194 -73q-51 70 -51 163z" />
    <glyph glyph-name="at" unicode="@" horiz-adv-x="1300" 
d="M582 340q76 0 147 127l59 283q-20 106 -84 106t-112 -66q-96 -131 -94 -319q0 -131 84 -131zM555 -143q-229 1 -356 157t-127 426q0 221 96 421t262 323t360 123t316 -133q123 -133 123 -377q-1 -244 -103 -433t-241 -190q-70 0 -118 38t-58 116q-98 -154 -232 -154
q-82 0 -138 62t-56 201q0 141 47 273t138 221t205 89t148 -133l21 104h207l-111 -520q-6 -31 -6 -65q0 -74 57 -74q29 0 64 54t63 170q29 116 29 255q0 201 -97 311q-98 110 -266 109q-168 0 -315 -116t-230 -297t-83 -392t104 -352t305 -142q152 0 303 113l41 -59
q-174 -129 -352 -129z" />
    <glyph glyph-name="A" unicode="A" horiz-adv-x="868" 
d="M530 479l-96 598l-98 -598h194zM866 0h-264l-41 252h-256l-41 -252h-264l285 1366h297z" />
    <glyph glyph-name="B" unicode="B" horiz-adv-x="925" 
d="M459 227q141 0 141 179q0 80 -36 128t-105 48h-94v-355h94zM451 809q131 0 131 165t-131 165h-86v-330h86zM532 0h-426v1366h412q162 0 245 -98t83 -236t-54 -220q-54 -81 -147 -107q95 -15 157 -111t62 -244t-82 -248q-82 -102 -250 -102z" />
    <glyph glyph-name="C" unicode="C" horiz-adv-x="878" 
d="M489 -25q-215 0 -321 193q-106 192 -106 514t106 514t323 193q217 0 312 -232q16 -39 31 -90l-207 -76q-23 86 -53 127t-85 41q-163 0 -163 -477t163 -477q109 0 142 198l205 -75q-85 -353 -347 -353z" />
    <glyph glyph-name="D" unicode="D" horiz-adv-x="972" 
d="M449 227q199 0 199 456t-199 456h-84v-912h84zM449 0h-343v1366h340q236 0 351 -186t115 -498t-114 -498q-113 -184 -349 -184z" />
    <glyph glyph-name="E" unicode="E" horiz-adv-x="776" 
d="M705 0h-599v1366h599v-227h-340v-330h325v-227h-325v-355h340v-227z" />
    <glyph glyph-name="F" unicode="F" horiz-adv-x="768" 
d="M365 0h-259v1366h599v-227h-340v-330h325v-227h-325v-582z" />
    <glyph glyph-name="G" unicode="G" horiz-adv-x="927" 
d="M488 -25q-212 1 -320 191t-107 517q0 327 108 516t320 190q135 1 221 -89t124 -233l-207 -76q-37 168 -138 168q-163 0 -163 -477t163 -477q84 0 125 61v248h-153v227h381v-585q-142 -181 -354 -181z" />
    <glyph glyph-name="H" unicode="H" horiz-adv-x="991" 
d="M885 0h-258v590h-262v-590h-259v1366h259v-551h262v551h258v-1366z" />
    <glyph glyph-name="I" unicode="I" horiz-adv-x="471" 
d="M365 0h-259v1366h259v-1366z" />
    <glyph glyph-name="J" unicode="J" horiz-adv-x="712" 
d="M608 342q0 -184 -98 -276t-254 -91q-156 0 -240 74l70 211q49 -55 123 -55q141 0 141 149v1012h258v-1024z" />
    <glyph glyph-name="K" unicode="K" horiz-adv-x="964" 
d="M365 0h-259v1366h259v-631l284 631h285l-334 -643l358 -723h-292l-217 520l-84 -172v-348z" />
    <glyph glyph-name="L" unicode="L" horiz-adv-x="747" 
d="M705 0h-599v1366h259v-1139h340v-227z" />
    <glyph glyph-name="M" unicode="M" horiz-adv-x="1261" 
d="M1155 0h-254v864l-227 -864h-86l-223 864v-864h-259v1366h328l197 -756l203 756h321v-1366z" />
    <glyph glyph-name="N" unicode="N" horiz-adv-x="991" 
d="M885 0h-242l-278 782v-782h-259v1366h259l262 -756v756h258v-1366z" />
    <glyph glyph-name="O" unicode="O" horiz-adv-x="978" 
d="M651 682q0 477 -163 477t-163 -477t163 -477t163 477zM489 -25q-215 0 -321 194t-107 513q1 319 107 513t321 194t321 -194t105 -513q1 -319 -105 -513t-321 -194z" />
    <glyph glyph-name="P" unicode="P" horiz-adv-x="903" 
d="M446 729q72 0 111 55q39 56 39 150t-39 149t-111 56h-81v-410h81zM365 0h-259v1366h369q189 0 287 -124t98 -308t-98 -308t-287 -124h-110v-502z" />
    <glyph glyph-name="Q" unicode="Q" horiz-adv-x="978" 
d="M488 1159q-162 0 -162 -470t153 -484l-92 244l180 69l56 -145q29 115 28 309q0 477 -163 477zM489 -25q-215 0 -321 194t-107 513q1 319 107 513t321 194t321 -194t105 -513q0 -430 -178 -608l31 -76l-180 -72l-23 58q-33 -9 -76 -9z" />
    <glyph glyph-name="R" unicode="R" horiz-adv-x="942" 
d="M446 729q72 0 111 55q39 56 39 150t-39 149t-111 56h-81v-410h81zM365 502v-502h-259v1366h381q165 0 269 -119t104 -305q0 -281 -176 -379l188 -563h-276l-147 502h-84z" />
    <glyph glyph-name="S" unicode="S" horiz-adv-x="811" 
d="M377 -25q-217 0 -352 136l110 202q86 -109 225 -108q61 0 100 42q38 41 38 107q0 110 -154 216q-62 44 -126 96t-109 140q-45 87 -46 202q1 160 103 270t280 111q178 0 293 -111l-98 -199q-78 80 -188 80q-55 0 -91 -38t-36 -97q0 -58 45 -110t108 -97t127 -99t108 -144
q46 -90 46 -203q0 -174 -106 -285t-277 -111z" />
    <glyph glyph-name="T" unicode="T" horiz-adv-x="745" 
d="M502 0h-258v1139h-207v227h672v-227h-207v-1139z" />
    <glyph glyph-name="U" unicode="U" horiz-adv-x="991" 
d="M496 -25q-166 1 -278 107t-112 313v971h259v-983q0 -180 131 -180t131 180v983h258v-971q1 -207 -111 -313t-278 -107z" />
    <glyph glyph-name="V" unicode="V" horiz-adv-x="868" 
d="M582 0h-297l-285 1366h264l170 -1034l168 1034h264z" />
    <glyph glyph-name="W" unicode="W" horiz-adv-x="1261" 
d="M1006 0h-263l-112 881l-113 -881h-262l-233 1366h262l112 -915l131 915h203l133 -915l113 915h262z" />
    <glyph glyph-name="X" unicode="X" horiz-adv-x="897" 
d="M901 0h-285l-167 471l-168 -471h-283l301 696l-285 670h285l150 -448l149 448h287l-287 -668z" />
    <glyph glyph-name="Y" unicode="Y" horiz-adv-x="880" 
d="M569 0h-258v565l-319 801h274l174 -551l176 551h273l-320 -801v-565z" />
    <glyph glyph-name="Z" unicode="Z" horiz-adv-x="770" 
d="M709 0h-650v219l347 920h-347v227h635v-209l-350 -930h365v-227z" />
    <glyph glyph-name="bracketleft" unicode="[" horiz-adv-x="419" 
d="M383 -389h-311v1778h311v-156h-141v-1466h141v-156z" />
    <glyph glyph-name="backslash" unicode="\" horiz-adv-x="464" 
d="M301 -41l-301 1448h166l301 -1448h-166z" />
    <glyph glyph-name="bracketright" unicode="]" horiz-adv-x="419" 
d="M346 -389h-309v156h141v1466h-141v156h309v-1778z" />
    <glyph glyph-name="asciicircum" unicode="^" horiz-adv-x="690" 
d="M651 682h-168l-139 498l-137 -498h-168l221 684h170z" />
    <glyph glyph-name="underscore" unicode="_" horiz-adv-x="571" 
d="M578 -238h-584v156h584v-156z" />
    <glyph glyph-name="grave" unicode="`" horiz-adv-x="364" 
d="M365 1139h-148l-217 295h201z" />
    <glyph glyph-name="grave" unicode="&#x2cb;" horiz-adv-x="364" 
d="M365 1139h-148l-217 295h201z" />
    <glyph glyph-name="a" unicode="a" horiz-adv-x="847" 
d="M399 133q90 0 125 92v148q-35 96 -125 96q-57 0 -88 -47t-31 -122t32 -121q30 -46 87 -46zM756 0h-232v100q-31 -59 -90 -92t-117 -33q-119 -1 -193 89t-75 240q0 150 75 236q75 87 193 87q59 0 119 -31t88 -88v129q0 180 -149 180q-104 0 -201 -98l-84 162
q62 69 154 101t178 32q158 0 246 -81t88 -243v-690z" />
    <glyph glyph-name="b" unicode="b" horiz-adv-x="866" 
d="M324 0h-230v1366h230v-500q29 74 82 111t112 37q143 0 218 -140t75 -382q0 -240 -75 -378t-218 -139q-55 0 -108 38t-86 110v-123zM442 180q131 0 131 314t-131 315q-36 0 -68 -34t-50 -85v-391q18 -51 51 -85t67 -34z" />
    <glyph glyph-name="c" unicode="c" horiz-adv-x="704" 
d="M424 -25q-166 1 -267 145t-101 376t100 374q102 144 265 144t251 -88l-76 -181q-57 63 -133 63t-123 -87q-47 -88 -47 -225q0 -136 47 -226t135 -90q66 0 121 64l76 -181q-82 -88 -248 -88z" />
    <glyph glyph-name="d" unicode="d" horiz-adv-x="866" 
d="M424 180q37 0 69 34t48 85v391q-16 51 -48 85t-69 34q-131 -1 -131 -315t131 -314zM772 0h-231v123q-31 -70 -84 -109t-109 -39q-143 1 -218 139t-75 379t75 381t218 140q56 0 110 -37t83 -111v500h231v-1366z" />
    <glyph glyph-name="e" unicode="e" horiz-adv-x="827" 
d="M559 582q0 244 -139 243q-76 1 -109 -73t-32 -170h280zM445 -25q-185 1 -287 143t-102 372t96 377t274 147t266 -142t88 -372v-82h-501q2 -115 50 -185q48 -69 140 -69t168 98l113 -129q-121 -158 -305 -158z" />
    <glyph glyph-name="f" unicode="f" horiz-adv-x="509" 
d="M356 0h-231v788h-90v201h90v103q0 141 69 218q70 76 188 76t181 -53l-57 -180q-31 33 -70 33q-80 0 -80 -94v-103h125v-201h-125v-788z" />
    <glyph glyph-name="g" unicode="g" horiz-adv-x="866" 
d="M424 213q37 0 69 34t48 85v358q-16 51 -48 85t-69 34q-131 0 -131 -298t131 -298zM772 18q0 -225 -106 -322t-284 -97q-180 0 -290 108l78 184q92 -92 203 -92q78 -1 123 55t45 164v140q-31 -72 -84 -111t-109 -39q-143 0 -218 130t-75 370t75 373t218 133q56 0 110 -37
t83 -111v123h231v-971z" />
    <glyph glyph-name="h" unicode="h" horiz-adv-x="860" 
d="M766 0h-231v707q0 102 -76 102q-41 0 -78 -38t-57 -91v-680h-230v1366h230v-506q33 61 100 108q68 46 135 46q207 0 207 -223v-791z" />
    <glyph glyph-name="i" unicode="i" horiz-adv-x="417" 
d="M324 0h-230v989h230v-989zM209 1106q-59 0 -100 41t-41 98t42 99t99 42t99 -42t42 -98q0 -58 -41 -99t-100 -41z" />
    <glyph glyph-name="j" unicode="j" horiz-adv-x="417" 
d="M45 -401q-80 0 -123 49l53 178q16 -27 52 -27q68 0 67 115v1075h230v-1075q0 -162 -66 -238t-213 -77zM209 1106q-59 0 -100 41t-41 98t42 99t99 42t99 -42t42 -98q0 -58 -41 -99t-100 -41z" />
    <glyph glyph-name="k" unicode="k" horiz-adv-x="825" 
d="M324 0h-230v1366h230v-834l229 457h252l-234 -440l244 -549h-254l-145 395l-92 -164v-231z" />
    <glyph glyph-name="l" unicode="l" horiz-adv-x="417" 
d="M324 0h-230v1366h230v-1366z" />
    <glyph glyph-name="m" unicode="m" horiz-adv-x="1302" 
d="M1208 0h-231v705q0 104 -78 104q-43 0 -78 -39t-55 -90v-680h-231v705q0 104 -76 104q-43 0 -80 -39t-55 -90v-680h-230v989h230v-129q29 59 97 107q69 47 138 47q176 0 201 -164q29 63 98 114q70 50 141 50q209 0 209 -226v-788z" />
    <glyph glyph-name="n" unicode="n" horiz-adv-x="860" 
d="M766 0h-231v705q0 104 -76 104q-41 0 -78 -38t-57 -91v-680h-230v989h230v-129q33 61 100 108q68 46 135 46q207 0 207 -226v-788z" />
    <glyph glyph-name="o" unicode="o" horiz-adv-x="854" 
d="M426 180q133 0 133 314t-133 315q-133 -1 -133 -315t133 -314zM799 496q-1 -223 -95 -372t-277 -149q-183 1 -277 149t-94 372t94 370q94 148 277 148t277 -148t95 -370z" />
    <glyph glyph-name="p" unicode="p" horiz-adv-x="866" 
d="M442 180q131 0 131 314t-131 315q-38 0 -70 -33t-48 -82v-395q16 -51 48 -85t70 -34zM518 -25q-59 0 -112 37t-82 111v-500h-230v1366h230v-123q33 72 86 110t108 38q143 0 218 -138t75 -379t-75 -381t-218 -141z" />
    <glyph glyph-name="q" unicode="q" horiz-adv-x="866" 
d="M348 -25q-143 1 -218 141t-75 381t75 379t218 138q54 0 108 -39t85 -109v123h231v-1366h-231v500q-29 -74 -83 -111t-110 -37zM424 180q37 0 69 34t48 85v395q-16 49 -48 82t-69 33q-131 -1 -131 -315t131 -314z" />
    <glyph glyph-name="r" unicode="r" horiz-adv-x="575" 
d="M324 0h-230v989h230v-137q31 70 94 116t129 46v-228q-23 6 -59 6t-84 -35q-50 -36 -80 -91v-666z" />
    <glyph glyph-name="s" unicode="s" horiz-adv-x="706" 
d="M346 -25q-215 0 -319 129l94 160q96 -106 205 -106q55 0 89 28t34 72q0 43 -29 73t-72 50t-94 50t-94 64t-72 96t-29 142q0 119 84 200t242 81t279 -117l-93 -156q-74 90 -190 90q-47 -1 -77 -27t-30 -66t41 -70t99 -60t115 -66t99 -106t42 -166q0 -131 -92 -213
t-232 -82z" />
    <glyph glyph-name="t" unicode="t" horiz-adv-x="526" 
d="M342 -25q-112 -1 -164 61q-53 62 -53 191v561h-92v201h92v271h231v-271h125v-201h-125v-516q0 -92 56 -92q35 0 55 27l47 -182q-60 -50 -172 -50z" />
    <glyph glyph-name="u" unicode="u" horiz-adv-x="860" 
d="M766 0h-231v125q-31 -61 -98 -105t-136 -45q-207 0 -207 224v790h230v-706q0 -102 77 -103q43 0 79 37t55 88v684h231v-989z" />
    <glyph glyph-name="v" unicode="v" horiz-adv-x="780" 
d="M512 0h-248l-260 989h244l141 -700l141 700h246z" />
    <glyph glyph-name="w" unicode="w" horiz-adv-x="1245" 
d="M1008 0h-244l-141 674l-144 -674h-241l-228 989h240l127 -676l129 676h219l143 -676l125 676h242z" />
    <glyph glyph-name="x" unicode="x" horiz-adv-x="761" 
d="M754 0h-246l-127 328l-129 -328h-246l232 498l-222 491h244l121 -319l119 319h243l-221 -491z" />
    <glyph glyph-name="y" unicode="y" horiz-adv-x="780" 
d="M212 -401q-92 0 -130 16l35 201q18 -12 43 -13q63 0 84 70l26 102l-266 1014h244l141 -696l141 696h246l-309 -1163q-39 -131 -101 -179t-154 -48z" />
    <glyph glyph-name="z" unicode="z" horiz-adv-x="686" 
d="M633 0h-578v174l293 614h-293v201h570v-168l-295 -620h303v-201z" />
    <glyph glyph-name="braceleft" unicode="{" horiz-adv-x="450" 
d="M416 -389h-60q-96 1 -169 69t-72 173v442q0 59 -28 98t-79 39v135q51 0 79 39t28 99v442q0 102 72 172q73 70 169 70h60v-156h-60q-28 0 -50 -25t-21 -61v-465q0 -141 -95 -182q94 -41 95 -183v-464q-1 -37 21 -62t50 -24h60v-156z" />
    <glyph glyph-name="bar" unicode="|" horiz-adv-x="370" 
d="M262 -41h-156v1448h156v-1448z" />
    <glyph glyph-name="braceright" unicode="}" horiz-adv-x="450" 
d="M35 -389v156h57q30 1 52 25t22 61v464q0 143 92 183q-92 39 -92 182v465q0 37 -22 61t-52 25h-57v156h57q96 0 169 -70t73 -172v-442q0 -59 27 -99q28 -39 79 -39v-135q-51 0 -79 -39t-27 -98v-442q0 -103 -73 -173t-169 -69h-57z" />
    <glyph glyph-name="asciitilde" unicode="~" horiz-adv-x="851" 
d="M551 850q-74 0 -117 57t-54 127q-29 183 -77 185q-41 0 -57 -76t-31 -295l-162 14q15 354 125 455q51 47 125 47t117 -58t54 -127q29 -184 77 -186q39 0 56 77q18 77 32 296l158 -12q-15 -359 -121 -457q-51 -47 -125 -47z" />
    <glyph glyph-name="nbspace" unicode="&#xa0;" horiz-adv-x="329" 
 />
    <glyph glyph-name="exclamdown" unicode="&#xa1;" horiz-adv-x="509" 
d="M104 860q0 60 44 106t106 46t108 -45t46 -107t-46 -106q-46 -45 -107 -45q-62 0 -107 45q-44 45 -44 106zM115 -377l39 938h202l39 -938h-280z" />
    <glyph glyph-name="cent" unicode="&#xa2;" horiz-adv-x="704" 
d="M317 -205v201q-125 43 -193 176q-68 132 -69 322q0 190 69 322t193 177v164h170v-147q115 -14 185 -84l-76 -181q-57 63 -133 63t-123 -87q-47 -88 -47 -225q0 -136 47 -226t135 -90q66 0 121 64l76 -181q-61 -70 -185 -83v-185h-170z" />
    <glyph glyph-name="sterling" unicode="&#xa3;" horiz-adv-x="868" 
d="M61 565v150h97q-64 131 -64 283t116 270t259 118t233 -70t115 -198l-205 -88q-16 72 -43 109t-77 37t-84 -54q-35 -54 -35 -160t39 -184q4 -10 14 -33t12 -30h148v-150h-109q4 -41 4 -86q1 -45 -31 -121t-81 -118q43 18 81 18t96 -27q56 -27 93 -26q94 0 139 59l70 -203
q-28 -35 -94 -61t-141 -25q-75 0 -153 42t-120 42q-78 0 -174 -73l-74 176q72 49 116 124t44 142t-25 137h-166z" />
    <glyph glyph-name="currency" unicode="&#xa4;" horiz-adv-x="1069" 
d="M885 682q-1 146 -103 248t-247 102t-247 -102t-104 -248q0 -146 102 -248t248 -102t248 102t103 248zM86 684q0 160 102 285l-114 116l57 58l117 -115q121 102 285 102t288 -102l115 115l59 -58l-114 -116q102 -125 102 -285t-102 -289l114 -114l-59 -60l-115 117
q-123 -104 -287 -104t-286 104l-117 -117l-57 60l114 114q-102 129 -102 289z" />
    <glyph glyph-name="yen" unicode="&#xa5;" horiz-adv-x="880" 
d="M569 0h-258v240h-260v145h260v180h-260v146h201l-260 655h274l174 -551l176 551h273l-262 -655h200v-146h-258v-180h258v-145h-258v-240z" />
    <glyph glyph-name="brokenbar" unicode="&#xa6;" horiz-adv-x="370" 
d="M262 760h-156v647h156v-647zM262 -41h-156v647h156v-647z" />
    <glyph glyph-name="section" unicode="&#xa7;" horiz-adv-x="710" 
d="M467 590q0 117 -98 178q-107 -22 -107 -128t125 -175q80 41 80 125zM670 643q0 -166 -146 -248q145 -104 146 -266q0 -125 -92 -210t-232 -85q-207 0 -319 129l94 154q33 -41 89 -76t114 -35t92 35q33 35 33 81q0 84 -109 142q-109 57 -166 100q-115 88 -115 240
q0 82 45 147t119 91q-164 106 -164 276q0 119 85 194t214 74q188 0 304 -120l-93 -140q-88 94 -186 95q-49 0 -79 -28t-30 -74q0 -76 140 -148q57 -31 115 -68q57 -37 99 -103t42 -157z" />
    <glyph glyph-name="dieresis" unicode="&#xa8;" horiz-adv-x="567" 
d="M244 1247q0 -53 -37 -90t-89 -37t-89 38t-37 89t37 89t89 38t89 -37t37 -90zM578 1247q0 -51 -37 -89t-90 -38t-91 38q-37 38 -36 89q0 51 36 89t90 38t91 -38t37 -89z" />
    <glyph glyph-name="copyright" unicode="&#xa9;" horiz-adv-x="1593" 
d="M809 250q-182 0 -306 125t-124 311t124 309t307 123t298 -135l-61 -59q-87 116 -233 116t-246 -99t-99 -254q0 -155 99 -257t245 -102t236 121l61 -60q-119 -139 -301 -139zM1432 684q0 262 -188 448t-447 187q-259 0 -447 -186q-188 -187 -188 -449t187 -448t447 -186
t448 186t188 448zM1503 684q0 -291 -207 -499q-208 -208 -500 -208t-499 208t-207 499t207 499t500 208t499 -208t207 -499z" />
    <glyph glyph-name="ordfeminine" unicode="&#xaa;" horiz-adv-x="616" 
d="M287 764q59 0 84 57v90q-25 61 -84 62q-37 0 -59 -30t-21 -75q0 -104 80 -104zM541 668h-170v63q-49 -80 -139 -80q-90 1 -141 57q-52 56 -52 154t53 154t142 57q89 0 137 -76v82q0 119 -105 119q-74 0 -137 -74l-63 113q88 90 237 90q111 0 174 -58t64 -175v-426z" />
    <glyph glyph-name="guillemotleft" unicode="&#xab;" horiz-adv-x="788" 
d="M426 129h-180l-185 369l185 362h180l-184 -362zM727 129h-180l-185 369l185 362h180l-184 -362z" />
    <glyph glyph-name="logicalnot" unicode="&#xac;" horiz-adv-x="784" 
d="M725 952v-536h-152v389h-514v147h666z" />
    <glyph glyph-name="registered" unicode="&#xae;" horiz-adv-x="1011" 
d="M543 961q35 -1 63 25t27 64q0 38 -28 64t-62 27h-135v-180h135zM408 899v-197h-68v498h203q67 0 113 -42t46 -112t-46 -107q-46 -38 -81 -38l134 -199h-84l-129 197h-88zM877 954q0 154 -109 262q-108 108 -262 107q-154 0 -262 -108q-108 -107 -109 -261
q0 -154 109 -264q108 -110 262 -108q154 0 262 109t109 263zM72 952q0 180 127 308t308 126q181 0 307 -126t126 -307t-127 -308t-307 -127t-307 127t-127 307z" />
    <glyph glyph-name="macron" unicode="&#xaf;" horiz-adv-x="528" 
d="M528 1210h-528v136h528v-136z" />
    <glyph glyph-name="macron" unicode="&#x203e;" horiz-adv-x="528" 
d="M528 1210h-528v136h528v-136z" />
    <glyph glyph-name="degree" unicode="&#xb0;" horiz-adv-x="624" 
d="M453 1116q0 57 -42 99q-41 42 -99 42t-98 -42t-40 -99t40 -97t97 -40t100 40q42 40 42 97zM582 1116q0 -112 -79 -190t-192 -78t-191 78t-77 190q0 112 78 192q79 78 191 78t191 -78t79 -192z" />
    <glyph glyph-name="plusminus" unicode="&#xb1;" horiz-adv-x="784" 
d="M725 55h-666v146h666v-146zM725 618h-252v-299h-162v299h-252v146h252v285h162v-285h252v-146z" />
    <glyph glyph-name="twosuperior" unicode="&#xb2;" 
d="M565 862h-508v129q211 227 271 309q59 82 59 140t-27 85q-27 28 -71 27q-90 0 -148 -98l-106 105q100 135 264 135q119 0 191 -64t71 -160q0 -98 -59 -189t-226 -277h289v-142z" />
    <glyph glyph-name="threesuperior" unicode="&#xb3;" 
d="M565 1070q1 -92 -73 -158t-195 -64q-182 0 -266 133l110 104q59 -96 148 -96q104 0 104 111t-114 110q-45 0 -58 -2v142q10 -2 51 -2q111 0 111 102t-94 102t-142 -86l-108 95q90 133 258 133q117 0 187 -56t69 -165q0 -68 -41 -121t-102 -68q66 -10 110 -66t45 -148z
" />
    <glyph glyph-name="acute" unicode="&#xb4;" horiz-adv-x="364" 
d="M365 1434l-220 -295h-145l162 295h203z" />
    <glyph glyph-name="mu" unicode="&#xb5;" horiz-adv-x="860" 
d="M324 -377h-230v1366h230v-706q0 -104 77 -105q41 0 78 38t56 89v684h231v-989h-231v125q-29 -57 -87 -99t-124 -51v-352z" />
    <glyph glyph-name="mu" unicode="&#x3bc;" horiz-adv-x="860" 
d="M324 -377h-230v1366h230v-706q0 -104 77 -105q41 0 78 38t56 89v684h231v-989h-231v125q-29 -57 -87 -99t-124 -51v-352z" />
    <glyph glyph-name="paragraph" unicode="&#xb6;" horiz-adv-x="919" 
d="M811 -205h-119v1452h-166v-1452h-118v867q-145 0 -249 103q-103 103 -103 249t102 248q104 104 250 104h403v-1571z" />
    <glyph glyph-name="periodcentered" unicode="&#xb7;" horiz-adv-x="507" 
d="M254 651q62 0 108 -44q44 -44 44 -106q0 -63 -44 -107t-107 -44q-62 0 -108 44q-45 44 -45 106t45 107q45 44 107 44z" />
    <glyph glyph-name="periodcentered" unicode="&#x2219;" horiz-adv-x="507" 
d="M254 651q62 0 108 -44q44 -44 44 -106q0 -63 -44 -107t-107 -44q-62 0 -108 44q-45 44 -45 106t45 107q45 44 107 44z" />
    <glyph glyph-name="cedilla" unicode="&#xb8;" horiz-adv-x="372" 
d="M373 -236q1 -70 -55 -115q-56 -46 -148 -46t-170 63l45 94q68 -57 115 -57q46 1 70 21t24 53q0 55 -47 55q-31 0 -53 -27l-86 50l63 168h117l-53 -129q27 18 69 18t75 -39q34 -39 34 -109z" />
    <glyph glyph-name="onesuperior" unicode="&#xb9;" horiz-adv-x="499" 
d="M412 862h-179v594l-114 -119l-101 105l240 239h154v-819z" />
    <glyph glyph-name="ordmasculine" unicode="&#xba;" horiz-adv-x="630" 
d="M315 788q93 0 93 200t-92 200t-93 -200q0 -200 92 -200zM315 651q-129 -1 -197 97t-69 241q0 143 69 241q70 98 198 97q128 0 197 -97q69 -96 69 -240t-69 -242t-198 -97z" />
    <glyph glyph-name="guillemotright" unicode="&#xbb;" horiz-adv-x="788" 
d="M727 498l-184 -369h-181l185 369l-185 362h181zM426 498l-184 -369h-181l185 369l-185 362h181z" />
    <glyph glyph-name="onequarter" unicode="&#xbc;" horiz-adv-x="1327" 
d="M412 547h-179v594l-114 -119l-101 104l240 240h154v-819zM1057 324v303l-154 -303h154zM1303 184h-70v-184h-176v184h-303v138l266 497h213v-495h70v-140zM999 1366l-571 -1366h-102l569 1366h104z" />
    <glyph glyph-name="onehalf" unicode="&#xbd;" horiz-adv-x="1398" 
d="M412 547h-179v594l-114 -119l-101 104l240 240h154v-819zM1364 0h-508v129q211 227 270 309q60 82 60 140t-27 85q-27 28 -72 27q-90 0 -147 -98l-106 104q100 135 264 135q118 0 190 -63q72 -62 72 -160t-60 -189t-225 -278h289v-141zM999 1366l-571 -1366h-102
l569 1366h104z" />
    <glyph glyph-name="threequarters" unicode="&#xbe;" horiz-adv-x="1400" 
d="M565 756q1 -92 -73 -158t-195 -66q-182 0 -266 134l110 104q59 -96 148 -96q104 0 104 110t-114 111q-45 0 -58 -2v141q10 -2 51 -2q111 0 111 102t-94 103q-94 0 -142 -86l-108 94q90 133 258 133q117 0 187 -56t69 -165q0 -68 -41 -121t-102 -67q66 -9 110 -65t45 -148
zM1130 324v303l-153 -303h153zM1376 184h-69v-184h-177v184h-303v138l267 497h213v-495h69v-140zM1073 1366l-571 -1366h-103l570 1366h104z" />
    <glyph glyph-name="questiondown" unicode="&#xbf;" horiz-adv-x="587" 
d="M328 1012q61 0 106 -45t45 -107t-45 -106q-45 -45 -106 -45t-107 45q-45 45 -45 106t45 107q46 45 107 45zM473 418q0 -157 -95 -266t-93 -205q1 -49 31 -87t88 -38t104 61l106 -159q-117 -125 -267 -125t-233 83t-83 212q0 82 36 158t78 123q115 128 115 237
q0 51 -31 94l193 72q51 -66 51 -160z" />
    <glyph glyph-name="Agrave" unicode="&#xc0;" horiz-adv-x="868" 
d="M530 479l-96 598l-98 -598h194zM866 0h-264l-41 252h-256l-41 -252h-264l285 1366h297zM567 1491h-147l-217 295h200z" />
    <glyph glyph-name="Aacute" unicode="&#xc1;" horiz-adv-x="868" 
d="M530 479l-96 598l-98 -598h194zM866 0h-264l-41 252h-256l-41 -252h-264l285 1366h297zM670 1786l-219 -295h-146l162 295h203z" />
    <glyph glyph-name="Acircumflex" unicode="&#xc2;" horiz-adv-x="868" 
d="M530 479l-96 598l-98 -598h194zM866 0h-264l-41 252h-256l-41 -252h-264l285 1366h297zM672 1491h-129l-109 188l-104 -188h-129l127 295h211z" />
    <glyph glyph-name="Atilde" unicode="&#xc3;" horiz-adv-x="868" 
d="M530 479l-96 598l-98 -598h194zM866 0h-264l-41 252h-256l-41 -252h-264l285 1366h297zM524 1487q-38 -1 -64 23t-38 53q-32 77 -68 75q-59 0 -59 -139h-121q0 123 46 199t128 76q47 0 76 -38t49 -76t45 -38q59 0 60 139h120q0 -123 -46 -199t-128 -75z" />
    <glyph glyph-name="Adieresis" unicode="&#xc4;" horiz-adv-x="868" 
d="M530 479l-96 598l-98 -598h194zM866 0h-264l-41 252h-256l-41 -252h-264l285 1366h297zM393 1599q0 -53 -37 -90t-89 -37t-89 38t-37 89t37 89t89 38t89 -37t37 -90zM727 1599q0 -51 -38 -89t-89 -38t-89 38t-38 89t38 89t89 38t89 -38t38 -89z" />
    <glyph glyph-name="Aring" unicode="&#xc5;" horiz-adv-x="868" 
d="M530 479l-96 598l-98 -598h194zM866 0h-264l-41 252h-256l-41 -252h-264l285 1366h297zM436 1520q33 0 57 24q23 24 23 57t-24 57t-56 24t-56 -24t-24 -58t24 -56q24 -24 56 -24zM436 1419q-76 -1 -129 53t-53 130t53 128t129 52t128 -52t52 -128t-52 -130t-128 -53z" />
    <glyph glyph-name="AE" unicode="&#xc6;" horiz-adv-x="1241" 
d="M582 479v598l-172 -598h172zM1180 0h-598v252h-234l-76 -252h-262l461 1366h709v-227h-340v-330h325v-227h-325v-355h340v-227z" />
    <glyph glyph-name="Ccedilla" unicode="&#xc7;" horiz-adv-x="878" 
d="M678 -228q0 -70 -56 -115q-56 -46 -147 -46q-92 0 -170 63l45 95q68 -57 115 -57t71 20t23 53q0 55 -47 55q-31 0 -53 -26l-86 49l45 119q-178 33 -267 220q-89 186 -89 494t106 500t323 193q217 0 312 -232q16 -39 31 -90l-207 -76q-23 86 -53 127t-85 41
q-163 0 -163 -477t163 -477q109 0 142 198l205 -75q-78 -324 -306 -351l-30 -75q30 18 70 18t74 -39t34 -109z" />
    <glyph glyph-name="Egrave" unicode="&#xc8;" horiz-adv-x="776" 
d="M705 0h-599v1366h599v-227h-340v-330h325v-227h-325v-355h340v-227zM543 1491h-148l-217 295h201z" />
    <glyph glyph-name="Eacute" unicode="&#xc9;" horiz-adv-x="776" 
d="M705 0h-599v1366h599v-227h-340v-330h325v-227h-325v-355h340v-227zM647 1786l-219 -295h-145l161 295h203z" />
    <glyph glyph-name="Ecircumflex" unicode="&#xca;" horiz-adv-x="776" 
d="M705 0h-599v1366h599v-227h-340v-330h325v-227h-325v-355h340v-227zM643 1491h-129l-108 188l-105 -188h-129l127 295h211z" />
    <glyph glyph-name="Edieresis" unicode="&#xcb;" horiz-adv-x="776" 
d="M705 0h-599v1366h599v-227h-340v-330h325v-227h-325v-355h340v-227zM369 1599q0 -53 -37 -90t-89 -37t-89 38t-37 89t37 89t89 38t89 -37t37 -90zM702 1599q0 -51 -38 -89t-88 -38q-52 0 -90 38t-37 89q0 51 37 90q38 37 89 37t90 -37q37 -39 37 -90z" />
    <glyph glyph-name="Igrave" unicode="&#xcc;" horiz-adv-x="471" 
d="M365 0h-259v1366h259v-1366zM367 1491h-148l-217 295h201z" />
    <glyph glyph-name="Iacute" unicode="&#xcd;" horiz-adv-x="471" 
d="M365 0h-259v1366h259v-1366zM473 1786l-219 -295h-145l161 295h203z" />
    <glyph glyph-name="Icircumflex" unicode="&#xce;" horiz-adv-x="471" 
d="M365 0h-259v1366h259v-1366zM471 1491h-129l-109 188l-104 -188h-129l127 295h211z" />
    <glyph glyph-name="Idieresis" unicode="&#xcf;" horiz-adv-x="471" 
d="M365 0h-259v1366h259v-1366zM199 1599q0 -53 -37 -90t-89 -37t-89 38t-37 89t37 89t89 38t89 -37t37 -90zM532 1599q0 -51 -36 -89t-90 -38q-53 0 -91 38q-37 38 -36 89q0 51 36 90q37 37 91 37t90 -37q36 -39 36 -90z" />
    <glyph glyph-name="Eth" unicode="&#xd0;" horiz-adv-x="1019" 
d="M551 580h-139v-353h84q198 0 198 456t-198 456h-84v-369h139v-190zM496 0h-342v580h-121v190h121v596h340q236 0 350 -186t114 -498t-113 -498q-113 -184 -349 -184z" />
    <glyph glyph-name="Ntilde" unicode="&#xd1;" horiz-adv-x="991" 
d="M885 0h-242l-278 782v-782h-259v1366h259l262 -756v756h258v-1366zM582 1487q-37 -1 -64 23t-39 53q-32 77 -67 75q-59 0 -60 -139h-121q1 123 47 199t128 76q48 0 76 -38t48 -76t45 -38q59 0 60 139h121q0 -123 -46 -199t-128 -75z" />
    <glyph glyph-name="Ograve" unicode="&#xd2;" horiz-adv-x="978" 
d="M651 682q0 477 -163 477t-163 -477t163 -477t163 477zM489 -25q-215 0 -321 194t-107 513q1 319 107 513t321 194t321 -194t105 -513q1 -319 -105 -513t-321 -194zM621 1491h-148l-217 295h201z" />
    <glyph glyph-name="Oacute" unicode="&#xd3;" horiz-adv-x="978" 
d="M651 682q0 477 -163 477t-163 -477t163 -477t163 477zM489 -25q-215 0 -321 194t-107 513q1 319 107 513t321 194t321 -194t105 -513q1 -319 -105 -513t-321 -194zM725 1786l-219 -295h-146l162 295h203z" />
    <glyph glyph-name="Ocircumflex" unicode="&#xd4;" horiz-adv-x="978" 
d="M651 682q0 477 -163 477t-163 -477t163 -477t163 477zM489 -25q-215 0 -321 194t-107 513q1 319 107 513t321 194t321 -194t105 -513q1 -319 -105 -513t-321 -194zM727 1491h-129l-109 188l-104 -188h-129l127 295h211z" />
    <glyph glyph-name="Otilde" unicode="&#xd5;" horiz-adv-x="978" 
d="M651 682q0 477 -163 477t-163 -477t163 -477t163 477zM489 -25q-215 0 -321 194t-107 513q1 319 107 513t321 194t321 -194t105 -513q1 -319 -105 -513t-321 -194zM580 1487q-37 -1 -64 23t-39 53q-32 77 -67 75q-59 0 -60 -139h-121q0 123 46 199t128 76q47 0 76 -38
t49 -76t45 -38q59 0 60 139h121q0 -123 -46 -199t-128 -75z" />
    <glyph glyph-name="Odieresis" unicode="&#xd6;" horiz-adv-x="978" 
d="M651 682q0 477 -163 477t-163 -477t163 -477t163 477zM489 -25q-215 0 -321 194t-107 513q1 319 107 513t321 194t321 -194t105 -513q1 -319 -105 -513t-321 -194zM449 1599q0 -53 -37 -90t-89 -37t-90 38q-37 38 -36 89q0 51 36 90q37 37 89 37t90 -37q37 -37 37 -90z
M782 1599q0 -51 -37 -89t-90 -38t-90 38t-37 89t37 89t90 38t90 -38t37 -89z" />
    <glyph glyph-name="multiply" unicode="&#xd7;" horiz-adv-x="784" 
d="M598 375l-207 207l-205 -207l-104 104l207 205l-207 205l104 104l205 -207l207 207l104 -104l-206 -205l206 -205z" />
    <glyph glyph-name="Oslash" unicode="&#xd8;" horiz-adv-x="978" 
d="M489 205q162 0 162 477q0 88 -6 168l-266 -555q38 -90 110 -90zM326 682q0 -94 6 -174l268 559q-43 92 -111 92q-163 0 -163 -477zM489 -25q-133 0 -227 78l-24 -53h-150l80 168q-106 184 -106 508t106 519q106 194 321 194q131 0 228 -80l26 57h150l-84 -172
q106 -184 106 -508q1 -324 -105 -517q-106 -194 -321 -194z" />
    <glyph glyph-name="Ugrave" unicode="&#xd9;" horiz-adv-x="991" 
d="M496 -25q-166 1 -278 107t-112 313v971h259v-983q0 -180 131 -180t131 180v983h258v-971q1 -207 -111 -313t-278 -107zM629 1491h-148l-217 295h201z" />
    <glyph glyph-name="Uacute" unicode="&#xda;" horiz-adv-x="991" 
d="M496 -25q-166 1 -278 107t-112 313v971h259v-983q0 -180 131 -180t131 180v983h258v-971q1 -207 -111 -313t-278 -107zM733 1786l-219 -295h-145l161 295h203z" />
    <glyph glyph-name="Ucircumflex" unicode="&#xdb;" horiz-adv-x="991" 
d="M496 -25q-166 1 -278 107t-112 313v971h259v-983q0 -180 131 -180t131 180v983h258v-971q1 -207 -111 -313t-278 -107zM733 1491h-129l-108 188l-105 -188h-129l127 295h211z" />
    <glyph glyph-name="Udieresis" unicode="&#xdc;" horiz-adv-x="991" 
d="M496 -25q-166 1 -278 107t-112 313v971h259v-983q0 -180 131 -180t131 180v983h258v-971q1 -207 -111 -313t-278 -107zM455 1599q0 -53 -37 -90t-89 -37t-89 38t-37 89t37 89t89 38t89 -37t37 -90zM788 1599q0 -51 -38 -89t-88 -38q-51 0 -90 38q-38 38 -37 89
q0 51 37 90q38 37 90 37t89 -37q37 -39 37 -90z" />
    <glyph glyph-name="Yacute" unicode="&#xdd;" horiz-adv-x="880" 
d="M569 0h-258v565l-319 801h274l174 -551l176 551h273l-320 -801v-565zM680 1786l-219 -295h-146l162 295h203z" />
    <glyph glyph-name="Thorn" unicode="&#xde;" horiz-adv-x="903" 
d="M446 502q72 0 111 54t39 150t-39 151q-39 56 -111 56h-81v-411h81zM365 0h-259v1366h259v-227h110q189 0 287 -124t98 -308q0 -183 -98 -307t-287 -124h-110v-276z" />
    <glyph glyph-name="germandbls" unicode="&#xdf;" horiz-adv-x="1056" 
d="M1030 270q0 -119 -87 -207t-222 -88q-184 0 -301 129l82 162q86 -106 174 -106q47 0 79 30q31 30 31 74q-1 75 -121 147q-50 30 -101 65q-50 36 -86 98t-36 135t30 125t66 82q95 75 95 151q0 49 -40 82q-39 33 -105 33t-109 -44t-43 -134v-1004h-230v1004q0 164 104 274
t270 108q166 0 276 -86t108 -208q0 -74 -30 -131t-68 -87q-100 -82 -99 -144q1 -61 92 -103t177 -115q42 -34 68 -98t26 -144z" />
    <glyph glyph-name="agrave" unicode="&#xe0;" horiz-adv-x="847" 
d="M557 1139h-147l-217 295h200zM399 133q90 0 125 92v148q-35 96 -125 96q-57 0 -88 -47t-31 -122t32 -121q30 -46 87 -46zM756 0h-232v100q-31 -59 -90 -92t-117 -33q-119 -1 -193 89t-75 240q0 150 75 236q75 87 193 87q59 0 119 -31t88 -88v129q0 180 -149 180
q-104 0 -201 -98l-84 162q62 69 154 101t178 32q158 0 246 -81t88 -243v-690z" />
    <glyph glyph-name="aacute" unicode="&#xe1;" horiz-adv-x="847" 
d="M664 1434l-220 -295h-145l162 295h203zM399 133q90 0 125 92v148q-35 96 -125 96q-57 0 -88 -47t-31 -122t32 -121q30 -46 87 -46zM756 0h-232v100q-31 -59 -90 -92t-117 -33q-119 -1 -193 89t-75 240q0 150 75 236q75 87 193 87q59 0 119 -31t88 -88v129q0 180 -149 180
q-104 0 -201 -98l-84 162q62 69 154 101t178 32q158 0 246 -81t88 -243v-690z" />
    <glyph glyph-name="acircumflex" unicode="&#xe2;" horiz-adv-x="847" 
d="M666 1139h-129l-109 188l-104 -188h-129l127 295h210zM399 133q90 0 125 92v148q-35 96 -125 96q-57 0 -88 -47t-31 -122t32 -121q30 -46 87 -46zM756 0h-232v100q-31 -59 -90 -92t-117 -33q-119 -1 -193 89t-75 240q0 150 75 236q75 87 193 87q59 0 119 -31t88 -88v129
q0 180 -149 180q-104 0 -201 -98l-84 162q62 69 154 101t178 32q158 0 246 -81t88 -243v-690z" />
    <glyph glyph-name="atilde" unicode="&#xe3;" horiz-adv-x="847" 
d="M514 1135q-38 -1 -64 23t-38 52q-33 77 -68 76q-59 0 -59 -139h-121q0 123 46 199t128 75q47 0 76 -38q29 -37 49 -75t45 -38q59 0 59 139h121q0 -123 -46 -199t-128 -75zM399 133q90 0 125 92v148q-35 96 -125 96q-57 0 -88 -47t-31 -122t32 -121q30 -46 87 -46zM756 0
h-232v100q-31 -59 -90 -92t-117 -33q-119 -1 -193 89t-75 240q0 150 75 236q75 87 193 87q59 0 119 -31t88 -88v129q0 180 -149 180q-104 0 -201 -98l-84 162q62 69 154 101t178 32q158 0 246 -81t88 -243v-690z" />
    <glyph glyph-name="adieresis" unicode="&#xe4;" horiz-adv-x="847" 
d="M387 1247q0 -53 -37 -90t-89 -37t-89 38t-37 89t37 89t89 38t89 -37t37 -90zM721 1247q0 -51 -37 -89t-90 -38t-90 38t-37 89t37 89t90 38t90 -38t37 -89zM399 133q90 0 125 92v148q-35 96 -125 96q-57 0 -88 -47t-31 -122t32 -121q30 -46 87 -46zM756 0h-232v100
q-31 -59 -90 -92t-117 -33q-119 -1 -193 89t-75 240q0 150 75 236q75 87 193 87q59 0 119 -31t88 -88v129q0 180 -149 180q-104 0 -201 -98l-84 162q62 69 154 101t178 32q158 0 246 -81t88 -243v-690z" />
    <glyph glyph-name="aring" unicode="&#xe5;" horiz-adv-x="847" 
d="M424 1212q32 0 56 24t24 58t-24 57t-56 23t-56 -24t-24 -57t24 -57t56 -24zM424 1112q-76 0 -129 53t-53 129t53 128t129 52t128 -52t52 -128t-52 -129t-128 -53zM399 133q90 0 125 92v148q-35 96 -125 96q-57 0 -88 -47t-31 -122t32 -121q30 -46 87 -46zM756 0h-232v100
q-31 -59 -90 -92t-117 -33q-119 -1 -193 89t-75 240q0 150 75 236q75 87 193 87q59 0 119 -31t88 -88v129q0 180 -149 180q-104 0 -201 -98l-84 162q62 69 154 101t178 32q158 0 246 -81t88 -243v-690z" />
    <glyph glyph-name="ae" unicode="&#xe6;" horiz-adv-x="1294" 
d="M399 469q-55 0 -87 -44t-31 -124q0 -168 118 -168q99 0 142 113q-16 61 -17 127q-35 96 -125 96zM745 582h279q0 244 -137 243q-78 1 -110 -73t-32 -170zM1247 418h-502q5 -117 53 -186q48 -68 139 -68t167 98l113 -129q-121 -158 -310 -158t-299 170
q-106 -170 -291 -170q-119 0 -193 87t-75 237q0 150 75 239t193 89q59 0 117 -31t90 -88v129q0 180 -149 180q-104 0 -201 -98l-84 162q62 69 154 101t178 32q170 0 244 -119q80 119 244 119t250 -144q87 -144 87 -374v-78z" />
    <glyph glyph-name="ccedilla" unicode="&#xe7;" horiz-adv-x="704" 
d="M627 -232q1 -70 -55 -115q-56 -46 -148 -46t-170 63l45 94q68 -57 115 -57q46 1 70 21t24 53q0 55 -47 55q-31 0 -53 -26l-86 49l45 123q-147 27 -230 165q-82 139 -82 359q-1 220 101 364t265 144t251 -88l-76 -181q-57 63 -133 63t-123 -87q-47 -88 -47 -225
q0 -136 47 -226t135 -90q66 0 121 64l76 -181q-68 -72 -191 -86l-32 -79q27 18 69 18t75 -39q34 -39 34 -109z" />
    <glyph glyph-name="egrave" unicode="&#xe8;" horiz-adv-x="827" 
d="M559 1139h-147l-217 295h200zM559 582q0 244 -139 243q-76 1 -109 -73t-32 -170h280zM445 -25q-185 1 -287 143t-102 372t96 377t274 147t266 -142t88 -372v-82h-501q2 -115 50 -185q48 -69 140 -69t168 98l113 -129q-121 -158 -305 -158z" />
    <glyph glyph-name="eacute" unicode="&#xe9;" horiz-adv-x="827" 
d="M666 1434l-220 -295h-145l162 295h203zM559 582q0 244 -139 243q-76 1 -109 -73t-32 -170h280zM445 -25q-185 1 -287 143t-102 372t96 377t274 147t266 -142t88 -372v-82h-501q2 -115 50 -185q48 -69 140 -69t168 98l113 -129q-121 -158 -305 -158z" />
    <glyph glyph-name="ecircumflex" unicode="&#xea;" horiz-adv-x="827" 
d="M657 1139h-129l-108 188l-105 -188h-129l127 295h211zM559 582q0 244 -139 243q-76 1 -109 -73t-32 -170h280zM445 -25q-185 1 -287 143t-102 372t96 377t274 147t266 -142t88 -372v-82h-501q2 -115 50 -185q48 -69 140 -69t168 98l113 -129q-121 -158 -305 -158z" />
    <glyph glyph-name="edieresis" unicode="&#xeb;" horiz-adv-x="827" 
d="M379 1247q0 -53 -37 -90t-89 -37t-89 38t-37 89t37 89t89 38t89 -37t37 -90zM713 1247q0 -51 -37 -89t-90 -38t-90 38t-37 89t37 89t90 38t90 -38t37 -89zM559 582q0 244 -139 243q-76 1 -109 -73t-32 -170h280zM445 -25q-185 1 -287 143t-102 372t96 377t274 147
t266 -142t88 -372v-82h-501q2 -115 50 -185q48 -69 140 -69t168 98l113 -129q-121 -158 -305 -158z" />
    <glyph glyph-name="igrave" unicode="&#xec;" horiz-adv-x="417" 
d="M324 0h-230v989h230v-989zM340 1139h-147l-218 295h201z" />
    <glyph glyph-name="iacute" unicode="&#xed;" horiz-adv-x="417" 
d="M324 0h-230v989h230v-989zM444 1434l-219 -295h-145l162 295h202z" />
    <glyph glyph-name="icircumflex" unicode="&#xee;" horiz-adv-x="417" 
d="M324 0h-230v989h230v-989zM446 1139h-129l-108 188l-105 -188h-129l127 295h211z" />
    <glyph glyph-name="idieresis" unicode="&#xef;" horiz-adv-x="417" 
d="M324 0h-230v989h230v-989zM168 1247q0 -53 -37 -90t-89 -37t-89 38t-37 89t37 89t89 38t89 -37t37 -90zM502 1247q0 -51 -38 -89t-89 -38t-89 38t-38 89t38 89t89 38t89 -38t38 -89z" />
    <glyph glyph-name="eth" unicode="&#xf0;" horiz-adv-x="854" 
d="M426 180q133 0 133 285t-133 285t-133 -285t133 -285zM799 584q0 -609 -373 -609q-182 -1 -276 141t-94 350t79 348q80 140 216 140t200 -141q-27 152 -84 291l-188 -84l-52 110l193 84q-37 78 -70 129l205 95q41 -72 72 -133l131 57l47 -107l-131 -59q125 -311 125 -612
z" />
    <glyph glyph-name="ntilde" unicode="&#xf1;" horiz-adv-x="860" 
d="M520 1135q-38 -1 -64 23t-38 52q-33 77 -68 76q-59 0 -59 -139h-121q0 123 46 199t128 75q47 0 76 -38q29 -37 49 -75t45 -38q59 0 59 139h121q0 -123 -46 -199t-128 -75zM766 0h-231v705q0 104 -76 104q-41 0 -78 -38t-57 -91v-680h-230v989h230v-129q33 61 100 108
q68 46 135 46q207 0 207 -226v-788z" />
    <glyph glyph-name="ograve" unicode="&#xf2;" horiz-adv-x="854" 
d="M559 1139h-147l-217 295h200zM426 180q133 0 133 314t-133 315q-133 -1 -133 -315t133 -314zM799 496q-1 -223 -95 -372t-277 -149q-183 1 -277 149t-94 372t94 370q94 148 277 148t277 -148t95 -370z" />
    <glyph glyph-name="oacute" unicode="&#xf3;" horiz-adv-x="854" 
d="M664 1434l-220 -295h-145l162 295h203zM426 180q133 0 133 314t-133 315q-133 -1 -133 -315t133 -314zM799 496q-1 -223 -95 -372t-277 -149q-183 1 -277 149t-94 372t94 370q94 148 277 148t277 -148t95 -370z" />
    <glyph glyph-name="ocircumflex" unicode="&#xf4;" horiz-adv-x="854" 
d="M664 1139h-129l-109 188l-104 -188h-129l126 295h211zM426 180q133 0 133 314t-133 315q-133 -1 -133 -315t133 -314zM799 496q-1 -223 -95 -372t-277 -149q-183 1 -277 149t-94 372t94 370q94 148 277 148t277 -148t95 -370z" />
    <glyph glyph-name="otilde" unicode="&#xf5;" horiz-adv-x="854" 
d="M514 1135q-38 -1 -64 23t-38 52q-33 77 -68 76q-59 0 -59 -139h-121q0 123 46 199t128 75q47 0 76 -38q29 -37 49 -75t45 -38q59 0 59 139h121q0 -123 -46 -199t-128 -75zM426 180q133 0 133 314t-133 315q-133 -1 -133 -315t133 -314zM799 496q-1 -223 -95 -372
t-277 -149q-183 1 -277 149t-94 372t94 370q94 148 277 148t277 -148t95 -370z" />
    <glyph glyph-name="odieresis" unicode="&#xf6;" horiz-adv-x="854" 
d="M387 1247q0 -53 -37 -90t-89 -37t-89 38t-37 89t37 89t89 38t89 -37t37 -90zM721 1247q0 -51 -37 -89t-90 -38t-90 38t-37 89t37 89t90 38t90 -38t37 -89zM426 180q133 0 133 314t-133 315q-133 -1 -133 -315t133 -314zM799 496q-1 -223 -95 -372t-277 -149
q-183 1 -277 149t-94 372t94 370q94 148 277 148t277 -148t95 -370z" />
    <glyph glyph-name="divide" unicode="&#xf7;" horiz-adv-x="765" 
d="M502 391q0 -47 -35 -82t-82 -35t-82 35t-35 82t35 82t82 35t82 -35t35 -82zM707 618h-648v146h648v-146zM502 986q0 -48 -35 -83t-82 -35t-82 35t-35 83t35 82t82 34t82 -34t35 -82z" />
    <glyph glyph-name="oslash" unicode="&#xf8;" horiz-adv-x="854" 
d="M426 180q133 0 133 316q0 55 -6 104l-215 -364q33 -56 88 -56zM293 496q0 -41 4 -111l219 369q-33 55 -90 55q-133 0 -133 -313zM55 494q1 224 95 372q94 147 276 148q119 0 205 -68l24 43h129l-77 -129q92 -145 92 -366q0 -222 -94 -370t-279 -149q-117 0 -203 66
l-24 -41h-129l75 129q-90 141 -90 365z" />
    <glyph glyph-name="ugrave" unicode="&#xf9;" horiz-adv-x="860" 
d="M561 1139h-147l-217 295h200zM766 0h-231v125q-31 -61 -98 -105t-136 -45q-207 0 -207 224v790h230v-706q0 -102 77 -103q43 0 79 37t55 88v684h231v-989z" />
    <glyph glyph-name="uacute" unicode="&#xfa;" horiz-adv-x="860" 
d="M666 1434l-220 -295h-145l162 295h203zM766 0h-231v125q-31 -61 -98 -105t-136 -45q-207 0 -207 224v790h230v-706q0 -102 77 -103q43 0 79 37t55 88v684h231v-989z" />
    <glyph glyph-name="ucircumflex" unicode="&#xfb;" horiz-adv-x="860" 
d="M668 1139h-129l-109 188l-104 -188h-129l127 295h211zM766 0h-231v125q-31 -61 -98 -105t-136 -45q-207 0 -207 224v790h230v-706q0 -102 77 -103q43 0 79 37t55 88v684h231v-989z" />
    <glyph glyph-name="udieresis" unicode="&#xfc;" horiz-adv-x="860" 
d="M391 1247q0 -53 -37 -90t-89 -37t-89 38t-37 89t37 89t89 38t89 -37t37 -90zM725 1247q0 -51 -37 -89t-90 -38t-90 38t-37 89t37 89t90 38t90 -38t37 -89zM766 0h-231v125q-31 -61 -98 -105t-136 -45q-207 0 -207 224v790h230v-706q0 -102 77 -103q43 0 79 37t55 88v684
h231v-989z" />
    <glyph glyph-name="yacute" unicode="&#xfd;" horiz-adv-x="780" 
d="M625 1434l-219 -295h-146l162 295h203zM212 -401q-92 0 -130 16l35 201q18 -12 43 -13q63 0 84 70l26 102l-266 1014h244l141 -696l141 696h246l-309 -1163q-39 -131 -101 -179t-154 -48z" />
    <glyph glyph-name="thorn" unicode="&#xfe;" horiz-adv-x="866" 
d="M442 180q131 0 131 314t-131 315q-38 0 -70 -33t-48 -82v-395q16 -51 48 -85t70 -34zM518 -25q-59 0 -112 35t-82 109v-496h-230v1743h230v-494q66 142 202 142t210 -138q75 -138 75 -379t-75 -381t-218 -141z" />
    <glyph glyph-name="ydieresis" unicode="&#xff;" horiz-adv-x="780" 
d="M348 1247q0 -53 -37 -90t-89 -37t-89 38t-37 89t37 89t89 38t89 -37t37 -90zM682 1247q0 -51 -38 -89t-89 -38t-89 38t-38 89t38 89t89 38t89 -38t38 -89zM212 -401q-92 0 -130 16l35 201q18 -12 43 -13q63 0 84 70l26 102l-266 1014h244l141 -696l141 696h246
l-309 -1163q-39 -131 -101 -179t-154 -48z" />
    <glyph glyph-name="Amacron" unicode="&#x100;" horiz-adv-x="868" 
d="M696 1530h-528v135h528v-135zM530 479l-96 598l-98 -598h194zM866 0h-264l-41 252h-256l-41 -252h-264l285 1366h297z" />
    <glyph glyph-name="amacron" unicode="&#x101;" horiz-adv-x="847" 
d="M688 1178h-528v135h528v-135zM399 133q90 0 125 92v148q-35 96 -125 96q-57 0 -88 -47t-31 -122t32 -121q30 -46 87 -46zM756 0h-232v100q-31 -59 -90 -92t-117 -33q-119 -1 -193 89t-75 240q0 150 75 236q75 87 193 87q59 0 119 -31t88 -88v129q0 180 -149 180
q-104 0 -201 -98l-84 162q62 69 154 101t178 32q158 0 246 -81t88 -243v-690z" />
    <glyph glyph-name="Abreve" unicode="&#x102;" horiz-adv-x="868" 
d="M433 1468q-159 0 -255 127l109 82q53 -73 146 -73t145 73l108 -82q-94 -127 -253 -127zM530 479l-96 598l-98 -598h194zM866 0h-264l-41 252h-256l-41 -252h-264l285 1366h297z" />
    <glyph glyph-name="abreve" unicode="&#x103;" horiz-adv-x="847" 
d="M425 1143q-159 0 -255 127l109 82q53 -74 146 -74t144 74l109 -82q-94 -127 -253 -127zM399 133q90 0 125 92v148q-35 96 -125 96q-57 0 -88 -47t-31 -122t32 -121q30 -46 87 -46zM756 0h-232v100q-31 -59 -90 -92t-117 -33q-119 -1 -193 89t-75 240q0 150 75 236
q75 87 193 87q59 0 119 -31t88 -88v129q0 180 -149 180q-104 0 -201 -98l-84 162q62 69 154 101t178 32q158 0 246 -81t88 -243v-690z" />
    <glyph glyph-name="Aogonek" unicode="&#x104;" horiz-adv-x="868" 
d="M530 479l-96 598l-98 -598h194zM795 -381q-76 0 -120 42t-44 126q0 117 88 213h-117l-41 252h-256l-41 -252h-264l285 1366h297l284 -1366q-117 -84 -116 -205q0 -74 47 -74q43 1 55 58l96 -51q-43 -109 -153 -109z" />
    <glyph glyph-name="aogonek" unicode="&#x105;" horiz-adv-x="847" 
d="M399 133q90 0 125 92v148q-35 96 -125 96q-57 0 -88 -47t-31 -122t32 -121q30 -46 87 -46zM684 -381q-76 0 -120 42t-44 126q0 117 88 213h-84v100q-31 -59 -90 -92t-117 -33q-119 -1 -193 89t-75 240q0 150 75 236q75 87 193 87q59 0 119 -31t88 -88v129q0 180 -149 180
q-104 0 -201 -98l-84 162q62 69 154 101t178 32q158 0 246 -81t88 -243v-690q-117 -84 -117 -205q0 -74 47 -74q43 1 55 58l97 -51q-43 -109 -154 -109z" />
    <glyph glyph-name="Cacute" unicode="&#x106;" horiz-adv-x="878" 
d="M727 1786l-219 -295h-146l162 295h203zM489 -25q-215 0 -321 193q-106 192 -106 514t106 514t323 193q217 0 312 -232q16 -39 31 -90l-207 -76q-23 86 -53 127t-85 41q-163 0 -163 -477t163 -477q109 0 142 198l205 -75q-85 -353 -347 -353z" />
    <glyph glyph-name="cacute" unicode="&#x107;" horiz-adv-x="704" 
d="M670 1434l-219 -295h-146l162 295h203zM424 -25q-166 1 -267 145t-101 376t100 374q102 144 265 144t251 -88l-76 -181q-57 63 -133 63t-123 -87q-47 -88 -47 -225q0 -136 47 -226t135 -90q66 0 121 64l76 -181q-82 -88 -248 -88z" />
    <glyph glyph-name="Ccircumflex" unicode="&#x108;" horiz-adv-x="878" 
d="M727 1491h-129l-109 188l-104 -188h-129l127 295h211zM489 -25q-215 0 -321 193q-106 192 -106 514t106 514t323 193q217 0 312 -232q16 -39 31 -90l-207 -76q-23 86 -53 127t-85 41q-163 0 -163 -477t163 -477q109 0 142 198l205 -75q-85 -353 -347 -353z" />
    <glyph glyph-name="ccircumflex" unicode="&#x109;" horiz-adv-x="704" 
d="M672 1139h-129l-109 188l-104 -188h-129l127 295h211zM424 -25q-166 1 -267 145t-101 376t100 374q102 144 265 144t251 -88l-76 -181q-57 63 -133 63t-123 -87q-47 -88 -47 -225q0 -136 47 -226t135 -90q66 0 121 64l76 -181q-82 -88 -248 -88z" />
    <glyph glyph-name="Cdotaccent" unicode="&#x10a;" horiz-adv-x="878" 
d="M488 1475q-52 1 -89 37t-37 88t37 90t89 36q52 0 90 -36q36 -38 36 -90t-36 -89q-38 -36 -90 -36zM489 -25q-215 0 -321 193q-106 192 -106 514t106 514t323 193q217 0 312 -232q16 -39 31 -90l-207 -76q-23 86 -53 127t-85 41q-163 0 -163 -477t163 -477q109 0 142 198
l205 -75q-85 -353 -347 -353z" />
    <glyph glyph-name="cdotaccent" unicode="&#x10b;" horiz-adv-x="704" 
d="M435 1143q-52 0 -89 37t-37 89t37 89t89 37t89 -37t37 -89t-37 -89t-89 -37zM424 -25q-166 1 -267 145t-101 376t100 374q102 144 265 144t251 -88l-76 -181q-57 63 -133 63t-123 -87q-47 -88 -47 -225q0 -136 47 -226t135 -90q66 0 121 64l76 -181q-82 -88 -248 -88z
" />
    <glyph glyph-name="Ccaron" unicode="&#x10c;" horiz-adv-x="878" 
d="M600 1491h-211l-133 295h129l111 -189l102 189h129zM489 -25q-215 0 -321 193q-106 192 -106 514t106 514t323 193q217 0 312 -232q16 -39 31 -90l-207 -76q-23 86 -53 127t-85 41q-163 0 -163 -477t163 -477q109 0 142 198l205 -75q-85 -353 -347 -353z" />
    <glyph glyph-name="ccaron" unicode="&#x10d;" horiz-adv-x="704" 
d="M545 1139h-211l-133 295h129l110 -189l103 189h129zM424 -25q-166 1 -267 145t-101 376t100 374q102 144 265 144t251 -88l-76 -181q-57 63 -133 63t-123 -87q-47 -88 -47 -225q0 -136 47 -226t135 -90q66 0 121 64l76 -181q-82 -88 -248 -88z" />
    <glyph glyph-name="Dcaron" unicode="&#x10e;" horiz-adv-x="972" 
d="M590 1491h-211l-133 295h129l110 -189l103 189h129zM449 227q199 0 199 456t-199 456h-84v-912h84zM449 0h-343v1366h340q236 0 351 -186t115 -498t-114 -498q-113 -184 -349 -184z" />
    <glyph glyph-name="dcaron" unicode="&#x10f;" horiz-adv-x="1097" 
d="M1108 1225q0 -80 -45 -158t-119 -131l-82 65q45 27 81 75t44 91q-3 -4 -37 -4t-64 31t-30 79t35 83t87 35t91 -43t39 -123zM424 180q37 0 69 34t48 85v391q-16 51 -48 85t-69 34q-131 -1 -131 -315t131 -314zM772 0h-231v123q-31 -70 -84 -109t-109 -39q-143 1 -218 139
t-75 379t75 381t218 140q56 0 110 -37t83 -111v500h231v-1366z" />
    <glyph glyph-name="Dcroat" unicode="&#x110;" horiz-adv-x="1019" 
d="M551 580h-139v-353h84q198 0 198 456t-198 456h-84v-369h139v-190zM496 0h-342v580h-121v190h121v596h340q236 0 350 -186t114 -498t-113 -498q-113 -184 -349 -184z" />
    <glyph glyph-name="dcroat" unicode="&#x111;" horiz-adv-x="886" 
d="M424 180q37 0 69 34t48 85v391q-16 51 -48 85t-69 34q-131 -1 -131 -315t131 -314zM772 0h-231v123q-31 -70 -84 -109t-109 -39q-143 1 -218 139t-75 379t75 381t218 140q56 0 110 -37t83 -111v219h-244v136h244v145h231v-145h76v-136h-76v-1085z" />
    <glyph glyph-name="Emacron" unicode="&#x112;" horiz-adv-x="776" 
d="M670 1530h-529v135h529v-135zM705 0h-599v1366h599v-227h-340v-330h325v-227h-325v-355h340v-227z" />
    <glyph glyph-name="emacron" unicode="&#x113;" horiz-adv-x="827" 
d="M678 1178h-528v135h528v-135zM559 582q0 244 -139 243q-76 1 -109 -73t-32 -170h280zM445 -25q-185 1 -287 143t-102 372t96 377t274 147t266 -142t88 -372v-82h-501q2 -115 50 -185q48 -69 140 -69t168 98l113 -129q-121 -158 -305 -158z" />
    <glyph glyph-name="Ebreve" unicode="&#x114;" horiz-adv-x="776" 
d="M406 1468q-158 0 -254 127l108 82q52 -73 146 -73t145 73l108 -82q-95 -127 -253 -127zM705 0h-599v1366h599v-227h-340v-330h325v-227h-325v-355h340v-227z" />
    <glyph glyph-name="ebreve" unicode="&#x115;" horiz-adv-x="827" 
d="M429 1143q-159 0 -255 127l109 82q53 -74 146 -74t144 74l109 -82q-94 -127 -253 -127zM559 582q0 244 -139 243q-76 1 -109 -73t-32 -170h280zM445 -25q-185 1 -287 143t-102 372t96 377t274 147t266 -142t88 -372v-82h-501q2 -115 50 -185q48 -69 140 -69t168 98
l113 -129q-121 -158 -305 -158z" />
    <glyph glyph-name="Edotaccent" unicode="&#x116;" horiz-adv-x="776" 
d="M417 1475q-52 1 -89 37t-37 88t37 90t89 36q52 0 89 -36t37 -90q0 -52 -37 -88t-89 -37zM705 0h-599v1366h599v-227h-340v-330h325v-227h-325v-355h340v-227z" />
    <glyph glyph-name="edotaccent" unicode="&#x117;" horiz-adv-x="827" 
d="M425 1143q-52 0 -89 37t-37 89t37 89t89 37t89 -37t37 -89t-37 -89t-89 -37zM559 582q0 244 -139 243q-76 1 -109 -73t-32 -170h280zM445 -25q-185 1 -287 143t-102 372t96 377t274 147t266 -142t88 -372v-82h-501q2 -115 50 -185q48 -69 140 -69t168 98l113 -129
q-121 -158 -305 -158z" />
    <glyph glyph-name="Eogonek" unicode="&#x118;" horiz-adv-x="776" 
d="M633 -381q-76 0 -120 42t-44 126q0 117 88 213h-451v1366h599v-227h-340v-330h325v-227h-325v-355h340v-227q-117 -84 -117 -205q0 -74 47 -74q43 1 55 58l96 -51q-43 -109 -153 -109z" />
    <glyph glyph-name="eogonek" unicode="&#x119;" horiz-adv-x="827" 
d="M559 582q0 244 -139 243q-76 1 -109 -73t-32 -170h280zM506 -381q-164 0 -164 178q0 94 68 180q-170 15 -262 155t-93 364q1 224 97 371t274 147t266 -142t88 -372v-82h-501q2 -115 50 -185q48 -69 140 -69t168 98l113 -129q-70 -94 -172 -133q-117 -84 -117 -205
q0 -74 47 -74q43 1 55 58l96 -51q-43 -109 -153 -109z" />
    <glyph glyph-name="Ecaron" unicode="&#x11a;" horiz-adv-x="776" 
d="M510 1491h-211l-133 295h129l111 -189l102 189h129zM705 0h-599v1366h599v-227h-340v-330h325v-227h-325v-355h340v-227z" />
    <glyph glyph-name="ecaron" unicode="&#x11b;" horiz-adv-x="827" 
d="M535 1139h-211l-134 295h129l111 -189l102 189h130zM559 582q0 244 -139 243q-76 1 -109 -73t-32 -170h280zM445 -25q-185 1 -287 143t-102 372t96 377t274 147t266 -142t88 -372v-82h-501q2 -115 50 -185q48 -69 140 -69t168 98l113 -129q-121 -158 -305 -158z" />
    <glyph glyph-name="Gcircumflex" unicode="&#x11c;" horiz-adv-x="927" 
d="M727 1491h-129l-109 188l-104 -188h-129l127 295h211zM488 -25q-212 1 -320 191t-107 517q0 327 108 516t320 190q135 1 221 -89t124 -233l-207 -76q-37 168 -138 168q-163 0 -163 -477t163 -477q84 0 125 61v248h-153v227h381v-585q-142 -181 -354 -181z" />
    <glyph glyph-name="gcircumflex" unicode="&#x11d;" horiz-adv-x="866" 
d="M670 1122h-129l-109 189l-104 -189h-129l127 295h211zM424 213q37 0 69 34t48 85v358q-16 51 -48 85t-69 34q-131 0 -131 -298t131 -298zM772 18q0 -225 -106 -322t-284 -97q-180 0 -290 108l78 184q92 -92 203 -92q78 -1 123 55t45 164v140q-31 -72 -84 -111t-109 -39
q-143 0 -218 130t-75 370t75 373t218 133q56 0 110 -37t83 -111v123h231v-971z" />
    <glyph glyph-name="Gbreve" unicode="&#x11e;" horiz-adv-x="927" 
d="M495 1468q-159 0 -255 127l108 82q52 -73 146 -73t145 73l109 -82q-94 -127 -253 -127zM488 -25q-212 1 -320 191t-107 517q0 327 108 516t320 190q135 1 221 -89t124 -233l-207 -76q-37 168 -138 168q-163 0 -163 -477t163 -477q84 0 125 61v248h-153v227h381v-585
q-142 -181 -354 -181z" />
    <glyph glyph-name="gbreve" unicode="&#x11f;" horiz-adv-x="866" 
d="M429 1143q-159 0 -255 127l109 82q53 -74 146 -74t144 74l109 -82q-94 -127 -253 -127zM424 213q37 0 69 34t48 85v358q-16 51 -48 85t-69 34q-131 0 -131 -298t131 -298zM772 18q0 -225 -106 -322t-284 -97q-180 0 -290 108l78 184q92 -92 203 -92q78 -1 123 55t45 164
v140q-31 -72 -84 -111t-109 -39q-143 0 -218 130t-75 370t75 373t218 133q56 0 110 -37t83 -111v123h231v-971z" />
    <glyph glyph-name="Gdotaccent" unicode="&#x120;" horiz-adv-x="927" 
d="M493 1475q-52 0 -90 36q-37 37 -37 89t37 90q37 36 89 36t90 -36q36 -36 36 -90q0 -52 -36 -89q-37 -36 -89 -36zM488 -25q-212 1 -320 191t-107 517q0 327 108 516t320 190q135 1 221 -89t124 -233l-207 -76q-37 168 -138 168q-163 0 -163 -477t163 -477q84 0 125 61
v248h-153v227h381v-585q-142 -181 -354 -181z" />
    <glyph glyph-name="gdotaccent" unicode="&#x121;" horiz-adv-x="866" 
d="M437 1143q-52 0 -89 37t-37 89t37 89t89 37t89 -37t37 -89t-37 -89t-89 -37zM424 213q37 0 69 34t48 85v358q-16 51 -48 85t-69 34q-131 0 -131 -298t131 -298zM772 18q0 -225 -106 -322t-284 -97q-180 0 -290 108l78 184q92 -92 203 -92q78 -1 123 55t45 164v140
q-31 -72 -84 -111t-109 -39q-143 0 -218 130t-75 370t75 373t218 133q56 0 110 -37t83 -111v123h231v-971z" />
    <glyph glyph-name="Gcommaaccent" unicode="&#x122;" horiz-adv-x="927" 
d="M606 -291q0 -80 -45 -158t-119 -131l-82 66q45 27 81 75t44 91q-3 -4 -37 -4t-64 30t-30 79q0 48 35 83t87 35t91 -43t39 -123zM488 -25q-212 1 -320 191t-107 517q0 327 108 516t320 190q135 1 221 -89t124 -233l-207 -76q-37 168 -138 168q-163 0 -163 -477t163 -477
q84 0 125 61v248h-153v227h381v-585q-142 -181 -354 -181z" />
    <glyph glyph-name="gcommaaccent" unicode="&#x123;" horiz-adv-x="866" 
d="M424 213q37 0 69 34t48 85v358q-16 51 -48 85t-69 34q-131 0 -131 -298t131 -298zM772 18q0 -225 -106 -322t-284 -97q-180 0 -290 108l78 184q92 -92 203 -92q78 -1 123 55t45 164v140q-31 -72 -84 -111t-109 -39q-143 0 -218 130t-75 370t75 373t218 133q56 0 110 -37
t83 -111v123h231v-971zM424 1139q-49 -1 -87 35t-38 121t42 167t116 133l84 -67q-41 -23 -80 -70t-45 -88q6 2 12 2q43 0 79 -33t36 -81t-35 -83q-35 -36 -84 -36z" />
    <glyph glyph-name="Hcircumflex" unicode="&#x124;" horiz-adv-x="991" 
d="M731 1491h-129l-108 188l-105 -188h-129l127 295h211zM885 0h-258v590h-262v-590h-259v1366h259v-551h262v551h258v-1366z" />
    <glyph glyph-name="hcircumflex" unicode="&#x125;" horiz-adv-x="860" 
d="M449 1491h-130l-108 188l-105 -188h-129l127 295h211zM766 0h-231v707q0 102 -76 102q-41 0 -78 -38t-57 -91v-680h-230v1366h230v-506q33 61 100 108q68 46 135 46q207 0 207 -223v-791z" />
    <glyph glyph-name="Hbar" unicode="&#x126;" horiz-adv-x="1052" 
d="M397 815h262v211h-262v-211zM918 0h-259v590h-262v-590h-258v1026h-106v135h106v205h258v-205h262v205h259v-205h96v-135h-96v-1026z" />
    <glyph glyph-name="hbar" unicode="&#x127;" horiz-adv-x="882" 
d="M584 1085h-236v-225q33 62 101 108t135 46q207 0 207 -223v-791h-232v707q0 102 -76 102q-41 0 -77 -38t-58 -91v-680h-229v1085h-86v136h86v145h229v-145h236v-136z" />
    <glyph glyph-name="Itilde" unicode="&#x128;" horiz-adv-x="471" 
d="M328 1487q-37 -1 -64 23t-39 53q-32 77 -67 75q-59 0 -60 -139h-121q1 123 47 199t128 76q48 0 76 -38t48 -76t46 -38q59 0 59 139h121q0 -123 -46 -199t-128 -75zM365 0h-259v1366h259v-1366z" />
    <glyph glyph-name="itilde" unicode="&#x129;" horiz-adv-x="417" 
d="M299 1102q-37 0 -63 24t-39 52q-32 77 -68 75q-59 0 -59 -139h-121q0 123 46 199t128 76q47 0 76 -38t49 -76t45 -38q59 0 59 139h121q0 -122 -46 -198t-128 -76zM324 0h-230v989h230v-989z" />
    <glyph glyph-name="Imacron" unicode="&#x12a;" horiz-adv-x="471" 
d="M500 1530h-529v135h529v-135zM365 0h-259v1366h259v-1366z" />
    <glyph glyph-name="imacron" unicode="&#x12b;" horiz-adv-x="417" 
d="M473 1178h-528v135h528v-135zM324 0h-230v989h230v-989z" />
    <glyph glyph-name="Ibreve" unicode="&#x12c;" horiz-adv-x="471" 
d="M239 1468q-159 0 -255 127l108 82q52 -73 146 -73t145 73l109 -82q-94 -127 -253 -127zM365 0h-259v1366h259v-1366z" />
    <glyph glyph-name="ibreve" unicode="&#x12d;" horiz-adv-x="417" 
d="M210 1143q-159 0 -255 127l108 82q53 -74 147 -74t144 74l109 -82q-94 -127 -253 -127zM324 0h-230v989h230v-989z" />
    <glyph glyph-name="Iogonek" unicode="&#x12e;" horiz-adv-x="471" 
d="M293 -381q-76 0 -120 42t-44 126q0 117 88 213h-111v1366h259v-1366q-117 -84 -117 -205q0 -74 47 -74q43 1 55 58l96 -51q-43 -109 -153 -109z" />
    <glyph glyph-name="iogonek" unicode="&#x12f;" horiz-adv-x="417" 
d="M209 1106q-59 0 -100 41t-41 98t42 99t99 42t99 -42t42 -98q0 -58 -41 -99t-100 -41zM252 -381q-76 0 -120 42t-44 126q0 117 88 213h-82v989h230v-989q-117 -84 -117 -205q0 -74 47 -74q43 1 55 58l97 -51q-43 -109 -154 -109z" />
    <glyph glyph-name="Idotaccent" unicode="&#x130;" horiz-adv-x="471" 
d="M237 1475q-52 0 -90 36q-37 37 -37 89t37 90q37 36 89 36t90 -36q36 -36 36 -90q0 -52 -36 -89q-37 -36 -89 -36zM365 0h-259v1366h259v-1366z" />
    <glyph glyph-name="dotlessi" unicode="&#x131;" horiz-adv-x="417" 
d="M324 0h-230v989h230v-989z" />
    <glyph glyph-name="IJ" unicode="&#x132;" horiz-adv-x="1183" 
d="M1079 342q0 -184 -98 -276q-97 -92 -253 -91q-156 0 -241 74l70 211q49 -55 123 -55q141 0 141 149v1012h258v-1024zM365 0h-259v1366h259v-1366z" />
    <glyph glyph-name="ij" unicode="&#x133;" horiz-adv-x="835" 
d="M463 -401q-80 0 -123 49l53 178q16 -27 51 -27q68 0 68 115v1075h229v-1075q0 -162 -65 -239q-66 -76 -213 -76zM627 1106q-59 0 -101 41q-41 41 -41 98t42 99q41 42 99 42t100 -42t42 -98q0 -58 -41 -99t-100 -41zM324 0h-230v989h230v-989zM209 1106q-59 0 -100 41
t-41 98t42 99t99 42t99 -42t42 -98q0 -58 -41 -99t-100 -41z" />
    <glyph glyph-name="Jcircumflex" unicode="&#x134;" horiz-adv-x="712" 
d="M717 1491h-129l-109 188l-104 -188h-129l127 295h211zM608 342q0 -184 -98 -276t-254 -91q-156 0 -240 74l70 211q49 -55 123 -55q141 0 141 149v1012h258v-1024z" />
    <glyph glyph-name="jcircumflex" unicode="&#x135;" horiz-adv-x="417" 
d="M449 1139h-130l-108 188l-105 -188h-129l127 295h211zM45 -401q-80 0 -123 49l53 182q16 -27 52 -27q68 0 67 111v1075h230v-1075q0 -162 -66 -238t-213 -77z" />
    <glyph glyph-name="Kcommaaccent" unicode="&#x136;" horiz-adv-x="964" 
d="M488 -125q52 0 91 -43t39 -123t-45 -158t-118 -131l-82 66q45 27 81 75t44 91q-4 -4 -38 -4t-64 30t-30 79q0 48 35 83t87 35zM365 0h-259v1366h259v-631l284 631h285l-334 -643l358 -723h-292l-217 520l-84 -172v-348z" />
    <glyph glyph-name="kcommaaccent" unicode="&#x137;" horiz-adv-x="825" 
d="M551 -291q0 -80 -45 -158t-119 -131l-82 66q45 27 81 75t44 91q-4 -4 -38 -4t-64 30t-29 79q0 48 35 83t87 35t91 -43t39 -123zM324 0h-230v1366h230v-834l229 457h252l-234 -440l244 -549h-254l-145 395l-92 -164v-231z" />
    <glyph glyph-name="kgreenlandic" unicode="&#x138;" horiz-adv-x="825" 
d="M324 0h-230v989h230v-457l229 457h252l-234 -440l244 -549h-254l-145 395l-92 -164v-231z" />
    <glyph glyph-name="Lacute" unicode="&#x139;" horiz-adv-x="747" 
d="M614 1786l-219 -295h-145l162 295h202zM705 0h-599v1366h259v-1139h340v-227z" />
    <glyph glyph-name="lacute" unicode="&#x13a;" horiz-adv-x="417" 
d="M442 1786l-219 -295h-145l162 295h202zM324 0h-230v1366h230v-1366z" />
    <glyph glyph-name="Lcommaaccent" unicode="&#x13b;" horiz-adv-x="747" 
d="M510 -291q0 -80 -45 -158t-119 -131l-82 66q45 27 81 75t44 91q-4 -4 -38 -4q-33 0 -63 30t-30 79q0 48 35 83t87 35t91 -43t39 -123zM705 0h-599v1366h259v-1139h340v-227z" />
    <glyph glyph-name="lcommaaccent" unicode="&#x13c;" horiz-adv-x="417" 
d="M346 -291q0 -80 -45 -158t-119 -131l-82 66q45 27 81 75t44 91q-3 -4 -37 -4t-64 30t-30 79q0 48 35 83t87 35t91 -43t39 -123zM324 0h-230v1366h230v-1366z" />
    <glyph glyph-name="Lcaron" unicode="&#x13d;" horiz-adv-x="747" 
d="M713 1227q0 -80 -45 -158t-119 -131l-82 66q45 26 81 74t44 91q-4 -4 -38 -4t-64 31t-30 79t36 83q35 35 87 35t91 -43t39 -123zM705 0h-599v1366h259v-1139h340v-227z" />
    <glyph glyph-name="lcaron" unicode="&#x13e;" horiz-adv-x="647" 
d="M686 1225q0 -80 -45 -158t-119 -131l-82 65q45 27 81 75t44 91q-3 -4 -37 -4t-64 31t-30 79t35 83t87 35t91 -43t39 -123zM324 0h-230v1366h230v-1366z" />
    <glyph glyph-name="Ldot" unicode="&#x13f;" horiz-adv-x="878" 
d="M524 701q0 63 45 107t107 44t107 -44q44 -44 44 -107q0 -62 -44 -106t-106 -44t-108 44q-45 44 -45 106zM705 0h-599v1366h259v-1139h340v-227z" />
    <glyph glyph-name="ldot" unicode="&#x140;" horiz-adv-x="731" 
d="M574 651q62 0 106 -44t45 -106q0 -63 -44 -107q-45 -44 -107 -44t-107 44t-45 106t45 107q45 44 107 44zM324 0h-230v1366h230v-1366z" />
    <glyph glyph-name="Lslash" unicode="&#x141;" horiz-adv-x="765" 
d="M125 1366h258v-502l121 70v-213l-121 -70v-424h340v-227h-598v502l-92 -53v213l92 53v651z" />
    <glyph glyph-name="lslash" unicode="&#x142;" horiz-adv-x="493" 
d="M133 1366h229v-526l99 57v-172l-99 -57v-668h-229v537l-100 -58v172l100 58v657z" />
    <glyph glyph-name="Nacute" unicode="&#x143;" horiz-adv-x="991" 
d="M729 1786l-219 -295h-145l161 295h203zM885 0h-242l-278 782v-782h-259v1366h259l262 -756v756h258v-1366z" />
    <glyph glyph-name="nacute" unicode="&#x144;" horiz-adv-x="860" 
d="M664 1434l-220 -295h-145l162 295h203zM766 0h-231v705q0 104 -76 104q-41 0 -78 -38t-57 -91v-680h-230v989h230v-129q33 61 100 108q68 46 135 46q207 0 207 -226v-788z" />
    <glyph glyph-name="Ncommaaccent" unicode="&#x145;" horiz-adv-x="991" 
d="M631 -291q0 -80 -45 -158t-119 -131l-82 66q45 27 81 75t44 91q-4 -4 -38 -4t-64 30t-29 79q0 48 35 83t87 35t91 -43t39 -123zM885 0h-242l-278 782v-782h-259v1366h259l262 -756v756h258v-1366z" />
    <glyph glyph-name="ncommaaccent" unicode="&#x146;" horiz-adv-x="860" 
d="M567 -291q0 -80 -45 -158t-119 -131l-81 66q44 27 80 75t44 91q-4 -4 -38 -4t-63 30q-30 30 -30 79q0 48 35 83t87 35t91 -43t39 -123zM766 0h-231v705q0 104 -76 104q-41 0 -78 -38t-57 -91v-680h-230v989h230v-129q33 61 100 108q68 46 135 46q207 0 207 -226v-788z
" />
    <glyph glyph-name="Ncaron" unicode="&#x147;" horiz-adv-x="991" 
d="M604 1491h-211l-133 295h129l111 -189l102 189h129zM885 0h-242l-278 782v-782h-259v1366h259l262 -756v756h258v-1366z" />
    <glyph glyph-name="ncaron" unicode="&#x148;" horiz-adv-x="860" 
d="M539 1139h-211l-133 295h129l110 -189l103 189h129zM766 0h-231v705q0 104 -76 104q-41 0 -78 -38t-57 -91v-680h-230v989h230v-129q33 61 100 108q68 46 135 46q207 0 207 -226v-788z" />
    <glyph glyph-name="napostrophe" unicode="&#x149;" horiz-adv-x="860" 
d="M309 1387q0 -80 -45 -158t-119 -131l-82 65q45 27 81 75t44 91q-4 -4 -38 -4t-63 31q-30 31 -30 79t35 83q35 34 87 34t91 -42t39 -123zM766 0h-231v705q0 104 -76 104q-41 0 -78 -38t-57 -91v-680h-230v989h230v-129q33 61 100 108q68 46 135 46q207 0 207 -226v-788z
" />
    <glyph glyph-name="Eng" unicode="&#x14a;" horiz-adv-x="991" 
d="M885 -35q-1 -186 -99 -276t-252 -90t-243 73l71 207q51 -57 123 -57q141 0 142 151v72l-262 737v-782h-259v1366h259l262 -756v756h258v-1401z" />
    <glyph glyph-name="eng" unicode="&#x14b;" horiz-adv-x="860" 
d="M485 -401q-78 0 -120 49l51 182q20 -27 53 -27q66 0 66 111v791q0 104 -76 104q-41 0 -78 -38t-57 -91v-680h-230v989h230v-129q33 61 100 108q68 46 135 46q207 0 207 -226v-874q0 -162 -67 -238t-214 -77z" />
    <glyph glyph-name="Omacron" unicode="&#x14c;" horiz-adv-x="978" 
d="M752 1530h-529v135h529v-135zM651 682q0 477 -163 477t-163 -477t163 -477t163 477zM489 -25q-215 0 -321 194t-107 513q1 319 107 513t321 194t321 -194t105 -513q1 -319 -105 -513t-321 -194z" />
    <glyph glyph-name="omacron" unicode="&#x14d;" horiz-adv-x="854" 
d="M690 1178h-528v135h528v-135zM426 180q133 0 133 314t-133 315q-133 -1 -133 -315t133 -314zM799 496q-1 -223 -95 -372t-277 -149q-183 1 -277 149t-94 372t94 370q94 148 277 148t277 -148t95 -370z" />
    <glyph glyph-name="Obreve" unicode="&#x14e;" horiz-adv-x="978" 
d="M492 1468q-158 0 -254 127l108 82q52 -73 146 -73t145 73l108 -82q-95 -127 -253 -127zM651 682q0 477 -163 477t-163 -477t163 -477t163 477zM489 -25q-215 0 -321 194t-107 513q1 319 107 513t321 194t321 -194t105 -513q1 -319 -105 -513t-321 -194z" />
    <glyph glyph-name="obreve" unicode="&#x14f;" horiz-adv-x="854" 
d="M427 1143q-159 0 -255 127l109 82q53 -74 146 -74t144 74l109 -82q-94 -127 -253 -127zM426 180q133 0 133 314t-133 315q-133 -1 -133 -315t133 -314zM799 496q-1 -223 -95 -372t-277 -149q-183 1 -277 149t-94 372t94 370q94 148 277 148t277 -148t95 -370z" />
    <glyph glyph-name="Ohungarumlaut" unicode="&#x150;" horiz-adv-x="978" 
d="M823 1786l-164 -295h-120l110 295h174zM561 1786l-164 -295h-121l111 295h174zM651 682q0 477 -163 477t-163 -477t163 -477t163 477zM489 -25q-215 0 -321 194t-107 513q1 319 107 513t321 194t321 -194t105 -513q1 -319 -105 -513t-321 -194z" />
    <glyph glyph-name="ohungarumlaut" unicode="&#x151;" horiz-adv-x="854" 
d="M760 1434l-164 -295h-121l111 295h174zM498 1434l-164 -295h-121l111 295h174zM426 180q133 0 133 314t-133 315q-133 -1 -133 -315t133 -314zM799 496q-1 -223 -95 -372t-277 -149q-183 1 -277 149t-94 372t94 370q94 148 277 148t277 -148t95 -370z" />
    <glyph glyph-name="OE" unicode="&#x152;" horiz-adv-x="1294" 
d="M489 1157q-163 0 -163 -476t163 -476q49 0 88 48q38 48 58 138v584q-41 182 -146 182zM1233 0h-598v102q-31 -66 -86 -96t-113 -31q-188 0 -281 194t-94 513t93 512t282 192q57 0 113 -29q55 -30 86 -93v102h598v-227h-340v-330h326v-227h-326v-355h340v-227z" />
    <glyph glyph-name="oe" unicode="&#x153;" horiz-adv-x="1331" 
d="M559 494q0 315 -133 315t-133 -315t133 -316q133 1 133 316zM784 582h279q0 244 -139 243q-76 1 -108 -73t-32 -170zM1286 418h-502q2 -115 50 -185q48 -69 142 -69q93 0 165 98l112 -129q-117 -158 -301 -158t-270 183q-86 -182 -262 -182t-270 148t-94 372t94 370
q94 148 270 148t260 -176q84 176 257 176t261 -142t88 -376v-78z" />
    <glyph glyph-name="Racute" unicode="&#x154;" horiz-adv-x="942" 
d="M702 1786l-219 -295h-145l162 295h202zM446 729q72 0 111 55q39 56 39 150t-39 149t-111 56h-81v-410h81zM365 502v-502h-259v1366h381q165 0 269 -119t104 -305q0 -281 -176 -379l188 -563h-276l-147 502h-84z" />
    <glyph glyph-name="racute" unicode="&#x155;" horiz-adv-x="575" 
d="M551 1434l-219 -295h-146l162 295h203zM324 0h-230v989h230v-137q31 70 94 116t129 46v-228q-23 6 -59 6t-84 -35q-50 -36 -80 -91v-666z" />
    <glyph glyph-name="Rcommaaccent" unicode="&#x156;" horiz-adv-x="942" 
d="M604 -291q0 -80 -45 -158t-119 -131l-82 66q45 27 81 75t44 91q-3 -4 -37 -4t-64 30t-30 79q0 48 35 83t87 35t91 -43t39 -123zM446 729q72 0 111 55q39 56 39 150t-39 149t-111 56h-81v-410h81zM365 502v-502h-259v1366h381q165 0 269 -119t104 -305q0 -281 -176 -379
l188 -563h-276l-147 502h-84z" />
    <glyph glyph-name="rcommaaccent" unicode="&#x157;" horiz-adv-x="575" 
d="M424 -291q0 -80 -45 -158t-119 -131l-82 66q45 27 81 75t44 91q-4 -4 -38 -4q-33 0 -63 30t-30 79q0 48 35 83t87 35t91 -43t39 -123zM324 0h-230v989h230v-137q31 70 94 116t129 46v-228q-23 6 -59 6t-84 -35q-50 -36 -80 -91v-666z" />
    <glyph glyph-name="Rcaron" unicode="&#x158;" horiz-adv-x="942" 
d="M575 1491h-210l-134 295h129l111 -189l102 189h129zM446 729q72 0 111 55q39 56 39 150t-39 149t-111 56h-81v-410h81zM365 502v-502h-259v1366h381q165 0 269 -119t104 -305q0 -281 -176 -379l188 -563h-276l-147 502h-84z" />
    <glyph glyph-name="rcaron" unicode="&#x159;" horiz-adv-x="575" 
d="M424 1139h-211l-133 295h129l110 -189l103 189h129zM324 0h-230v989h230v-137q31 70 94 116t129 46v-228q-23 6 -59 6t-84 -35q-50 -36 -80 -91v-666z" />
    <glyph glyph-name="Sacute" unicode="&#x15a;" horiz-adv-x="811" 
d="M635 1786l-219 -295h-146l162 295h203zM377 -25q-217 0 -352 136l110 202q86 -109 225 -108q61 0 100 42q38 41 38 107q0 110 -154 216q-62 44 -126 96t-109 140q-45 87 -46 202q1 160 103 270t280 111q178 0 293 -111l-98 -199q-78 80 -188 80q-55 0 -91 -38t-36 -97
q0 -58 45 -110t108 -97t127 -99t108 -144q46 -90 46 -203q0 -174 -106 -285t-277 -111z" />
    <glyph glyph-name="sacute" unicode="&#x15b;" horiz-adv-x="706" 
d="M590 1434l-219 -295h-146l162 295h203zM346 -25q-215 0 -319 129l94 160q96 -106 205 -106q55 0 89 28t34 72q0 43 -29 73t-72 50t-94 50t-94 64t-72 96t-29 142q0 119 84 200t242 81t279 -117l-93 -156q-74 90 -190 90q-47 -1 -77 -27t-30 -66t41 -70t99 -60t115 -66
t99 -106t42 -166q0 -131 -92 -213t-232 -82z" />
    <glyph glyph-name="Scircumflex" unicode="&#x15c;" horiz-adv-x="796" 
d="M377 -25q-217 0 -352 136l110 202q86 -109 225 -108q61 0 100 42q38 41 38 107q0 110 -154 216q-62 44 -126 96t-109 140q-45 87 -46 202q1 160 103 270t280 111q178 0 293 -111l-98 -199q-78 80 -188 80q-55 0 -91 -38t-36 -97q0 -58 45 -110t108 -97t127 -99t108 -144
q46 -90 46 -203q0 -174 -106 -285t-277 -111zM678 1491h-129l-109 188l-104 -188h-129l127 295h211z" />
    <glyph glyph-name="scircumflex" unicode="&#x15d;" horiz-adv-x="706" 
d="M600 1139h-129l-109 188l-104 -188h-129l127 295h211zM346 -25q-215 0 -319 129l94 160q96 -106 205 -106q55 0 89 28t34 72q0 43 -29 73t-72 50t-94 50t-94 64t-72 96t-29 142q0 119 84 200t242 81t279 -117l-93 -156q-74 90 -190 90q-47 -1 -77 -27t-30 -66t41 -70
t99 -60t115 -66t99 -106t42 -166q0 -131 -92 -213t-232 -82z" />
    <glyph glyph-name="Scedilla" unicode="&#x15e;" horiz-adv-x="811" 
d="M363 -397q-92 0 -170 63l45 94q68 -57 114 -57q46 1 71 21q24 20 23 53q0 55 -47 55q-31 0 -53 -27l-86 50l47 125q-170 18 -282 131l110 202q86 -109 225 -108q61 0 100 42q38 41 38 107q0 110 -154 216q-62 44 -126 96t-109 140q-45 87 -46 202q1 160 103 270t280 111
q178 0 293 -111l-98 -199q-78 80 -188 80q-55 0 -91 -38t-36 -97q0 -58 45 -110t108 -97t127 -99t108 -144q46 -90 46 -203q0 -162 -92 -271t-246 -123l-35 -83q27 18 69 18t75 -39q34 -39 34 -109t-55 -115q-55 -46 -147 -46z" />
    <glyph glyph-name="scedilla" unicode="&#x15f;" horiz-adv-x="706" 
d="M328 -397q-92 0 -170 63l45 94q68 -57 115 -57q46 1 70 21t24 53q0 55 -47 55q-31 0 -54 -27l-86 50l47 125q-164 20 -245 124l94 160q96 -106 205 -106q55 0 89 28t34 72q0 43 -29 73t-72 50t-94 50t-94 64t-72 96t-29 142q0 119 84 200t242 81t279 -117l-93 -156
q-74 90 -190 90q-47 -1 -77 -27t-30 -66t41 -70t99 -60t115 -66t99 -106t42 -178t-79 -188t-204 -93l-35 -83q29 18 70 18t75 -39q33 -39 33 -109t-55 -115q-55 -46 -147 -46z" />
    <glyph glyph-name="Scaron" unicode="&#x160;" horiz-adv-x="796" 
d="M377 -25q-217 0 -352 136l110 202q86 -109 225 -108q61 0 100 42q38 41 38 107q0 110 -154 216q-62 44 -126 96t-109 140q-45 87 -46 202q1 160 103 270t280 111q178 0 293 -111l-98 -199q-78 80 -188 80q-55 0 -91 -38t-36 -97q0 -58 45 -110t108 -97t127 -99t108 -144
q46 -90 46 -203q0 -174 -106 -285t-277 -111zM551 1491h-211l-133 295h129l110 -189l103 189h129z" />
    <glyph glyph-name="scaron" unicode="&#x161;" horiz-adv-x="706" 
d="M473 1139h-211l-133 295h129l111 -189l102 189h129zM346 -25q-215 0 -319 129l94 160q96 -106 205 -106q55 0 89 28t34 72q0 43 -29 73t-72 50t-94 50t-94 64t-72 96t-29 142q0 119 84 200t242 81t279 -117l-93 -156q-74 90 -190 90q-47 -1 -77 -27t-30 -66t41 -70
t99 -60t115 -66t99 -106t42 -166q0 -131 -92 -213t-232 -82z" />
    <glyph glyph-name="Tcommaaccent" unicode="&#x162;" horiz-adv-x="745" 
d="M510 -291q0 -80 -45 -158t-119 -131l-82 66q45 27 81 75t44 91q-4 -4 -38 -4q-33 0 -63 30t-30 79q0 48 35 83t87 35t91 -43t39 -123zM502 0h-258v1139h-207v227h672v-227h-207v-1139z" />
    <glyph glyph-name="Tcommaaccent" unicode="&#x21a;" horiz-adv-x="745" 
d="M510 -291q0 -80 -45 -158t-119 -131l-82 66q45 27 81 75t44 91q-4 -4 -38 -4q-33 0 -63 30t-30 79q0 48 35 83t87 35t91 -43t39 -123zM502 0h-258v1139h-207v227h672v-227h-207v-1139z" />
    <glyph glyph-name="tcommaaccent" unicode="&#x163;" horiz-adv-x="526" 
d="M399 -291q0 -80 -45 -158t-118 -131l-82 66q44 27 80 75t45 91q-4 -4 -38 -4t-64 30t-30 79q0 48 35 83t87 35t91 -43t39 -123zM342 -25q-112 -1 -164 61q-53 62 -53 191v561h-92v201h92v271h231v-271h125v-201h-125v-516q0 -92 56 -92q35 0 55 27l47 -182
q-60 -50 -172 -50z" />
    <glyph glyph-name="tcommaaccent" unicode="&#x21b;" horiz-adv-x="526" 
d="M399 -291q0 -80 -45 -158t-118 -131l-82 66q44 27 80 75t45 91q-4 -4 -38 -4t-64 30t-30 79q0 48 35 83t87 35t91 -43t39 -123zM342 -25q-112 -1 -164 61q-53 62 -53 191v561h-92v201h92v271h231v-271h125v-201h-125v-516q0 -92 56 -92q35 0 55 27l47 -182
q-60 -50 -172 -50z" />
    <glyph glyph-name="Tcaron" unicode="&#x164;" horiz-adv-x="745" 
d="M481 1491h-211l-133 295h129l111 -189l102 189h129zM502 0h-258v1139h-207v227h672v-227h-207v-1139z" />
    <glyph glyph-name="tcaron" unicode="&#x165;" horiz-adv-x="526" 
d="M680 1387q0 -80 -45 -158t-119 -131l-82 65q45 27 81 75t44 91q-4 -4 -38 -4q-33 0 -63 31t-30 79t35 83q35 34 87 34t91 -42t39 -123zM342 -25q-112 -1 -164 61q-53 62 -53 191v561h-92v201h92v271h231v-271h125v-201h-125v-516q0 -92 56 -92q35 0 55 27l47 -182
q-60 -50 -172 -50z" />
    <glyph glyph-name="Tbar" unicode="&#x166;" horiz-adv-x="745" 
d="M502 0h-258v555h-144v135h144v449h-207v227h672v-227h-207v-449h137v-135h-137v-555z" />
    <glyph glyph-name="tbar" unicode="&#x167;" horiz-adv-x="526" 
d="M422 438h-66v-166q0 -92 56 -92q35 0 55 27l47 -182q-59 -49 -171 -49t-165 60q-53 62 -53 191v211h-92v135h92v215h-92v201h92v271h231v-271h125v-201h-125v-215h66v-135z" />
    <glyph glyph-name="Utilde" unicode="&#x168;" horiz-adv-x="991" 
d="M588 1487q-37 -1 -64 23t-39 53q-32 77 -67 75q-59 0 -60 -139h-120q0 123 46 199t128 76q48 0 76 -38t48 -76t46 -38q59 0 59 139h121q0 -123 -46 -199t-128 -75zM496 -25q-166 1 -278 107t-112 313v971h259v-983q0 -180 131 -180t131 180v983h258v-971
q1 -207 -111 -313t-278 -107z" />
    <glyph glyph-name="utilde" unicode="&#x169;" horiz-adv-x="860" 
d="M518 1135q-38 -1 -64 23t-38 52q-33 77 -68 76q-59 0 -59 -139h-121q0 123 46 199t128 75q47 0 76 -38q29 -37 49 -75t45 -38q59 0 59 139h121q0 -123 -46 -199t-128 -75zM766 0h-231v125q-31 -61 -98 -105t-136 -45q-207 0 -207 224v790h230v-706q0 -102 77 -103
q43 0 79 37t55 88v684h231v-989z" />
    <glyph glyph-name="Umacron" unicode="&#x16a;" horiz-adv-x="991" 
d="M760 1530h-529v135h529v-135zM496 -25q-166 1 -278 107t-112 313v971h259v-983q0 -180 131 -180t131 180v983h258v-971q1 -207 -111 -313t-278 -107z" />
    <glyph glyph-name="umacron" unicode="&#x16b;" horiz-adv-x="860" 
d="M694 1178h-528v135h528v-135zM766 0h-231v125q-31 -61 -98 -105t-136 -45q-207 0 -207 224v790h230v-706q0 -102 77 -103q43 0 79 37t55 88v684h231v-989z" />
    <glyph glyph-name="Ubreve" unicode="&#x16c;" horiz-adv-x="991" 
d="M499 1468q-159 0 -255 127l108 82q52 -73 146 -73t145 73l109 -82q-94 -127 -253 -127zM496 -25q-166 1 -278 107t-112 313v971h259v-983q0 -180 131 -180t131 180v983h258v-971q1 -207 -111 -313t-278 -107z" />
    <glyph glyph-name="ubreve" unicode="&#x16d;" horiz-adv-x="860" 
d="M431 1143q-159 0 -255 127l109 82q53 -74 146 -74t144 74l109 -82q-94 -127 -253 -127zM766 0h-231v125q-31 -61 -98 -105t-136 -45q-207 0 -207 224v790h230v-706q0 -102 77 -103q43 0 79 37t55 88v684h231v-989z" />
    <glyph glyph-name="Uring" unicode="&#x16e;" horiz-adv-x="991" 
d="M498 1520q32 0 56 24t24 57t-24 57t-56 24t-57 -24q-23 -24 -23 -58t23 -57q24 -23 57 -23zM498 1419q-76 -1 -129 53t-54 130t53 128t130 52t128 -52t52 -128t-52 -130t-128 -53zM496 -25q-166 1 -278 107t-112 313v971h259v-983q0 -180 131 -180t131 180v983h258v-971
q1 -207 -111 -313t-278 -107z" />
    <glyph glyph-name="uring" unicode="&#x16f;" horiz-adv-x="860" 
d="M430 1212q32 0 56 24t24 58t-24 57t-56 23t-56 -24t-24 -57t24 -57t56 -24zM430 1112q-76 0 -129 53t-53 129t53 128t129 52t128 -52t52 -128t-52 -129t-128 -53zM766 0h-231v125q-31 -61 -98 -105t-136 -45q-207 0 -207 224v790h230v-706q0 -102 77 -103q43 0 79 37
t55 88v684h231v-989z" />
    <glyph glyph-name="Uhungarumlaut" unicode="&#x170;" horiz-adv-x="991" 
d="M829 1786l-163 -295h-121l110 295h174zM567 1786l-164 -295h-120l110 295h174zM496 -25q-166 1 -278 107t-112 313v971h259v-983q0 -180 131 -180t131 180v983h258v-971q1 -207 -111 -313t-278 -107z" />
    <glyph glyph-name="uhungarumlaut" unicode="&#x171;" horiz-adv-x="860" 
d="M764 1434l-164 -295h-121l111 295h174zM502 1434l-164 -295h-121l111 295h174zM766 0h-231v125q-31 -61 -98 -105t-136 -45q-207 0 -207 224v790h230v-706q0 -102 77 -103q43 0 79 37t55 88v684h231v-989z" />
    <glyph glyph-name="Uogonek" unicode="&#x172;" horiz-adv-x="991" 
d="M571 -381q-163 0 -163 177q0 93 67 179q-158 7 -263 113t-106 307v971h259v-983q0 -180 131 -180t131 180v983h258v-971q0 -158 -67 -257t-175 -138q-117 -84 -117 -205q0 -74 47 -74q44 1 56 58l96 -51q-43 -109 -154 -109z" />
    <glyph glyph-name="uogonek" unicode="&#x173;" horiz-adv-x="860" 
d="M694 -381q-76 0 -120 42t-44 126q0 117 88 213h-83v125q-31 -61 -98 -105t-136 -45q-207 0 -207 224v790h230v-706q0 -102 77 -103q43 0 79 37t55 88v684h231v-989q-117 -84 -117 -205q0 -74 47 -74q44 1 56 58l96 -51q-43 -109 -154 -109z" />
    <glyph glyph-name="Wcircumflex" unicode="&#x174;" horiz-adv-x="1261" 
d="M866 1491h-129l-108 188l-105 -188h-129l127 295h211zM1006 0h-263l-112 881l-113 -881h-262l-233 1366h262l112 -915l131 915h203l133 -915l113 915h262z" />
    <glyph glyph-name="wcircumflex" unicode="&#x175;" horiz-adv-x="1245" 
d="M858 1139h-129l-108 188l-105 -188h-129l127 295h211zM1008 0h-244l-141 674l-144 -674h-241l-228 989h240l127 -676l129 676h219l143 -676l125 676h242z" />
    <glyph glyph-name="Ycircumflex" unicode="&#x176;" horiz-adv-x="880" 
d="M569 0h-258v565l-319 801h274l174 -551l176 551h273l-320 -801v-565zM676 1491h-129l-109 188l-104 -188h-129l127 295h211z" />
    <glyph glyph-name="ycircumflex" unicode="&#x177;" horiz-adv-x="780" 
d="M625 1139h-129l-109 188l-104 -188h-129l127 295h211zM212 -401q-92 0 -130 16l35 201q18 -12 43 -13q63 0 84 70l26 102l-266 1014h244l141 -696l141 696h246l-309 -1163q-39 -131 -101 -179t-154 -48z" />
    <glyph glyph-name="Ydieresis" unicode="&#x178;" horiz-adv-x="880" 
d="M569 0h-258v565l-319 801h274l174 -551l176 551h273l-320 -801v-565zM403 1599q-1 -53 -37 -90t-88 -37t-90 38q-37 38 -36 89q0 51 36 90q37 37 89 37t90 -36q36 -38 36 -91zM737 1599q0 -51 -37 -89t-90 -38t-90 38t-37 89t37 89t90 38t90 -38t37 -89z" />
    <glyph glyph-name="Zacute" unicode="&#x179;" horiz-adv-x="770" 
d="M618 1786l-219 -295h-145l162 295h202zM709 0h-650v219l347 920h-347v227h635v-209l-350 -930h365v-227z" />
    <glyph glyph-name="zacute" unicode="&#x17a;" horiz-adv-x="686" 
d="M578 1434l-220 -295h-145l162 295h203zM633 0h-578v174l293 614h-293v201h570v-168l-295 -620h303v-201z" />
    <glyph glyph-name="Zdotaccent" unicode="&#x17b;" horiz-adv-x="770" 
d="M382 1475q-52 1 -89 37t-37 88t37 90t89 36q52 0 89 -36t37 -90q0 -52 -37 -88t-89 -37zM709 0h-650v219l347 920h-347v227h635v-209l-350 -930h365v-227z" />
    <glyph glyph-name="zdotaccent" unicode="&#x17c;" horiz-adv-x="686" 
d="M341 1143q-52 0 -89 37t-37 89t37 89t89 37t89 -37t37 -89t-37 -89t-89 -37zM633 0h-578v174l293 614h-293v201h570v-168l-295 -620h303v-201z" />
    <glyph glyph-name="Zcaron" unicode="&#x17d;" horiz-adv-x="770" 
d="M709 0h-650v219l347 920h-347v227h635v-209l-350 -930h365v-227zM494 1491h-211l-133 295h129l110 -189l103 189h129z" />
    <glyph glyph-name="zcaron" unicode="&#x17e;" horiz-adv-x="686" 
d="M446 1139h-210l-134 295h129l111 -189l102 189h129zM633 0h-578v174l293 614h-293v201h570v-168l-295 -620h303v-201z" />
    <glyph glyph-name="longs" unicode="&#x17f;" horiz-adv-x="509" 
d="M356 0h-231v788h-90v201h90v103q0 141 69 218q70 76 188 76t181 -53l-57 -180q-31 33 -70 33q-80 0 -80 -94v-1092z" />
    <glyph glyph-name="florin" unicode="&#x192;" horiz-adv-x="813" 
d="M123 498v202h131l94 420q27 119 117 193q91 73 201 73t168 -47l-72 -204q-23 25 -62 24q-82 0 -104 -102l-78 -357h162v-202h-207l-184 -828h-262l182 828h-86z" />
    <glyph glyph-name="AEacute" unicode="&#x1fc;" horiz-adv-x="1241" 
d="M895 1786l-219 -295h-146l162 295h203zM582 479v598l-172 -598h172zM1180 0h-598v252h-234l-76 -252h-262l461 1366h709v-227h-340v-330h325v-227h-325v-355h340v-227z" />
    <glyph glyph-name="aeacute" unicode="&#x1fd;" horiz-adv-x="1294" 
d="M868 1434l-219 -295h-145l162 295h202zM399 469q-55 0 -87 -44t-31 -124q0 -168 118 -168q99 0 142 113q-16 61 -17 127q-35 96 -125 96zM745 582h279q0 244 -137 243q-78 1 -110 -73t-32 -170zM1247 418h-502q5 -117 53 -186q48 -68 139 -68t167 98l113 -129
q-121 -158 -310 -158t-299 170q-106 -170 -291 -170q-119 0 -193 87t-75 237q0 150 75 239t193 89q59 0 117 -31t90 -88v129q0 180 -149 180q-104 0 -201 -98l-84 162q62 69 154 101t178 32q170 0 244 -119q80 119 244 119t250 -144q87 -144 87 -374v-78z" />
    <glyph glyph-name="Oslashacute" unicode="&#x1fe;" horiz-adv-x="978" 
d="M489 205q162 0 162 477q0 88 -6 168l-266 -555q38 -90 110 -90zM326 682q0 -94 6 -174l268 559q-43 92 -111 92q-163 0 -163 -477zM489 -25q-133 0 -227 78l-24 -53h-150l80 168q-106 184 -106 508t106 519q106 194 321 194q131 0 228 -80l26 57h150l-84 -172
q106 -184 106 -508q1 -324 -105 -517q-106 -194 -321 -194zM725 1786l-219 -295h-146l162 295h203z" />
    <glyph glyph-name="oslashacute" unicode="&#x1ff;" horiz-adv-x="854" 
d="M426 180q133 0 133 316q0 55 -6 104l-215 -364q33 -56 88 -56zM293 496q0 -41 4 -111l219 369q-33 55 -90 55q-133 0 -133 -313zM55 494q1 224 95 372q94 147 276 148q119 0 205 -68l24 43h129l-77 -129q92 -145 92 -366q0 -222 -94 -370t-279 -149q-117 0 -203 66
l-24 -41h-129l75 129q-90 141 -90 365zM664 1434l-220 -295h-145l162 295h203z" />
    <glyph glyph-name="Scommaaccent" unicode="&#x218;" horiz-adv-x="796" 
d="M404 -125q52 0 92 -43t39 -123q1 -80 -45 -158t-119 -131l-82 66q45 27 81 75t44 91q-4 -4 -38 -4t-64 30t-30 79q0 48 35 83t87 35zM377 -25q-217 0 -352 136l110 202q86 -109 225 -108q61 0 100 42q38 41 38 107q0 110 -154 216q-62 44 -126 96t-109 140
q-45 87 -46 202q1 160 103 270t280 111q178 0 293 -111l-98 -199q-78 80 -188 80q-55 0 -91 -38t-36 -97q0 -58 45 -110t108 -97t127 -99t108 -144q46 -90 46 -203q0 -174 -106 -285t-277 -111z" />
    <glyph glyph-name="scommaaccent" unicode="&#x219;" horiz-adv-x="710" 
d="M363 -125q51 0 91 -43t40 -123t-45 -158t-119 -131l-82 66q45 27 81 75t44 91q-4 -4 -38 -4t-64 30q-29 30 -29 79q0 48 34 83q35 35 87 35zM346 -25q-215 0 -319 129l94 160q96 -106 205 -106q55 0 89 28t34 72q0 43 -29 73t-72 50t-94 50t-94 64t-72 96t-29 142
q0 119 84 200t242 81t279 -117l-93 -156q-74 90 -190 90q-47 -1 -77 -27t-30 -66t41 -70t99 -60t115 -66t99 -106t42 -166q0 -131 -92 -213t-232 -82z" />
    <glyph glyph-name="hsuperior" unicode="&#x2b0;" horiz-adv-x="634" 
d="M559 668h-168v444q0 70 -56 70t-91 -78v-436h-168v888h168v-325q24 37 70 67t94 29q152 0 151 -156v-503z" />
    <glyph glyph-name="hsuperior" unicode="&#xf637;" horiz-adv-x="634" 
d="M559 668h-168v444q0 70 -56 70t-91 -78v-436h-168v888h168v-325q24 37 70 67t94 29q152 0 151 -156v-503z" />
    <glyph glyph-name="circumflex" unicode="&#x2c6;" horiz-adv-x="471" 
d="M471 1139h-129l-109 188l-104 -188h-129l127 295h211z" />
    <glyph glyph-name="caron" unicode="&#x2c7;" horiz-adv-x="471" 
d="M344 1139h-211l-133 295h129l111 -189l102 189h129z" />
    <glyph glyph-name="breve" unicode="&#x2d8;" horiz-adv-x="507" 
d="M255 1143q-159 0 -255 127l109 82q53 -74 146 -74t144 74l109 -82q-94 -127 -253 -127z" />
    <glyph glyph-name="dotaccent" unicode="&#x2d9;" horiz-adv-x="321" 
d="M161 1143q-52 0 -89 37t-37 89t37 89t89 37t89 -37t37 -89t-37 -89t-89 -37z" />
    <glyph glyph-name="ring" unicode="&#x2da;" horiz-adv-x="362" 
d="M182 1227q33 -1 57 23q23 24 23 58t-24 58t-56 23q-32 0 -56 -24q-24 -23 -24 -57t24 -58t56 -23zM182 1126q-76 0 -129 54t-53 129q0 76 53 128t129 52t128 -52t52 -128q0 -75 -52 -129t-128 -54z" />
    <glyph glyph-name="ogonek" unicode="&#x2db;" horiz-adv-x="317" 
d="M164 -381q-76 0 -120 42t-44 126q0 152 150 270l86 -57q-117 -84 -117 -205q0 -74 47 -74q43 1 55 58l96 -51q-43 -109 -153 -109z" />
    <glyph glyph-name="tilde" unicode="&#x2dc;" horiz-adv-x="524" 
d="M350 1135q-38 -1 -64 23t-38 52q-33 77 -68 76q-59 0 -59 -139h-121q0 123 46 199t128 75q47 0 76 -38q29 -37 49 -75t45 -38q59 0 59 139h121q0 -123 -46 -199t-128 -75z" />
    <glyph glyph-name="hungarumlaut" unicode="&#x2dd;" horiz-adv-x="546" 
d="M547 1434l-164 -295h-121l111 295h174zM285 1434l-164 -295h-121l111 295h174z" />
    <glyph glyph-name="Delta" unicode="&#x394;" horiz-adv-x="903" 
d="M604 227l-151 850l-154 -850h305zM903 0h-903l303 1366h297z" />
    <glyph glyph-name="Delta" unicode="&#x2206;" horiz-adv-x="903" 
d="M604 227l-151 850l-154 -850h305zM903 0h-903l303 1366h297z" />
    <glyph glyph-name="Omega" unicode="&#x3a9;" horiz-adv-x="960" 
d="M76 0v227h170q-193 183 -193 497t108 489q107 175 319 175t320 -174t108 -490t-197 -497h174v-227h-346v227q41 25 72 161q32 136 32 294q0 475 -163 475t-163 -475q0 -162 32 -298t73 -157v-227h-346z" />
    <glyph glyph-name="Omega" unicode="&#x2126;" horiz-adv-x="960" 
d="M76 0v227h170q-193 183 -193 497t108 489q107 175 319 175t320 -174t108 -490t-197 -497h174v-227h-346v227q41 25 72 161q32 136 32 294q0 475 -163 475t-163 -475q0 -162 32 -298t73 -157v-227h-346z" />
    <glyph glyph-name="pi" unicode="&#x3c0;" horiz-adv-x="876" 
d="M764 0h-234v819h-186v-819h-231v819h-76v205h803v-205h-76v-819z" />
    <glyph glyph-name="endash" unicode="&#x2013;" horiz-adv-x="942" 
d="M881 397h-820v197h820v-197z" />
    <glyph glyph-name="emdash" unicode="&#x2014;" horiz-adv-x="1310" 
d="M1249 397h-1188v197h1188v-197z" />
    <glyph glyph-name="quoteleft" unicode="&#x2018;" horiz-adv-x="514" 
d="M94 1037q0 97 53 191t146 161l102 -84q-51 -31 -96 -86t-55 -107q12 4 35 4q55 0 92 -38t37 -97t-44 -103t-109 -44t-113 53t-48 150z" />
    <glyph glyph-name="quoteright" unicode="&#x2019;" horiz-adv-x="514" 
d="M416 1183q0 -97 -54 -191t-143 -161l-104 84q51 31 96 86t55 107q-8 -4 -49 -4t-77 38t-36 97t43 103t108 44t113 -53t48 -150z" />
    <glyph glyph-name="quotesinglbase" unicode="&#x201a;" horiz-adv-x="514" 
d="M104 132q0 60 43 104t108 45t113 -53t48 -152t-54 -192t-143 -158l-104 84q51 29 96 85t55 107q-12 -6 -35 -6q-55 0 -91 38t-36 98z" />
    <glyph glyph-name="quotedblleft" unicode="&#x201c;" horiz-adv-x="905" 
d="M650 834q-65 0 -113 53t-48 150q-1 97 53 191t144 161l105 -84q-51 -31 -97 -86t-55 -107q8 4 49 4t77 -38t36 -97t-43 -103t-108 -44zM96 1037q0 97 54 191t145 161l102 -84q-51 -31 -96 -86t-55 -107q12 4 52 4t76 -38t36 -97t-43 -103t-109 -44t-114 53t-48 150z" />
    <glyph glyph-name="quotedblright" unicode="&#x201d;" horiz-adv-x="905" 
d="M416 1183q0 -97 -54 -191t-143 -161l-104 84q51 31 96 86t55 107q-8 -4 -49 -4t-77 38t-36 97t43 103t108 44t113 -53t48 -150zM809 1183q0 -97 -54 -191t-145 -161l-102 84q51 31 96 86t55 107q-11 -4 -51 -4t-77 38q-36 38 -35 97q0 59 43 103t109 44t113 -53
q48 -53 48 -150z" />
    <glyph glyph-name="quotedblbase" unicode="&#x201e;" horiz-adv-x="905" 
d="M809 84q0 -215 -199 -358l-102 84q51 29 96 85t55 107q-18 -6 -36 -6q-55 0 -92 38q-35 38 -35 98t43 104t109 45t113 -53q48 -54 48 -144zM104 132q0 60 43 104t108 45t113 -53t48 -152t-54 -192t-143 -158l-104 84q51 29 96 85t55 107q-12 -6 -35 -6q-55 0 -91 38
t-36 98z" />
    <glyph glyph-name="dagger" unicode="&#x2020;" horiz-adv-x="559" 
d="M516 1075l-182 8l8 -413h-127l10 413l-182 -8v115l182 -6l-10 202h127l-8 -202l182 6v-115z" />
    <glyph glyph-name="daggerdbl" unicode="&#x2021;" horiz-adv-x="559" 
d="M516 1190v-115l-182 8v-409l182 8v-115l-182 6l8 -204h-127l8 204l-180 -6v115l180 -8v409l-180 -8v115l180 -6l-8 202h127l-8 -202z" />
    <glyph glyph-name="bullet" unicode="&#x2022;" horiz-adv-x="733" 
d="M606 497q0 -97 -70 -167t-167 -70q-98 0 -168 70t-70 167t70 167t168 70t168 -70q69 -70 69 -167z" />
    <glyph glyph-name="ellipsis" unicode="&#x2026;" horiz-adv-x="1525" 
d="M1423 129q0 -61 -45 -106t-107 -45q-63 0 -107 44q-44 46 -44 107t44 107t106 45q62 1 108 -45q45 -46 45 -107zM915 129q0 -61 -45 -106t-107 -45q-61 0 -107 44q-46 46 -46 107t45 107t107 45q62 1 108 -45q45 -46 45 -107zM406 129q0 -61 -44 -106t-107 -45
q-61 0 -107 44q-46 46 -46 107t45 107t107 45q62 1 108 -45q44 -46 44 -107z" />
    <glyph glyph-name="perthousand" unicode="&#x2030;" horiz-adv-x="1775" 
d="M1579 315q0 89 -30 141t-81 52q-50 0 -80 -52t-30 -142t30 -141q30 -52 80 -52t81 53q30 53 30 141zM1202 314q0 146 73 244t193 97q120 1 192 -97q73 -98 73 -244t-73 -242t-193 -96q-121 0 -193 96t-72 242zM1006 314q0 90 -30 142t-81 52t-81 -52t-30 -142t30 -141
q30 -52 81 -52t81 52t30 141zM418 1045q0 89 -30 143t-81 53q-51 0 -81 -53q-30 -54 -30 -142t30 -141t81 -53t81 52t30 141zM894 655q120 1 192 -97t73 -244q0 -146 -73 -242q-72 -96 -192 -96t-193 96t-73 242t73 244q73 97 193 97zM940 1366l-573 -1366h-103l572 1366
h104zM573 1045q-1 -146 -73 -242t-192 -96t-192 96t-73 242q0 145 73 243q72 98 192 98t193 -97q72 -98 72 -244z" />
    <glyph glyph-name="guilsinglleft" unicode="&#x2039;" horiz-adv-x="487" 
d="M426 129h-180l-185 369l185 362h180l-184 -362z" />
    <glyph glyph-name="guilsinglright" unicode="&#x203a;" horiz-adv-x="487" 
d="M426 498l-184 -369h-181l185 369l-185 362h181z" />
    <glyph glyph-name="fraction" unicode="&#x2044;" horiz-adv-x="272" 
d="M473 1366l-571 -1366h-103l570 1366h104z" />
    <glyph glyph-name="fraction" unicode="&#x2215;" horiz-adv-x="272" 
d="M473 1366l-571 -1366h-103l570 1366h104z" />
    <glyph glyph-name="zerosuperior" unicode="&#x2070;" 
d="M391 1272q0 137 -17 209q-16 71 -72 71t-76 -72q-19 -73 -19 -209t19 -209q18 -73 74 -73t74 73q17 73 17 210zM573 1272q1 -176 -69 -300t-204 -124t-204 124t-69 300q0 176 69 299q70 123 204 123t204 -123t69 -299z" />
    <glyph glyph-name="foursuperior" unicode="&#x2074;" 
d="M330 1186v303l-154 -303h154zM575 1047h-69v-185h-176v185h-303v137l266 497h213v-495h69v-139z" />
    <glyph glyph-name="fivesuperior" unicode="&#x2075;" 
d="M563 1128q0 -124 -74 -202t-198 -78q-178 0 -262 133l110 104q57 -96 142 -96q49 0 77 39t29 100q0 60 -26 96t-70 36q-66 0 -111 -78l-129 41v458h471v-141h-297v-217q51 66 135 66t144 -69t59 -192z" />
    <glyph glyph-name="sixsuperior" unicode="&#x2076;" 
d="M389 1122q0 139 -86 140q-55 0 -94 -84q8 -188 94 -189q41 0 64 40q22 40 22 93zM567 1129q1 -125 -69 -203t-183 -78q-143 0 -213 119t-70 306t83 304q82 117 218 117t206 -86l-86 -119q-39 63 -105 63t-102 -70q-37 -70 -37 -171v-17q51 104 160 105q84 0 141 -73
t57 -197z" />
    <glyph glyph-name="sevensuperior" unicode="&#x2077;" horiz-adv-x="548" 
d="M27 1540v141h495v-120l-229 -699h-168l233 678h-331z" />
    <glyph glyph-name="eightsuperior" unicode="&#x2078;" 
d="M391 1091q0 54 -34 91q-35 37 -59 37t-56 -37q-32 -38 -33 -92q1 -54 25 -80t64 -27q40 0 67 27q26 27 26 81zM383 1455q0 50 -23 77t-61 27q-82 0 -82 -103q1 -36 19 -64t33 -37t30 -16q27 8 55 37t29 79zM565 1071q0 -106 -70 -165q-71 -58 -196 -58t-196 57t-70 166
q0 72 44 131t105 82q-59 20 -98 72t-39 125q0 104 75 158q75 55 180 55t180 -54t75 -159q0 -72 -40 -124t-99 -73q61 -23 105 -82t44 -131z" />
    <glyph glyph-name="ninesuperior" unicode="&#x2079;" 
d="M297 1552q-41 0 -63 -40t-23 -102q0 -62 26 -96t62 -34q57 0 94 86q-8 186 -96 186zM233 1143q-84 1 -142 73t-58 196t71 203q72 79 181 79q145 0 215 -118t70 -308t-83 -304q-82 -116 -218 -116t-206 86l87 119q39 -63 103 -63t102 69q38 70 38 172v16
q-51 -104 -160 -104z" />
    <glyph glyph-name="parenleftsuperior" unicode="&#x207d;" horiz-adv-x="329" 
d="M55 1272q0 295 150 543l94 -41q-98 -225 -98 -502t98 -502l-94 -41q-150 248 -150 543z" />
    <glyph glyph-name="parenrightsuperior" unicode="&#x207e;" horiz-adv-x="329" 
d="M274 1272q0 -289 -149 -543l-94 41q98 226 98 502t-98 502l94 41q149 -254 149 -543z" />
    <glyph glyph-name="nsuperior" unicode="&#x207f;" horiz-adv-x="636" 
d="M561 668h-170v444q0 74 -55 74t-90 -78v-440h-170v643h170v-80q24 39 70 67t94 29q152 0 151 -160v-499z" />
    <glyph glyph-name="zeroinferior" unicode="&#x2080;" 
d="M391 111q0 137 -17 209q-16 72 -72 71q-56 0 -76 -73q-20 -72 -19 -208q0 -136 19 -209q18 -73 74 -73t74 73q17 73 17 210zM573 111q1 -176 -69 -300t-204 -124t-204 124t-69 300q0 176 69 299q70 122 204 122t204 -122q69 -123 69 -299z" />
    <glyph glyph-name="oneinferior" unicode="&#x2081;" horiz-adv-x="499" 
d="M412 -299h-179v594l-114 -119l-101 105l240 239h154v-819z" />
    <glyph glyph-name="twoinferior" unicode="&#x2082;" 
d="M565 -299h-508v129q211 227 271 309q59 81 59 139t-27 86t-71 27q-90 0 -148 -98l-106 104q100 135 264 135q119 0 191 -63t71 -161q0 -98 -59 -188q-59 -91 -226 -278h289v-141z" />
    <glyph glyph-name="threeinferior" unicode="&#x2083;" 
d="M565 -90q1 -92 -73 -158t-195 -65q-182 0 -266 133l110 104q59 -96 148 -96q104 0 104 111t-114 110q-45 0 -58 -2v141q10 -2 51 -2q111 0 111 102t-94 103q-94 0 -142 -86l-108 94q90 133 258 133q117 0 187 -56t69 -165q0 -68 -41 -121t-102 -67q66 -9 110 -65t45 -148
z" />
    <glyph glyph-name="fourinferior" unicode="&#x2084;" 
d="M330 25v303l-154 -303h154zM575 -115h-69v-184h-176v184h-303v138l266 497h213v-495h69v-140z" />
    <glyph glyph-name="fiveinferior" unicode="&#x2085;" 
d="M563 -33q0 -123 -74 -201t-198 -79q-178 0 -262 133l110 104q57 -96 142 -96q49 0 77 39t29 100q0 61 -26 96t-70 35q-66 0 -111 -78l-129 41v459h471v-141h-297v-217q51 66 135 66t144 -69q59 -69 59 -192z" />
    <glyph glyph-name="sixinferior" unicode="&#x2086;" 
d="M389 -39q0 139 -86 139q-55 0 -94 -84q8 -188 94 -188q41 0 64 40q22 40 22 93zM567 -32q1 -124 -69 -202t-183 -79q-143 1 -213 119t-70 306t83 304q82 116 218 116t206 -86l-86 -118q-39 63 -105 63q-66 1 -102 -69q-37 -70 -37 -172v-17q51 104 160 105q84 0 141 -73
t57 -197z" />
    <glyph glyph-name="seveninferior" unicode="&#x2087;" horiz-adv-x="548" 
d="M27 379v141h495v-121l-229 -698h-168l233 678h-331z" />
    <glyph glyph-name="eightinferior" unicode="&#x2088;" 
d="M391 -71q0 54 -34 91q-35 37 -59 37t-56 -37t-33 -91q1 -54 25 -81q24 -26 64 -26t67 26q26 27 26 81zM383 302q0 42 -23 69t-61 26q-82 0 -82 -102q1 -35 19 -64t33 -37l30 -16q36 10 60 46t24 78zM565 -90q0 -106 -70 -165q-71 -58 -196 -58t-196 57t-70 166
q0 72 44 131t105 82q-59 21 -98 73t-39 123q0 105 75 159t180 54t180 -54t75 -159q0 -71 -40 -123t-99 -73q61 -23 105 -82t44 -131z" />
    <glyph glyph-name="nineinferior" unicode="&#x2089;" 
d="M297 391q-41 0 -63 -40q-22 -41 -23 -103q0 -62 26 -96t62 -33q57 0 94 86q-8 186 -96 186zM233 -18q-84 0 -142 72t-58 197q0 124 71 203q72 79 181 78q145 0 215 -118t70 -306q0 -190 -83 -306q-82 -116 -218 -116t-206 87l87 118q39 -63 103 -63t102 70t38 172v16
q-51 -104 -160 -104z" />
    <glyph glyph-name="parenleftinferior" unicode="&#x208d;" horiz-adv-x="329" 
d="M55 111q0 295 150 542l94 -41q-98 -226 -98 -502t98 -501l-94 -41q-150 248 -150 543z" />
    <glyph glyph-name="parenrightinferior" unicode="&#x208e;" horiz-adv-x="329" 
d="M274 111q0 -289 -149 -543l-94 41q98 225 98 501t-98 502l94 41q149 -253 149 -542z" />
    <glyph glyph-name="colonmonetary" unicode="&#x20a1;" horiz-adv-x="845" 
d="M481 -25h-2l-37 -180h-131l43 203q-33 10 -71 35l-50 -238h-131l74 346q-123 186 -123 514t93 516t282 213l39 189h129l-39 -193q43 -10 74 -26l45 219h131l-66 -318q49 -72 84 -188l-207 -76q-23 86 -52 127q-30 41 -85 41q-164 0 -164 -477t164 -477q109 0 142 198
l204 -75q-84 -353 -346 -353z" />
    <glyph glyph-name="frenchfranc" unicode="&#x20a3;" horiz-adv-x="796" 
d="M391 0h-258v240h-100v135h100v991h598v-227h-340v-330h326v-227h-326v-207h176v-135h-176v-240z" />
    <glyph glyph-name="lira" unicode="&#x20a4;" horiz-adv-x="868" 
d="M61 680v123h62q-29 80 -29 176q0 170 116 289q116 118 259 118t233 -70t115 -198l-205 -88q-16 72 -43 109t-77 37t-84 -54q-35 -54 -35 -147q0 -92 28 -172h185v-123h-135q23 -61 26 -119h109v-121h-111q-29 -133 -106 -200q43 18 81 18t96 -27q56 -27 93 -26
q94 0 139 59l70 -203q-28 -35 -94 -61t-141 -25q-75 0 -153 42t-120 42q-78 0 -174 -73l-74 176q72 49 116 124t44 148v6h-191v121h168q0 2 -53 119h-115z" />
    <glyph glyph-name="uni20A6" unicode="&#x20a6;" horiz-adv-x="1046" 
d="M911 0h-241l-279 782v-782h-258v479h-100v135h100v152h-100v135h100v465h258l262 -756v756h258v-465h93v-135h-93v-152h93v-135h-93v-479z" />
    <glyph glyph-name="peseta" unicode="&#x20a7;" horiz-adv-x="999" 
d="M391 1139v-131h223q-27 131 -141 131h-82zM473 729q117 0 143 135h-225v-135h82zM977 864h-94q-17 -160 -115 -261t-266 -101h-111v-502h-258v864h-100v144h100v358h369q168 0 264 -100t115 -258h96v-144z" />
    <glyph glyph-name="rupee" unicode="&#x20a8;" horiz-adv-x="1579" 
d="M1217 -25q-215 0 -320 129l94 160q96 -106 205 -106q55 0 89 28t34 72q0 75 -104 125q-104 49 -185 112q-43 34 -72 96t-28 142q0 119 84 200t242 81t278 -117l-92 -156q-74 90 -191 90q-47 -1 -77 -27t-29 -66q0 -40 41 -70t99 -60q58 -29 116 -65q57 -37 98 -107
t41 -166q0 -131 -91 -213t-232 -82zM446 729q72 0 111 55q39 56 39 150t-39 149t-111 56h-81v-410h81zM365 502v-502h-259v1366h381q165 0 269 -119t104 -305q0 -281 -176 -379l188 -563h-276l-147 502h-84z" />
    <glyph glyph-name="uni20A9" unicode="&#x20a9;" horiz-adv-x="1331" 
d="M666 881l-35 -267h67zM393 766l39 -315l45 315h-84zM852 766l47 -315l39 315h-86zM55 479v135h131l-26 152h-105v135h82l-80 465h262l58 -465h119l67 465h203l68 -465h120l58 465h262l-80 -465h70v-135h-93l-26 -152h119v-135h-142l-82 -479h-262l-61 479h-103l-61 -479
h-262l-82 479h-154z" />
    <glyph glyph-name="afii57636" unicode="&#x20aa;" horiz-adv-x="1146" 
d="M705 0h-351v805h172v-639h179q176 0 176 180v780h172v-723q0 -403 -348 -403zM442 1126q350 0 351 -403v-404h-172v461q0 180 -179 181h-176v-961h-172v1126h348z" />
    <glyph glyph-name="Euro" unicode="&#x20ac;" horiz-adv-x="911" 
d="M524 -25q-176 0 -279 131t-136 361h-78v147h65v142h-65v145h80q33 229 135 359t278 129q256 0 344 -322l-206 -76q-23 86 -53 127t-85 41q-121 0 -153 -258h204v-145h-215v-142h215v-147h-204q33 -262 153 -262q109 0 142 198l204 -75q-84 -353 -346 -353z" />
    <glyph glyph-name="afii61289" unicode="&#x2113;" horiz-adv-x="882" 
d="M633 1092q0 53 -40 87q-41 33 -107 33t-108 -49t-42 -141v-293l184 168q113 109 113 195zM106 227v795q0 164 106 264t264 100t268 -82t110 -212q0 -78 -35 -145t-133 -154l-350 -318v-231q0 -92 55 -92q31 0 55 24l50 -151q-55 -49 -167 -49q-111 0 -167 58t-56 193z
" />
    <glyph glyph-name="afii61352" unicode="&#x2116;" horiz-adv-x="1622" 
d="M1309 854q92 0 92 200t-92 199q-92 1 -92 -199t92 -200zM1309 717q-129 0 -198 97q-69 96 -69 240t69 241t198 97t197 -96q68 -98 69 -241q-1 -143 -69 -241t-197 -97zM885 0h-242l-278 782v-782h-259v1366h259l262 -756v756h258v-1366z" />
    <glyph glyph-name="published" unicode="&#x2117;" horiz-adv-x="1593" 
d="M1042 856q0 72 -48 117t-120 45h-229v-322h229q70 0 119 44t49 116zM874 1098q106 0 182 -66t77 -176q0 -108 -75 -175t-184 -67h-229v-346h-88v830h317zM1432 683q0 261 -188 449t-447 187q-261 0 -447 -186q-186 -187 -186 -449t186 -448t446 -186t448 186t188 447z
M1505 684q0 -291 -208 -499q-209 -208 -501 -208t-499 208t-207 499t207 499t500 208t501 -208t207 -499z" />
    <glyph glyph-name="servicemark" unicode="&#x2120;" horiz-adv-x="765" 
d="M250 1023q0 -50 -32 -85t-90 -35t-97 43l28 51q33 -39 64 -39t49 18t18 52q0 58 -73 106q-27 17 -50 51q-24 34 -24 81t31 80q31 32 81 32t87 -32l-25 -50q-25 27 -53 27q-57 0 -60 -61q0 -51 74 -99q28 -18 50 -54t22 -86zM690 915h-57v373l-113 -373h-16l-113 373v-373
h-57v451h88l90 -322l90 322h88v-451z" />
    <glyph glyph-name="trademark" unicode="&#x2122;" horiz-adv-x="765" 
d="M264 1313h-86v-398h-57v398h-86v53h229v-53zM694 915h-57v373l-113 -373h-16l-113 373v-373h-57v451h88l90 -322l90 322h88v-451z" />
    <glyph glyph-name="estimated" unicode="&#x212e;" horiz-adv-x="1724" 
d="M1368 715v391q0 29 -20 49q-199 203 -484 203t-487 -209q-20 -20 -21 -49v-385q0 -12 11 -13h993q8 1 8 13zM1661 664h-1294q-10 0 -11 -11v-389q0 -29 19 -47q201 -211 501 -211t502 236h117q-111 -129 -277 -204t-356 -75q-330 0 -564 211t-235 508q1 297 235 508
t564 211t564 -211t235 -508v-18z" />
    <glyph glyph-name="onethird" unicode="&#x2153;" horiz-adv-x="1398" 
d="M412 547h-179v594l-114 -119l-101 104l240 240h154v-819zM1364 208q0 -92 -74 -158t-194 -64q-182 0 -267 133l111 104q59 -96 147 -96q104 0 105 111q0 111 -115 110q-45 0 -57 -2v141q10 -2 51 -2q111 1 111 103t-94 102t-142 -86l-108 94q90 133 258 133
q116 0 186 -56t70 -165q0 -68 -41 -121t-103 -67q66 -10 111 -66t45 -148zM999 1366l-571 -1366h-102l569 1366h104z" />
    <glyph glyph-name="twothirds" unicode="&#x2154;" horiz-adv-x="1472" 
d="M565 547h-508v129q211 227 271 309q59 81 59 139t-27 86t-71 27q-90 0 -148 -98l-106 104q100 135 264 135q119 0 191 -63t71 -161q0 -98 -59 -188q-59 -91 -226 -278h289v-141zM1438 208q0 -92 -74 -158t-195 -64q-182 0 -266 133l111 104q59 -96 147 -96q104 0 105 111
q0 111 -115 110q-45 0 -57 -2v141q10 -2 51 -2q111 0 110 101q0 104 -94 104t-141 -86l-109 94q90 133 258 133q117 0 187 -56t69 -165q0 -68 -41 -121t-102 -67q66 -10 111 -66t45 -148zM1073 1366l-571 -1366h-103l570 1366h104z" />
    <glyph glyph-name="oneeighth" unicode="&#x215b;" horiz-adv-x="1398" 
d="M412 547h-179v594l-114 -119l-101 104l240 240h154v-819zM1190 228q0 54 -34 91t-58 37t-58 -37q-32 -37 -32 -91t24 -81t65 -27t67 28q26 26 26 80zM1182 601q0 42 -23 69t-61 26q-82 0 -82 -102q0 -35 18 -64q18 -30 34 -38l30 -15q34 10 59 46t25 78zM1364 209
q0 -107 -71 -165t-195 -58t-196 57q-71 57 -71 166q1 72 45 131t105 82q-59 20 -98 72t-39 124q0 104 75 158t180 55q105 0 180 -54t75 -159q0 -72 -40 -124t-100 -72q62 -23 106 -82t44 -131zM999 1366l-571 -1366h-102l569 1366h104z" />
    <glyph glyph-name="threeeighths" unicode="&#x215c;" horiz-adv-x="1472" 
d="M565 756q1 -92 -73 -158t-195 -66q-182 0 -266 134l110 104q59 -96 148 -96q104 0 104 110t-114 111q-45 0 -58 -2v141q10 -2 51 -2q111 0 111 102t-94 103q-94 0 -142 -86l-108 94q90 133 258 133q117 0 187 -56t69 -165q0 -68 -41 -121t-102 -67q66 -9 110 -65t45 -148
zM1264 228q0 54 -34 91t-59 37t-57 -37t-33 -91q0 -54 25 -81q24 -27 64 -27t67 28q27 26 27 80zM1255 601q0 42 -22 69q-23 27 -62 26q-82 0 -81 -102q0 -35 18 -64q18 -30 34 -38t29 -15q36 10 60 46t24 78zM1438 209q0 -107 -71 -165t-196 -58t-195 57t-71 166
q0 72 44 131t106 82q-59 20 -99 72t-38 124q0 104 74 159q75 54 180 54q104 0 180 -54t75 -159q1 -72 -39 -124t-100 -72q62 -23 106 -82t44 -131zM1073 1366l-571 -1366h-103l570 1366h104z" />
    <glyph glyph-name="fiveeighths" unicode="&#x215d;" horiz-adv-x="1462" 
d="M563 813q0 -123 -74 -202t-198 -79q-178 0 -262 134l110 104q57 -96 142 -96q49 0 77 39t29 100q0 61 -26 96t-70 35q-66 0 -111 -78l-129 41v459h471v-141h-297v-217q51 66 135 66t144 -69q59 -69 59 -192zM1253 228q0 54 -33 91q-34 37 -59 37t-57 -37t-33 -91
q0 -54 25 -81q24 -27 64 -27t67 27q26 27 26 81zM1245 601q0 42 -22 69q-23 27 -62 26q-82 0 -82 -102q1 -35 19 -64q18 -30 34 -38t29 -15q36 10 60 46t24 78zM1427 209q0 -106 -70 -165q-71 -58 -196 -58t-195 57t-71 166q0 72 44 131t105 82q-59 20 -98 72t-39 124
q0 104 75 158t180 55q105 0 180 -54t75 -159q0 -72 -40 -124t-99 -72q61 -23 105 -82t44 -131zM1061 1366l-572 -1366h-102l569 1366h105z" />
    <glyph glyph-name="seveneighths" unicode="&#x215e;" horiz-adv-x="1353" 
d="M27 1225v141h495v-121l-229 -698h-168l233 678h-331zM1145 228q0 54 -34 91q-35 37 -59 37t-57 -37t-33 -91t26 -81q24 -27 64 -27t66 28q26 26 27 80zM1137 601q0 42 -23 69t-61 26q-82 0 -82 -102q0 -35 18 -64q17 -30 33 -38t31 -15q34 10 59 46t25 78zM1319 209
q0 -107 -71 -165q-72 -58 -196 -58t-195 57t-71 166q0 72 44 131t106 82q-59 20 -98 72t-39 124q0 104 74 159q75 54 181 54t180 -54q75 -54 75 -159q0 -72 -40 -124t-100 -72q61 -23 105 -82t45 -131zM954 1366l-571 -1366h-102l569 1366h104z" />
    <glyph glyph-name="arrowleft" unicode="&#x2190;" horiz-adv-x="1191" 
d="M1102 432h-551l24 -266l-575 420l575 418l-24 -265h551v-307z" />
    <glyph glyph-name="arrowup" unicode="&#x2191;" horiz-adv-x="1191" 
d="M442 35v551l-266 -25l420 576l418 -576l-264 25v-551h-308z" />
    <glyph glyph-name="arrowright" unicode="&#x2192;" horiz-adv-x="1191" 
d="M96 432v307h549l-24 265l575 -418l-575 -420l24 266h-549z" />
    <glyph glyph-name="arrowdown" unicode="&#x2193;" horiz-adv-x="1191" 
d="M750 1137v-551l266 24l-420 -575l-418 575l264 -24v551h308z" />
    <glyph glyph-name="partialdiff" unicode="&#x2202;" horiz-adv-x="854" 
d="M426 180q133 0 133 285t-133 285t-133 -285t133 -285zM799 496q1 -229 -93 -375t-278 -146q-184 -1 -278 141t-94 350t79 348q80 140 216 140t200 -141q-47 287 -197 494l195 90q250 -381 250 -901z" />
    <glyph glyph-name="product" unicode="&#x220f;" horiz-adv-x="1056" 
d="M915 -184h-258v1323h-260v-1323h-256v1323h-104v227h983v-227h-105v-1323z" />
    <glyph glyph-name="summation" unicode="&#x2211;" horiz-adv-x="741" 
d="M682 43v-227h-610v235l229 559l-229 529v227h610v-227h-342l227 -531l-235 -565h350z" />
    <glyph glyph-name="minus" unicode="&#x2212;" horiz-adv-x="784" 
d="M725 612h-666v146h666v-146z" />
    <glyph glyph-name="radical" unicode="&#x221a;" horiz-adv-x="952" 
d="M590 0h-158l-135 618l-191 -36l-26 143l326 63l110 -557l250 1135h149z" />
    <glyph glyph-name="infinity" unicode="&#x221e;" horiz-adv-x="1011" 
d="M317 477q84 0 127 211q-43 209 -127 209q-53 0 -85 -57q-32 -56 -32 -152t32 -154t85 -57zM694 477q53 -1 85 57t32 153t-32 153t-85 57q-84 0 -127 -209q43 -211 127 -211zM293 332q-117 0 -175 105t-58 251t58 250t175 104q141 0 213 -206q31 92 87 149t126 57
q115 0 174 -105t59 -251t-58 -250t-175 -104q-70 0 -126 57t-87 150q-72 -207 -213 -207z" />
    <glyph glyph-name="integral" unicode="&#x222b;" horiz-adv-x="499" 
d="M92 -205h-57v156h57q30 1 52 25t22 61v1294q0 102 73 172t169 70h57v-156h-57q-31 -1 -53 -25t-21 -61v-1294q0 -104 -73 -173t-169 -69z" />
    <glyph glyph-name="approxequal" unicode="&#x2248;" horiz-adv-x="784" 
d="M216 911q79 0 169 36t180 36t160 -31v-153q-76 39 -156 39t-170 -36t-177 -36t-163 33v153q78 -41 157 -41zM215 530q80 0 170 35t180 35t160 -31v-153q-76 39 -156 39t-170 -36t-177 -36t-163 33v153q76 -39 156 -39z" />
    <glyph glyph-name="notequal" unicode="&#x2260;" horiz-adv-x="784" 
d="M59 416v147h230l100 242h-330v147h392l94 224h106l-94 -224h168v-147h-231l-101 -242h332v-147h-395l-94 -226h-103l94 226h-168z" />
    <glyph glyph-name="lessequal" unicode="&#x2264;" horiz-adv-x="784" 
d="M725 55h-666v146h666v-146zM725 319l-666 283v166l666 285v-174l-494 -195l494 -190v-175z" />
    <glyph glyph-name="greaterequal" unicode="&#x2265;" horiz-adv-x="784" 
d="M725 55h-666v146h666v-146zM725 602l-666 -283v175l494 190l-494 195v174l666 -285v-166z" />
    <glyph glyph-name="triangleright" unicode="&#x22b2;" horiz-adv-x="1202" 
d="M1206 586l-1095 -633v1266z" />
    <glyph glyph-name="triangleleft" unicode="&#x22b3;" horiz-adv-x="1202" 
d="M1096 1219v-1266l-1096 633z" />
    <glyph glyph-name="uni2318" unicode="&#x2318;" horiz-adv-x="1366" 
d="M1280 315q0 -93 -67 -161t-161 -68t-161 68q-68 68 -68 161v140h-280v-140q0 -93 -68 -161t-162 -68q-95 0 -161 68t-66 162t67 160q67 67 160 67h140v280h-138q-93 0 -161 68t-68 162q0 95 68 161t162 66t160 -67q67 -67 67 -160v-142h280v142q0 95 68 161t162 66
q95 0 161 -67t66 -161t-67 -161q-67 -68 -160 -68h-140v-280h140q95 0 161 -67t66 -161zM1053 911q57 -1 97 41t40 100t-40 99t-97 41t-99 -41t-41 -98v-142h140zM1190 314q0 58 -40 100t-97 41h-140v-140q0 -59 41 -100q40 -41 98 -41t98 41t40 99zM543 543h280v280h-280
v-280zM453 911v142q0 57 -40 98q-39 41 -97 41t-99 -41t-41 -99t41 -100t98 -41h138zM453 315v140h-140q-57 0 -97 -41q-40 -42 -40 -100t40 -99t97 -41t99 41q41 41 41 100z" />
    <glyph glyph-name="uni2318" unicode="&#xf8ff;" horiz-adv-x="1366" 
d="M1280 315q0 -93 -67 -161t-161 -68t-161 68q-68 68 -68 161v140h-280v-140q0 -93 -68 -161t-162 -68q-95 0 -161 68t-66 162t67 160q67 67 160 67h140v280h-138q-93 0 -161 68t-68 162q0 95 68 161t162 66t160 -67q67 -67 67 -160v-142h280v142q0 95 68 161t162 66
q95 0 161 -67t66 -161t-67 -161q-67 -68 -160 -68h-140v-280h140q95 0 161 -67t66 -161zM1053 911q57 -1 97 41t40 100t-40 99t-97 41t-99 -41t-41 -98v-142h140zM1190 314q0 58 -40 100t-97 41h-140v-140q0 -59 41 -100q40 -41 98 -41t98 41t40 99zM543 543h280v280h-280
v-280zM453 911v142q0 57 -40 98q-39 41 -97 41t-99 -41t-41 -99t41 -100t98 -41h138zM453 315v140h-140q-57 0 -97 -41q-40 -42 -40 -100t40 -99t97 -41t99 41q41 41 41 100z" />
    <glyph glyph-name="blacksquare" unicode="&#x25a0;" horiz-adv-x="1353" 
d="M1266 0h-1170v1171h1170v-1171z" />
    <glyph glyph-name="triagup" unicode="&#x25b2;" horiz-adv-x="1261" 
d="M1264 59l-1268 2l633 1096z" />
    <glyph glyph-name="triagdn" unicode="&#x25bc;" horiz-adv-x="1261" 
d="M1264 1044l-635 -1095l-633 1095h1268z" />
    <glyph glyph-name="lozenge" unicode="&#x25ca;" horiz-adv-x="768" 
d="M385 84l270 600l-272 598l-270 -598zM406 0h-44l-323 684l323 682h44l323 -682z" />
    <glyph glyph-name="circlesolid" unicode="&#x25cf;" horiz-adv-x="1423" 
d="M1319 584q0 -252 -178 -430t-430 -178t-430 178t-179 430q0 252 178 430t431 178q252 0 430 -178t178 -430z" />
    <glyph glyph-name="blackstar" unicode="&#x2605;" horiz-adv-x="1554" 
d="M1554 862l-481 -350l184 -563l-481 348l-479 -348l182 563l-479 350h594l182 565l185 -565h593z" />
    <glyph glyph-name="ballotbox" unicode="&#x2610;" horiz-adv-x="1353" 
d="M1102 145v881h-850v-881h850zM1262 0h-1170v1171h1170v-1171z" />
    <glyph glyph-name="boxchecked" unicode="&#x2611;" horiz-adv-x="1353" 
d="M1102 145v721l-369 -680l-414 504l115 107l277 -338l307 567h-766v-881h850zM1262 0h-1170v1171h1006l182 336l127 -77l-145 -269v-1161z" />
    <glyph glyph-name="diamond" unicode="&#x2666;" horiz-adv-x="1026" 
d="M1026 584l-514 -512l-512 512l512 514z" />
    <glyph glyph-name="checkmark" unicode="&#x2713;" horiz-adv-x="1087" 
d="M1087 1430l-673 -1244l-414 504l115 107l276 -338l570 1048z" />
    <glyph glyph-name="a.alt1" unicode="&#xf000;" horiz-adv-x="866" 
d="M424 180q37 0 69 34t48 85v391q-16 49 -49 84t-68 35q-131 -1 -131 -315t131 -314zM772 0h-231v123q-31 -70 -84 -109t-109 -39q-143 1 -218 139t-75 379t75 381t218 140q56 0 110 -37t83 -111v123h231v-989z" />
    <glyph glyph-name="f.alt1" unicode="&#xf001;" horiz-adv-x="509" 
d="M356 0h-231v788h-90v201h90v103q0 139 65 217q66 78 179 77q82 0 141 -26l-39 -186q-12 12 -39 12q-76 0 -76 -94v-103h125v-201h-125v-788z" />
    <glyph glyph-name="l.alt1" unicode="&#xf002;" horiz-adv-x="477" 
d="M308 -25q-110 -1 -162 61t-52 191v1139h230v-1094q0 -92 55 -92q35 0 55 27l49 -182q-65 -50 -175 -50z" />
    <glyph glyph-name="y.alt1" unicode="&#xf003;" horiz-adv-x="860" 
d="M766 18q0 -201 -92 -310t-284 -109t-294 108l80 184q84 -92 201 -92q158 0 158 219v140q-31 -60 -98 -104t-136 -44q-207 0 -207 221v758h230v-674q0 -102 77 -102q41 0 78 38t56 89v649h231v-971z" />
    <glyph glyph-name="G.alt1" unicode="&#xf004;" horiz-adv-x="927" 
d="M879 743q-1 -385 -91 -577t-302 -191t-318 191t-106 517t107 516q108 189 320 190q135 1 221 -89t124 -233l-207 -76q-37 168 -138 168q-163 0 -163 -477t163 -477q74 0 109 90t37 221h-174v227h418z" />
    <glyph glyph-name="G.smcp.alt1" unicode="&#xf005;" horiz-adv-x="833" 
d="M434 -25q-186 0 -280 159t-95 429q1 270 97 429t286 159q229 0 308 -283l-191 -63q-20 67 -46 101t-71 34q-137 0 -137 -377t137 -377q63 0 94 71q30 71 31 161h-139v196h365q-1 -639 -359 -639z" />
    <glyph glyph-name="aacute.alt1" unicode="&#xf006;" horiz-adv-x="866" 
d="M424 180q37 0 69 34t48 85v391q-16 49 -49 84t-68 35q-131 -1 -131 -315t131 -314zM772 0h-231v123q-31 -70 -84 -109t-109 -39q-143 1 -218 139t-75 379t75 381t218 140q56 0 110 -37t83 -111v123h231v-989zM668 1434l-219 -295h-146l162 295h203z" />
    <glyph glyph-name="agrave.alt1" unicode="&#xf007;" horiz-adv-x="866" 
d="M424 180q37 0 69 34t48 85v391q-16 49 -49 84t-68 35q-131 -1 -131 -315t131 -314zM772 0h-231v123q-31 -70 -84 -109t-109 -39q-143 1 -218 139t-75 379t75 381t218 140q56 0 110 -37t83 -111v123h231v-989zM563 1139h-147l-217 295h200z" />
    <glyph glyph-name="acircumflex.alt1" unicode="&#xf008;" horiz-adv-x="866" 
d="M424 180q37 0 69 34t48 85v391q-16 49 -49 84t-68 35q-131 -1 -131 -315t131 -314zM772 0h-231v123q-31 -70 -84 -109t-109 -39q-143 1 -218 139t-75 379t75 381t218 140q56 0 110 -37t83 -111v123h231v-989zM672 1139h-129l-109 188l-104 -188h-129l127 295h211z" />
    <glyph glyph-name="adieresis.alt1" unicode="&#xf009;" horiz-adv-x="866" 
d="M424 180q37 0 69 34t48 85v391q-16 49 -49 84t-68 35q-131 -1 -131 -315t131 -314zM772 0h-231v123q-31 -70 -84 -109t-109 -39q-143 1 -218 139t-75 379t75 381t218 140q56 0 110 -37t83 -111v123h231v-989zM393 1247q0 -53 -37 -90t-89 -37t-89 38t-37 89t37 89t89 38
t89 -37t37 -90zM727 1247q0 -51 -38 -89t-89 -38t-89 38t-38 89t38 89t89 38t89 -38t38 -89z" />
    <glyph glyph-name="atilde.alt1" unicode="&#xf00a;" horiz-adv-x="866" 
d="M424 180q37 0 69 34t48 85v391q-16 49 -49 84t-68 35q-131 -1 -131 -315t131 -314zM772 0h-231v123q-31 -70 -84 -109t-109 -39q-143 1 -218 139t-75 379t75 381t218 140q56 0 110 -37t83 -111v123h231v-989zM522 1135q-38 -1 -64 23t-38 52q-33 77 -68 76
q-59 0 -59 -139h-121q0 123 46 199t128 75q47 0 76 -38q29 -37 49 -75t45 -38q59 0 59 139h121q0 -123 -46 -199t-128 -75z" />
    <glyph glyph-name="aring.alt1" unicode="&#xf00b;" horiz-adv-x="866" 
d="M424 180q37 0 69 34t48 85v391q-16 49 -49 84t-68 35q-131 -1 -131 -315t131 -314zM772 0h-231v123q-31 -70 -84 -109t-109 -39q-143 1 -218 139t-75 379t75 381t218 140q56 0 110 -37t83 -111v123h231v-989zM436 1227q33 -1 57 23q23 24 23 58t-24 58t-56 23
q-32 0 -56 -24q-24 -23 -24 -57t24 -58t56 -23zM436 1126q-76 0 -129 54t-53 129q0 76 53 128t129 52t128 -52t52 -128q0 -75 -52 -129t-128 -54z" />
    <glyph glyph-name="amacron.alt1" unicode="&#xf00c;" horiz-adv-x="866" 
d="M424 180q37 0 69 34t48 85v391q-16 49 -49 84t-68 35q-131 -1 -131 -315t131 -314zM772 0h-231v123q-31 -70 -84 -109t-109 -39q-143 1 -218 139t-75 379t75 381t218 140q56 0 110 -37t83 -111v123h231v-989zM700 1210h-528v136h528v-136z" />
    <glyph glyph-name="abreve.alt1" unicode="&#xf00d;" horiz-adv-x="866" 
d="M424 180q37 0 69 34t48 85v391q-16 49 -49 84t-68 35q-131 -1 -131 -315t131 -314zM772 0h-231v123q-31 -70 -84 -109t-109 -39q-143 1 -218 139t-75 379t75 381t218 140q56 0 110 -37t83 -111v123h231v-989zM437 1143q-159 0 -255 127l109 82q53 -74 146 -74t145 74
l108 -82q-94 -127 -253 -127z" />
    <glyph glyph-name="aogonek.alt1" unicode="&#xf00e;" horiz-adv-x="866" 
d="M424 180q37 0 69 34t48 85v391q-16 49 -49 84t-68 35q-131 -1 -131 -315t131 -314zM655 -205q0 -74 45 -74t58 58l96 -51q-43 -109 -154 -109q-76 0 -120 42t-43 126q0 117 88 213h-84v123q-31 -70 -84 -109t-109 -39q-143 1 -218 139t-75 379t75 381t218 140
q56 0 110 -37t83 -111v123h231v-989q-117 -84 -117 -205z" />
    <glyph glyph-name="ae.alt1" unicode="&#xf00f;" horiz-adv-x="1320" 
d="M1051 582q0 244 -140 243q-71 1 -103 -65t-36 -156v-22h279zM424 180q37 0 69 34t48 85v391q-16 49 -49 84t-68 35q-131 -1 -131 -315t131 -314zM772 0h-231v123q-31 -70 -84 -109t-109 -39q-143 1 -218 139t-75 379t75 381t218 140q56 0 110 -37t83 -111v123h231v-119
q53 144 203 144q151 0 225 -140t74 -374v-82h-502q2 -114 50 -182t142 -68t164 98l113 -145q-94 -145 -237 -146q-174 0 -232 164v-139z" />
    <glyph glyph-name="aeacute.alt1" unicode="&#xf010;" horiz-adv-x="1294" 
d="M881 1434l-219 -295h-146l162 295h203zM1051 582q0 244 -140 243q-75 1 -107 -73t-32 -170h279zM424 180q37 0 69 34t48 85v391q-16 49 -49 84t-68 35q-131 -1 -131 -315t131 -314zM772 0h-231v123q-31 -70 -84 -109t-109 -39q-143 1 -218 139t-75 379t75 381t218 140
q56 0 110 -37t83 -111v123h231v-119q53 144 203 144q151 0 225 -140t74 -374v-82h-502v-12q4 -109 51 -174q47 -64 141 -64t164 98l113 -145q-94 -145 -237 -146q-174 0 -232 164v-139z" />
    <glyph glyph-name="lslash.alt1" unicode="&#xf016;" horiz-adv-x="532" 
d="M133 1366h229v-526l99 57v-172l-99 -57v-396q0 -92 56 -92q35 0 55 27l49 -182q-63 -49 -174 -49t-163 60q-52 62 -52 191v310l-100 -58v172l100 58v657z" />
    <glyph glyph-name="lacute.alt1" unicode="&#xf017;" horiz-adv-x="477" 
d="M308 -25q-110 -1 -162 61t-52 191v1139h230v-1094q0 -92 55 -92q35 0 55 27l49 -182q-65 -50 -175 -50zM442 1786l-219 -295h-145l162 295h202z" />
    <glyph glyph-name="lcommaaccent.alt1" unicode="&#xf018;" horiz-adv-x="477" 
d="M308 -25q-110 -1 -162 61t-52 191v1139h230v-1094q0 -92 55 -92q35 0 55 27l49 -182q-65 -50 -175 -50zM230 -125q52 0 91 -43t39 -123t-45 -158t-118 -131l-82 66q45 27 81 75t44 91q-4 -4 -38 -4t-64 30t-30 79q0 48 35 83t87 35z" />
    <glyph glyph-name="lcaron.alt1" unicode="&#xf019;" horiz-adv-x="647" 
d="M308 -25q-110 -1 -162 61t-52 191v1139h230v-1094q0 -92 55 -92q35 0 55 27l49 -182q-65 -50 -175 -50zM696 1225q0 -80 -45 -158t-119 -131l-81 65q45 27 81 75t43 91q-3 -4 -37 -4t-64 31t-30 79t35 83t87 35t91 -43t39 -123z" />
    <glyph glyph-name="ldot.alt1" unicode="&#xf01a;" horiz-adv-x="731" 
d="M574 651q62 0 106 -44t45 -106q0 -63 -44 -107q-45 -44 -107 -44t-107 44t-45 106t45 107q45 44 107 44zM308 -25q-110 -1 -162 61t-52 191v1139h230v-1094q0 -92 55 -92q35 0 55 27l49 -182q-65 -50 -175 -50z" />
    <glyph glyph-name="yacute.alt1" unicode="&#xf01b;" horiz-adv-x="860" 
d="M766 18q0 -201 -92 -310t-284 -109t-294 108l80 184q84 -92 201 -92q158 0 158 219v140q-31 -60 -98 -104t-136 -44q-207 0 -207 221v758h230v-674q0 -102 77 -102q41 0 78 38t56 89v649h231v-971zM666 1434l-220 -295h-145l162 295h203z" />
    <glyph glyph-name="ydieresis.alt1" unicode="&#xf01c;" horiz-adv-x="860" 
d="M766 18q0 -201 -92 -310t-284 -109t-294 108l80 184q84 -92 201 -92q158 0 158 219v140q-31 -60 -98 -104t-136 -44q-207 0 -207 221v758h230v-674q0 -102 77 -102q41 0 78 38t56 89v649h231v-971zM389 1247q0 -53 -37 -90t-89 -37t-89 38t-37 89t37 89t89 38t89 -37
t37 -90zM723 1247q0 -51 -38 -89t-89 -38t-89 38t-38 89t38 89t89 38t89 -38t38 -89z" />
    <glyph glyph-name="ycircumflex.alt1" unicode="&#xf01d;" horiz-adv-x="860" 
d="M766 18q0 -201 -92 -310t-284 -109t-294 108l80 184q84 -92 201 -92q158 0 158 219v140q-31 -60 -98 -104t-136 -44q-207 0 -207 221v758h230v-674q0 -102 77 -102q41 0 78 38t56 89v649h231v-971zM666 1139h-129l-109 188l-104 -188h-129l127 295h210z" />
    <glyph glyph-name="Gbreve.alt1" unicode="&#xf01e;" horiz-adv-x="927" 
d="M879 743q-1 -385 -91 -577t-302 -191t-318 191t-106 517t107 516q108 189 320 190q135 1 221 -89t124 -233l-207 -76q-37 168 -138 168q-163 0 -163 -477t163 -477q74 0 109 90t37 221h-174v227h418zM492 1468q-158 0 -254 127l108 82q52 -73 146 -73t145 73l108 -82
q-95 -127 -253 -127z" />
    <glyph glyph-name="Gcommaaccent.alt1" unicode="&#xf01f;" horiz-adv-x="927" 
d="M879 743q-1 -385 -91 -577t-302 -191t-318 191t-106 517t107 516q108 189 320 190q135 1 221 -89t124 -233l-207 -76q-37 168 -138 168q-163 0 -163 -477t163 -477q74 0 109 90t37 221h-174v227h418zM627 -291q0 -80 -45 -158t-119 -131l-82 66q45 27 81 75t44 91
q-4 -4 -38 -4t-64 30t-30 79q0 48 36 83q35 35 87 35t91 -43t39 -123z" />
    <glyph glyph-name="Gcircumflex.alt1" unicode="&#xf020;" horiz-adv-x="927" 
d="M879 743q-1 -385 -91 -577t-302 -191t-318 191t-106 517t107 516q108 189 320 190q135 1 221 -89t124 -233l-207 -76q-37 168 -138 168q-163 0 -163 -477t163 -477q74 0 109 90t37 221h-174v227h418zM727 1491h-129l-109 188l-104 -188h-129l127 295h211z" />
    <glyph glyph-name="Gdotaccent.alt1" unicode="&#xf021;" horiz-adv-x="927" 
d="M879 743q-1 -385 -91 -577t-302 -191t-318 191t-106 517t107 516q108 189 320 190q135 1 221 -89t124 -233l-207 -76q-37 168 -138 168q-163 0 -163 -477t163 -477q74 0 109 90t37 221h-174v227h418zM484 1475q-52 1 -89 37t-37 88t37 90t89 36q52 0 89 -36t37 -90
q0 -52 -37 -88t-89 -37z" />
    <glyph glyph-name="Gbreve.smcp.alt1" unicode="&#xf022;" horiz-adv-x="833" 
d="M434 -25q-186 0 -280 159t-95 429q1 270 97 429t286 159q229 0 308 -283l-191 -63q-20 67 -46 101t-71 34q-137 0 -137 -377t137 -377q63 0 94 71q30 71 31 161h-139v196h365q-1 -639 -359 -639zM443 1225q-159 0 -255 127l109 82q53 -74 146 -74t145 74l108 -82
q-94 -127 -253 -127z" />
    <glyph glyph-name="Gcommaaccent.smcp.alt1" unicode="&#xf023;" horiz-adv-x="833" 
d="M434 -25q-186 0 -280 159t-95 429q1 270 97 429t286 159q229 0 308 -283l-191 -63q-20 67 -46 101t-71 34q-137 0 -137 -377t137 -377q63 0 94 71q30 71 31 161h-139v196h365q-1 -639 -359 -639zM582 -291q0 -80 -45 -158t-119 -131l-82 66q45 27 81 75t44 91
q-4 -4 -38 -4t-64 30q-29 30 -29 79q0 48 35 83t87 35t91 -43t39 -123z" />
    <glyph glyph-name="Gcircumflex.smcp.alt1" unicode="&#xf024;" horiz-adv-x="833" 
d="M678 1241h-129l-109 189l-104 -189h-129l127 295h211zM434 -25q-186 0 -280 159t-95 429q1 270 97 429t286 159q229 0 308 -283l-191 -63q-20 67 -46 101t-71 34q-137 0 -137 -377t137 -377q63 0 94 71q30 71 31 161h-139v196h365q-1 -639 -359 -639z" />
    <glyph glyph-name="Gdotaccent.smcp.alt1" unicode="&#xf025;" horiz-adv-x="833" 
d="M441 1268q-52 0 -89 37t-37 89t37 89t89 37t89 -37t37 -89t-37 -89t-89 -37zM434 -25q-186 0 -280 159t-95 429q1 270 97 429t286 159q229 0 308 -283l-191 -63q-20 67 -46 101t-71 34q-137 0 -137 -377t137 -377q63 0 94 71q30 71 31 161h-139v196h365
q-1 -639 -359 -639z" />
    <glyph glyph-name="zero.pzero" unicode="&#xf026;" horiz-adv-x="929" 
d="M326 682v-129l243 506q-33 98 -104 98q-83 -1 -111 -119t-28 -356zM465 205q84 0 112 120t27 357q0 25 -1 69t-1 64l-244 -510q33 -100 107 -100zM452 -25q-116 0 -208 93l-31 -68h-152l95 195q-94 190 -95 487q0 407 172 599q95 105 225 105t224 -90l35 70h149l-94 -197
q94 -190 94 -479t-91 -491q-46 -102 -126 -163q-81 -61 -197 -61z" />
    <glyph glyph-name="perthousand.onum" unicode="&#xf628;" horiz-adv-x="1464" 
d="M1294 261q0 71 -22 115q-23 44 -62 44q-40 0 -62 -44t-22 -115t23 -115t61 -44t62 44q22 44 22 115zM1434 260q0 -121 -62 -201q-62 -79 -162 -79t-161 80t-62 200q-1 121 61 202t162 81t162 -81t62 -202zM809 260q0 70 -24 115q-23 45 -61 45t-60 -44t-23 -115
q0 -71 23 -115q22 -44 60 -44t62 44t23 114zM336 868q0 72 -22 116t-60 44t-62 -44q-22 -44 -22 -116t23 -114t61 -43q82 -1 82 157zM809 1126l-512 -1126h-100l510 1126h102zM948 260q0 -121 -61 -201q-61 -79 -161 -79t-163 79q-61 80 -61 201t61 202t161 81t162 -81
t62 -202zM477 868q0 -120 -61 -200q-62 -80 -162 -80t-162 80q-61 80 -61 200t61 202q62 81 162 81t162 -81t61 -202z" />
    <glyph glyph-name="zero.tzero" unicode="&#xf638;" horiz-adv-x="903" 
d="M311 682v-131l244 508q-33 98 -104 98q-84 -1 -112 -119t-28 -356zM451 205q84 0 111 120q28 120 28 357q0 23 -1 67t-1 64l-244 -508q33 -100 107 -100zM438 -25q-116 0 -209 93l-30 -68h-150l92 195q-94 190 -94 487q0 407 172 599q95 105 225 105t224 -90l34 70h152
l-96 -199q94 -188 94 -475t-91 -493q-46 -102 -126 -163q-81 -61 -197 -61z" />
    <glyph glyph-name="zero.tnum" unicode="&#xf639;" horiz-adv-x="903" 
d="M451 205q84 0 111 120q28 119 28 357t-28 356t-112 119q-84 0 -111 -119q-28 -120 -28 -358t28 -356t112 -119zM451 -25q-137 1 -231 107t-134 260q-39 154 -39 340t39 340t133 259t232 105q104 0 184 -59q143 -106 194 -386q23 -122 23 -259q0 -277 -91 -483
q-46 -102 -126 -163t-184 -61z" />
    <glyph glyph-name="two.tnum" unicode="&#xf63a;" horiz-adv-x="903" 
d="M844 0h-752v215q326 414 406 542t80 216t-39 136t-103 48q-131 0 -215 -149l-166 151q147 227 394 227q176 0 282 -108t107 -283q0 -133 -80 -283t-324 -485h410v-227z" />
    <glyph glyph-name="three.tnum" unicode="&#xf63b;" horiz-adv-x="903" 
d="M438 -25q-131 -1 -234 61t-161 163l174 151q80 -145 211 -145q156 0 156 190q0 99 -49 143t-115 44t-86 -2v231q16 -2 83 -2t109 44t43 128q0 176 -143 176q-131 0 -201 -131l-168 137q131 223 383 223q172 0 276 -93t105 -275q0 -109 -61 -200t-156 -113
q102 -21 168 -113t66 -217q0 -180 -108 -290t-292 -110z" />
    <glyph glyph-name="four.tnum" unicode="&#xf63c;" horiz-adv-x="903" 
d="M500 526v539l-248 -539h248zM758 0h-258v299h-459v229l416 838h301v-840h102v-227h-102v-299z" />
    <glyph glyph-name="five.tnum" unicode="&#xf63d;" horiz-adv-x="903" 
d="M438 -25q-258 0 -389 224l168 151q78 -145 205 -145q74 1 117 67t43 160q0 227 -142 227q-96 0 -166 -114l-192 51v770h698v-227h-440v-367q70 111 203 111t218 -117t85 -323t-111 -337t-297 -131z" />
    <glyph glyph-name="six.tnum" unicode="&#xf63e;" horiz-adv-x="903" 
d="M463 205q63 -1 94 65t31 174t-36 161q-36 54 -91 54q-86 0 -139 -149q10 -305 141 -305zM850 442q0 -205 -104 -336t-260 -131q-156 -1 -252 101t-136 254q-39 152 -39 350q0 315 120 511t339 195q92 0 170 -40t125 -113l-133 -184q-56 109 -154 109t-151 -127
q-53 -126 -53 -302v-18q31 76 91 123t138 47q129 0 214 -117t85 -322z" />
    <glyph glyph-name="seven.tnum" unicode="&#xf63f;" horiz-adv-x="903" 
d="M86 1139v227h729v-178l-342 -1188h-274l331 1139h-444z" />
    <glyph glyph-name="eight.tnum" unicode="&#xf640;" horiz-adv-x="903" 
d="M451 205q59 0 98 46t39 135t-51 154t-86 72q-35 -8 -85 -72t-50 -155q0 -90 38 -135t97 -45zM450 1157q-122 0 -122 -170q0 -57 28 -106t52 -67q23 -18 43 -28q57 26 95 95q28 49 27 106q-1 170 -123 170zM451 -25q-189 1 -291 97t-103 270q0 119 69 221t161 142
q-88 35 -151 123q-62 89 -62 208q0 170 109 260q110 90 268 90q159 0 269 -90t109 -260q0 -119 -63 -208t-152 -123q92 -39 162 -141t70 -220q0 -174 -102 -272t-293 -97z" />
    <glyph glyph-name="nine.tnum" unicode="&#xf641;" horiz-adv-x="903" 
d="M582 854q-10 305 -138 305q-128 -1 -129 -237q0 -108 36 -162q36 -55 89 -55q88 0 142 149zM385 -23q-193 0 -297 154l135 184q57 -109 151 -109t151 125q56 124 57 302v20q-32 -76 -92 -123t-138 -47q-129 0 -214 117t-85 321q1 203 103 335t258 132t254 -100
q98 -102 136 -254t38 -350q0 -313 -119 -510t-338 -197z" />
    <glyph glyph-name="percent.onum" unicode="&#xf642;" horiz-adv-x="978" 
d="M809 260q0 70 -24 115q-23 45 -61 45t-60 -44t-23 -115q0 -71 23 -115q22 -44 60 -44t62 44t23 114zM336 868q0 72 -22 116t-60 44t-62 -44q-22 -44 -22 -116t23 -114t61 -43q82 -1 82 157zM797 1126l-512 -1126h-101l510 1126h103zM948 260q0 -121 -61 -201
q-61 -79 -161 -79t-163 79q-61 80 -61 201t61 202t161 81t162 -81t62 -202zM477 868q0 -120 -61 -200q-62 -80 -162 -80t-162 80q-61 80 -61 200t61 202q62 81 162 81t162 -81t61 -202z" />
    <glyph glyph-name="zero.tonum" unicode="&#xf643;" horiz-adv-x="903" 
d="M590 563q0 358 -139 359q-139 0 -139 -358t138 -359q140 0 140 358zM852 563q0 -337 -170 -498q-94 -89 -231 -90q-201 0 -303 173q-101 173 -101 415q0 336 172 499q94 89 232 89q201 0 301 -172t100 -416z" />
    <glyph glyph-name="one.tonum" unicode="&#xf644;" horiz-adv-x="903" 
d="M715 0h-258v795l-189 -199l-149 156l373 374h223v-1126z" />
    <glyph glyph-name="two.tonum" unicode="&#xf645;" horiz-adv-x="903" 
d="M801 0h-709v215q463 350 463 549q0 70 -37 114t-98 44q-117 0 -199 -138l-166 140q143 227 385 227q168 0 272 -94t103 -252q0 -264 -375 -578h361v-227z" />
    <glyph glyph-name="three.tonum" unicode="&#xf646;" horiz-adv-x="903" 
d="M438 -260q-131 0 -234 61t-161 162l174 152q80 -145 211 -146q156 0 156 191q0 100 -49 143t-115 43t-86 -2v231q16 -2 83 -2t109 44t43 128q0 176 -143 177q-131 0 -201 -131l-168 137q131 223 383 223q172 0 276 -93t105 -276q0 -110 -61 -200t-156 -113
q102 -21 168 -113t66 -217q0 -179 -108 -289t-292 -110z" />
    <glyph glyph-name="four.tonum" unicode="&#xf647;" horiz-adv-x="903" 
d="M500 299v526l-248 -526h248zM860 72h-102v-312h-258v312h-459v229l416 825h301v-827h102v-227z" />
    <glyph glyph-name="five.tonum" unicode="&#xf648;" horiz-adv-x="903" 
d="M438 -264q-258 0 -389 223l168 152q78 -145 205 -146q74 0 117 67t43 161q0 227 -142 227q-96 0 -166 -115l-192 51v770h698v-227h-440v-367q70 111 203 111t218 -117q85 -116 85 -322t-111 -337t-297 -131z" />
    <glyph glyph-name="six.tonum" unicode="&#xf649;" horiz-adv-x="903" 
d="M463 205q63 -1 94 65t31 174t-36 161q-36 54 -91 54q-86 0 -139 -149q10 -305 141 -305zM850 442q0 -205 -104 -336t-260 -131q-156 -1 -252 101t-136 254q-39 152 -39 350q0 315 120 511t339 195q92 0 170 -40t125 -113l-133 -184q-56 109 -154 109t-151 -127
q-53 -126 -53 -302v-18q31 76 91 123t138 47q129 0 214 -117t85 -322z" />
    <glyph glyph-name="seven.tonum" unicode="&#xf64a;" horiz-adv-x="903" 
d="M86 899v227h729v-178l-342 -1188h-274l331 1139h-444z" />
    <glyph glyph-name="eight.tonum" unicode="&#xf64b;" horiz-adv-x="903" 
d="M451 205q59 0 98 46t39 135t-51 154t-86 72q-35 -8 -85 -72t-50 -155q0 -90 38 -135t97 -45zM450 1157q-122 0 -122 -170q0 -57 28 -106t52 -67q23 -18 43 -28q57 26 95 95q28 49 27 106q-1 170 -123 170zM451 -25q-189 1 -291 97t-103 270q0 119 69 221t161 142
q-88 35 -151 123q-62 89 -62 208q0 170 109 260q110 90 268 90q159 0 269 -90t109 -260q0 -119 -63 -208t-152 -123q92 -39 162 -141t70 -220q0 -174 -102 -272t-293 -97z" />
    <glyph glyph-name="nine.tonum" unicode="&#xf64c;" horiz-adv-x="903" 
d="M442 922q-127 0 -127 -238q0 -108 36 -162q36 -55 89 -55q88 0 142 149q-10 305 -140 306zM385 -260q-193 0 -297 154l135 184q57 -109 151 -109t151 124q56 124 57 302v21q-32 -76 -92 -123t-138 -47q-129 0 -214 116t-85 321q1 204 103 336t258 132t254 -101t136 -253
t38 -351q0 -314 -119 -510t-338 -196z" />
    <glyph glyph-name="colonmonetary.onum" unicode="&#xf64d;" horiz-adv-x="788" 
d="M444 940q-139 0 -139 -377t139 -377q82 0 115 144l193 -62q-39 -131 -107 -212t-201 -81q-18 0 -26 2l-17 -86h-94l21 103q-33 12 -47 20l-27 -123h-96l41 189q-139 152 -140 483q1 258 91 417t270 171l16 76h94l-16 -84q33 -8 49 -17l21 101h94l-33 -158
q63 -63 107 -201l-193 -63q-37 135 -115 135z" />
    <glyph glyph-name="Euro.onum" unicode="&#xf64e;" horiz-adv-x="819" 
d="M498 623h-164v-121h164v-115h-154q27 -201 129 -201q82 0 115 144l192 -62q-38 -131 -106 -212t-214 -81t-239 111q-94 111 -121 301h-69v115h59q-2 20 -2 61v60h-57v114h69q27 193 121 303q95 110 239 111q144 0 212 -78t108 -205l-192 -63q-37 135 -115 135
q-104 0 -131 -203h156v-114z" />
    <glyph glyph-name="florin.onum" unicode="&#xf64f;" horiz-adv-x="751" 
d="M123 420v168h110l62 266q72 295 313 295q102 0 164 -57l-90 -193q-16 23 -47 23q-63 0 -86 -109l-51 -225h123v-168h-160l-148 -664h-264l148 664h-74z" />
    <glyph glyph-name="numbersign.onum" unicode="&#xf650;" horiz-adv-x="800" 
d="M485 690h-114l-56 -248h113zM768 819l-27 -129h-100l-57 -248h102l-31 -129h-104l-70 -313h-157l75 313h-116l-72 -313h-158l76 313h-98l30 129h99l57 248h-98l26 129h103l69 307h158l-72 -307h113l72 307h155l-71 -307h96z" />
    <glyph glyph-name="sterling.onum" unicode="&#xf651;" horiz-adv-x="716" 
d="M47 469v131h74q-47 119 -47 225q0 143 95 233t214 91q119 0 195 -57t96 -158l-180 -68q-25 111 -91 111q-39 0 -65 -42t-27 -120q0 -78 47 -215h129v-131h-94q8 -49 8 -74q0 -98 -73 -196q20 10 47 10q27 1 71 -19t74 -20q70 0 113 51l67 -166q-66 -74 -198 -73
q-70 0 -128 32t-93 31q-66 0 -144 -61l-67 147q129 84 129 207q0 47 -27 131h-125z" />
    <glyph glyph-name="yen.onum" unicode="&#xf652;" horiz-adv-x="776" 
d="M510 0h-242v223h-225v127h225v115h-225v127h172l-223 534h254l141 -421l145 421h252l-223 -534h172v-127h-223v-115h223v-127h-223v-223z" />
    <glyph glyph-name="cent.onum" unicode="&#xf654;" horiz-adv-x="788" 
d="M356 -176v162q-150 34 -224 190t-73 387q0 231 74 386t223 192v133h170v-133q152 -41 226 -273l-193 -63q-37 135 -115 135q-139 0 -139 -377t139 -377q82 0 115 144l193 -62q-70 -240 -226 -282v-162h-170z" />
    <glyph glyph-name="zero.dnom" unicode="&#xf655;" 
d="M391 410q0 136 -17 208q-16 72 -72 72t-76 -73t-19 -209q0 -136 19 -208q18 -73 74 -73t74 73q17 73 17 210zM573 410q1 -176 -69 -300t-204 -124t-204 124t-69 300q0 176 69 299q70 123 204 123t204 -123q69 -123 69 -299z" />
    <glyph glyph-name="one.dnom" unicode="&#xf656;" horiz-adv-x="499" 
d="M412 0h-179v594l-114 -119l-101 105l240 239h154v-819z" />
    <glyph glyph-name="two.dnom" unicode="&#xf657;" 
d="M565 0h-508v129q211 227 271 309q59 82 59 140t-27 85q-27 28 -71 27q-90 0 -148 -98l-106 104q100 135 264 135q119 0 191 -63q72 -62 71 -160q0 -98 -59 -189t-226 -278h289v-141z" />
    <glyph glyph-name="three.dnom" unicode="&#xf658;" 
d="M565 208q1 -92 -73 -158t-195 -64q-182 0 -266 133l110 104q59 -96 148 -96q104 0 104 111t-114 110q-45 0 -58 -2v141q10 -2 51 -2q111 1 111 103t-94 102t-142 -86l-108 94q90 133 258 133q117 0 187 -56t69 -165q0 -68 -41 -121t-102 -67q66 -10 110 -66t45 -148z" />
    <glyph glyph-name="four.dnom" unicode="&#xf659;" 
d="M330 324v303l-154 -303h154zM575 184h-69v-184h-176v184h-303v138l266 497h213v-495h69v-140z" />
    <glyph glyph-name="five.dnom" unicode="&#xf65a;" 
d="M563 266q0 -124 -74 -202t-198 -78q-178 0 -262 133l110 104q57 -96 142 -96q49 0 77 39t29 100q0 61 -26 96t-70 35q-66 0 -111 -78l-129 41v459h471v-141h-297v-217q51 65 135 65t144 -68q59 -69 59 -192z" />
    <glyph glyph-name="six.dnom" unicode="&#xf65b;" 
d="M389 260q0 139 -86 139q-55 0 -94 -84q8 -188 94 -188q41 0 64 40q22 40 22 93zM567 267q1 -125 -69 -203t-183 -78q-143 0 -213 118t-70 306t83 305q82 117 218 117t206 -87l-86 -118q-39 63 -105 63t-102 -70q-37 -70 -37 -171v-17q51 104 160 105q84 0 141 -73
t57 -197z" />
    <glyph glyph-name="seven.dnom" unicode="&#xf65c;" horiz-adv-x="548" 
d="M27 678v141h495v-121l-229 -698h-168l233 678h-331z" />
    <glyph glyph-name="eight.dnom" unicode="&#xf65d;" 
d="M391 228q0 54 -34 91q-35 37 -59 37t-56 -37t-33 -91q1 -54 25 -81t64 -27t67 27q26 27 26 81zM383 601q0 42 -23 69t-61 26q-82 0 -82 -102q1 -35 19 -64q18 -30 33 -38t30 -15q36 10 60 46t24 78zM565 209q0 -106 -70 -165q-71 -58 -196 -58t-196 57t-70 166
q0 72 44 131t105 82q-59 20 -98 72t-39 124q0 104 75 158t180 55q105 0 180 -54t75 -159q0 -72 -40 -124t-99 -72q61 -23 105 -82t44 -131z" />
    <glyph glyph-name="nine.dnom" unicode="&#xf65e;" 
d="M297 690q-41 0 -63 -40t-23 -102q0 -62 26 -96t62 -34q57 0 94 86q-8 186 -96 186zM233 281q-84 1 -142 73t-58 196t71 203q72 79 181 78q145 1 215 -117t70 -308t-83 -305q-82 -115 -218 -115t-206 86l87 118q39 -63 103 -63t102 70t38 172v16q-51 -104 -160 -104z" />
    <glyph glyph-name="zero.numr" unicode="&#xf661;" 
d="M391 956q0 137 -17 209q-16 72 -72 72t-76 -73t-19 -209q0 -136 19 -209q18 -72 74 -72t74 72t17 210zM573 956q1 -176 -69 -300t-204 -124t-204 124t-69 300q0 176 69 299q70 123 204 123t204 -123t69 -299z" />
    <glyph glyph-name="one.numr" unicode="&#xf662;" horiz-adv-x="499" 
d="M412 547h-179v594l-114 -119l-101 104l240 240h154v-819z" />
    <glyph glyph-name="two.numr" unicode="&#xf663;" 
d="M565 547h-508v129q211 227 271 309q59 81 59 139t-27 86t-71 27q-90 0 -148 -98l-106 104q100 135 264 135q119 0 191 -63t71 -161q0 -98 -59 -188q-59 -91 -226 -278h289v-141z" />
    <glyph glyph-name="three.numr" unicode="&#xf664;" 
d="M565 756q1 -92 -73 -158t-195 -66q-182 0 -266 134l110 104q59 -96 148 -96q104 0 104 110t-114 111q-45 0 -58 -2v141q10 -2 51 -2q111 0 111 102t-94 103q-94 0 -142 -86l-108 94q90 133 258 133q117 0 187 -56t69 -165q0 -68 -41 -121t-102 -67q66 -9 110 -65t45 -148
z" />
    <glyph glyph-name="four.numr" unicode="&#xf665;" 
d="M330 870v304l-154 -304h154zM575 731h-69v-184h-176v184h-303v137l266 498h213v-496h69v-139z" />
    <glyph glyph-name="five.numr" unicode="&#xf666;" 
d="M563 813q0 -123 -74 -202t-198 -79q-178 0 -262 134l110 104q57 -96 142 -96q49 0 77 39t29 100q0 61 -26 96t-70 35q-66 0 -111 -78l-129 41v459h471v-141h-297v-217q51 66 135 66t144 -69q59 -69 59 -192z" />
    <glyph glyph-name="six.numr" unicode="&#xf667;" 
d="M389 807q0 139 -86 139q-55 0 -94 -84q8 -188 94 -188q41 0 64 40q22 40 22 93zM369 1083q84 -1 141 -73t57 -196q1 -124 -69 -203t-183 -79q-143 0 -213 119t-70 306t83 305q82 118 218 116q136 0 206 -86l-86 -118q-39 63 -105 63t-102 -70q-37 -70 -37 -172v-16
q51 104 160 104z" />
    <glyph glyph-name="seven.numr" unicode="&#xf668;" horiz-adv-x="548" 
d="M27 1225v141h495v-121l-229 -698h-168l233 678h-331z" />
    <glyph glyph-name="eight.numr" unicode="&#xf669;" 
d="M391 775q0 54 -34 91q-35 37 -59 37t-56 -37t-33 -91q1 -54 25 -81q24 -26 64 -26t67 26q26 27 26 81zM383 1140q0 50 -23 77t-61 26q-82 0 -82 -102q1 -35 19 -64t33 -38t30 -15q27 8 55 37t29 79zM565 756q0 -106 -70 -165q-71 -59 -196 -59t-196 58t-70 166
q0 72 44 131t105 82q-59 20 -98 72t-39 124q0 105 75 159t180 54t180 -54t75 -159q0 -72 -40 -124t-99 -72q61 -23 105 -82t44 -131z" />
    <glyph glyph-name="nine.numr" unicode="&#xf66a;" 
d="M297 1237q-41 0 -63 -40q-22 -41 -23 -103q0 -62 26 -96t62 -33q57 0 94 86q-8 186 -96 186zM33 1097q-1 125 71 203t181 78q145 0 215 -118t70 -307t-83 -305q-82 -116 -218 -116t-206 86l87 119q39 -63 103 -63t102 70t38 171v17q-51 -104 -160 -105q-84 0 -142 73
t-58 197z" />
    <glyph glyph-name="Abreve.smcp" unicode="&#xf66d;" horiz-adv-x="759" 
d="M380 1225q-159 0 -255 127l108 82q53 -74 147 -74t144 74l109 -82q-94 -127 -253 -127zM453 412l-74 444l-72 -444h146zM242 1126h274l244 -1126h-248l-31 203h-202l-33 -203h-246z" />
    <glyph glyph-name="Amacron.smcp" unicode="&#xf66e;" horiz-adv-x="759" 
d="M643 1280h-528v135h528v-135zM453 412l-74 444l-72 -444h146zM242 1126h274l244 -1126h-248l-31 203h-202l-33 -203h-246z" />
    <glyph glyph-name="Aogonek.smcp" unicode="&#xf66f;" horiz-adv-x="759" 
d="M453 412l-74 444l-72 -444h146zM643 -205q0 -74 45 -74t57 58l97 -51q-43 -109 -154 -109q-76 0 -120 42t-44 126q0 117 88 213h-100l-31 203h-202l-33 -203h-246l242 1126h274l244 -1126q-117 -84 -117 -205z" />
    <glyph glyph-name="AEacute.smcp" unicode="&#xf670;" horiz-adv-x="1077" 
d="M483 412v446l-133 -446h133zM1014 0h-531v203h-186l-57 -203h-248l385 1126h637v-208h-291v-240h278v-209h-278v-260h291v-209zM803 1536l-219 -295h-146l162 295h203z" />
    <glyph glyph-name="Cacute.smcp" unicode="&#xf671;" horiz-adv-x="788" 
d="M676 1536l-219 -295h-146l162 295h203zM444 -25q-192 0 -288 162t-96 427t96 426t288 161q131 0 199 -78t109 -205l-193 -63q-37 135 -115 135q-139 0 -139 -377t139 -377q82 0 115 144l193 -62q-39 -131 -107 -212t-201 -81z" />
    <glyph glyph-name="Ccaron.smcp" unicode="&#xf672;" horiz-adv-x="788" 
d="M551 1241h-211l-133 295h129l110 -188l103 188h129zM444 -25q-192 0 -288 162t-96 427t96 426t288 161q131 0 199 -78t109 -205l-193 -63q-37 135 -115 135q-139 0 -139 -377t139 -377q82 0 115 144l193 -62q-39 -131 -107 -212t-201 -81z" />
    <glyph glyph-name="Ccircumflex.smcp" unicode="&#xf673;" horiz-adv-x="788" 
d="M678 1241h-129l-109 189l-104 -189h-129l127 295h211zM444 -25q-192 0 -288 162t-96 427t96 426t288 161q131 0 199 -78t109 -205l-193 -63q-37 135 -115 135q-139 0 -139 -377t139 -377q82 0 115 144l193 -62q-39 -131 -107 -212t-201 -81z" />
    <glyph glyph-name="Cdotaccent.smcp" unicode="&#xf674;" horiz-adv-x="788" 
d="M441 1268q-52 0 -89 37t-37 89t37 89t89 37t89 -37t37 -89t-37 -89t-89 -37zM444 -25q-192 0 -288 162t-96 427t96 426t288 161q131 0 199 -78t109 -205l-193 -63q-37 135 -115 135q-139 0 -139 -377t139 -377q82 0 115 144l193 -62q-39 -131 -107 -212t-201 -81z" />
    <glyph glyph-name="Dcaron.smcp" unicode="&#xf675;" horiz-adv-x="874" 
d="M539 1241h-211l-133 295h129l110 -188l103 188h129zM393 209q82 0 125 92t43 262q0 354 -168 355h-67v-709h67zM395 0h-309v1126h307q207 0 309 -154t102 -410q0 -254 -100 -408q-102 -154 -309 -154z" />
    <glyph glyph-name="Dcroat.smcp" unicode="&#xf676;" horiz-adv-x="915" 
d="M475 485h-106v-276h67q82 0 125 92t43 262q0 354 -168 355h-67v-277h106v-156zM438 0h-309v485h-96v156h96v485h307q207 0 309 -154q103 -154 103 -410q0 -254 -102 -408t-308 -154z" />
    <glyph glyph-name="Ebreve.smcp" unicode="&#xf677;" horiz-adv-x="688" 
d="M359 1225q-159 0 -255 127l109 82q53 -74 146 -74t145 74l108 -82q-94 -127 -253 -127zM625 0h-531v1126h531v-208h-291v-240h278v-209h-278v-260h291v-209z" />
    <glyph glyph-name="Ecaron.smcp" unicode="&#xf678;" horiz-adv-x="688" 
d="M467 1241h-211l-133 295h129l110 -188l103 188h129zM625 0h-531v1126h531v-208h-291v-240h278v-209h-278v-260h291v-209z" />
    <glyph glyph-name="Edotaccent.smcp" unicode="&#xf679;" horiz-adv-x="688" 
d="M363 1520q51 0 89 -37t38 -89t-38 -89q-37 -37 -89 -37t-89 37q-36 37 -36 89t36 89q37 37 89 37zM625 0h-531v1126h531v-208h-291v-240h278v-209h-278v-260h291v-209z" />
    <glyph glyph-name="Emacron.smcp" unicode="&#xf67a;" horiz-adv-x="688" 
d="M627 1280h-529v135h529v-135zM625 0h-531v1126h531v-208h-291v-240h278v-209h-278v-260h291v-209z" />
    <glyph glyph-name="Eng.smcp" unicode="&#xf67b;" horiz-adv-x="874" 
d="M470 -401q-138 0 -216 67l61 193q45 -49 109 -49q117 0 117 122v95l-207 614v-641h-240v1126h244l203 -612v612h239v-1222q2 -154 -86 -230q-86 -76 -224 -75z" />
    <glyph glyph-name="Eogonek.smcp" unicode="&#xf67c;" horiz-adv-x="688" 
d="M553 -381q-76 0 -120 42t-44 126q0 117 88 213h-383v1126h531v-208h-291v-240h278v-209h-278v-260h291v-209q-117 -84 -117 -205q0 -74 47 -74q43 1 55 58l97 -51q-43 -109 -154 -109z" />
    <glyph glyph-name="Gbreve.smcp" unicode="&#xf67d;" horiz-adv-x="833" 
d="M443 1225q-159 0 -255 127l109 82q53 -74 146 -74t145 74l108 -82q-94 -127 -253 -127zM440 -25q-190 0 -286 159q-94 159 -95 429q1 270 97 429t286 159q229 0 308 -283l-191 -63q-20 67 -46 101t-71 34q-137 0 -137 -377t144 -377q63 0 96 47v187h-117v196h332v-489
q-130 -152 -320 -152z" />
    <glyph glyph-name="Gcircumflex.smcp" unicode="&#xf67e;" horiz-adv-x="833" 
d="M680 1241h-129l-109 189l-104 -189h-129l127 295h211zM440 -25q-190 0 -286 159q-94 159 -95 429q1 270 97 429t286 159q229 0 308 -283l-191 -63q-20 67 -46 101t-71 34q-137 0 -137 -377t144 -377q63 0 96 47v187h-117v196h332v-489q-130 -152 -320 -152z" />
    <glyph glyph-name="Gcommaaccent.smcp" unicode="&#xf67f;" horiz-adv-x="833" 
d="M582 -291q0 -80 -45 -158t-119 -131l-82 66q45 27 81 75t44 91q-4 -4 -38 -4t-64 30q-29 30 -29 79q0 48 35 83t87 35t91 -43t39 -123zM440 -25q-190 0 -286 159q-94 159 -95 429q1 270 97 429t286 159q229 0 308 -283l-191 -63q-20 67 -46 101t-71 34q-137 0 -137 -377
t144 -377q63 0 96 47v187h-117v196h332v-489q-130 -152 -320 -152z" />
    <glyph glyph-name="Gdotaccent.smcp" unicode="&#xf680;" horiz-adv-x="833" 
d="M443 1268q-52 0 -89 37t-37 89t37 89t89 37t89 -37t37 -89t-37 -89t-89 -37zM440 -25q-190 0 -286 159q-94 159 -95 429q1 270 97 429t286 159q229 0 308 -283l-191 -63q-20 67 -46 101t-71 34q-137 0 -137 -377t144 -377q63 0 96 47v187h-117v196h332v-489
q-130 -152 -320 -152z" />
    <glyph glyph-name="Hcircumflex.smcp" unicode="&#xf681;" horiz-adv-x="888" 
d="M678 1241h-129l-109 189l-104 -189h-129l127 295h211zM795 0h-240v473h-221v-473h-240v1126h240v-444h221v444h240v-1126z" />
    <glyph glyph-name="Hbar.smcp" unicode="&#xf682;" horiz-adv-x="954" 
d="M367 682h221v160h-221v-160zM827 0h-239v473h-221v-473h-240v842h-94v135h94v149h240v-149h221v149h239v-149h88v-135h-88v-842z" />
    <glyph glyph-name="Ibreve.smcp" unicode="&#xf683;" horiz-adv-x="419" 
d="M212 1225q-159 0 -255 127l109 82q53 -74 146 -74t144 74l109 -82q-94 -127 -253 -127zM332 0h-240v1126h240v-1126z" />
    <glyph glyph-name="IJ.smcp" unicode="&#xf684;" horiz-adv-x="1058" 
d="M654 -25q-136 0 -218 68l62 193q47 -49 108 -50q117 0 117 123v817h240v-845q2 -154 -85 -230q-88 -76 -224 -76zM334 0h-240v1126h240v-1126z" />
    <glyph glyph-name="Imacron.smcp" unicode="&#xf685;" horiz-adv-x="419" 
d="M475 1280h-528v135h528v-135zM332 0h-240v1126h240v-1126z" />
    <glyph glyph-name="Iogonek.smcp" unicode="&#xf686;" horiz-adv-x="419" 
d="M260 -381q-76 0 -120 42t-44 126q0 117 88 213h-92v1126h240v-1126q-117 -84 -117 -205q0 -74 47 -74q43 1 55 58l97 -51q-43 -109 -154 -109z" />
    <glyph glyph-name="Itilde.smcp" unicode="&#xf687;" horiz-adv-x="419" 
d="M305 1204q-37 0 -63 24t-39 52q-32 76 -68 76q-59 0 -59 -139h-121q0 123 46 199t128 75q47 0 76 -38t49 -76t45 -38q59 0 59 140h121q0 -123 -46 -199t-128 -76zM332 0h-240v1126h240v-1126z" />
    <glyph glyph-name="Jcircumflex.smcp" unicode="&#xf688;" horiz-adv-x="630" 
d="M655 1241h-129l-108 189l-105 -189h-129l127 295h211zM228 -25q-136 0 -218 68l62 193q47 -49 108 -50q117 0 117 123v817h240v-845q2 -154 -85 -230q-88 -76 -224 -76z" />
    <glyph glyph-name="Kcommaaccent.smcp" unicode="&#xf689;" horiz-adv-x="854" 
d="M571 -291q0 -80 -45 -158t-118 -131l-82 66q45 27 81 75t44 91q-4 -4 -38 -4t-64 30t-30 79q0 48 35 83t87 35t91 -43t39 -123zM334 0h-240v1126h240v-477l229 477h262l-288 -530l309 -596h-268l-185 410l-59 -121v-289z" />
    <glyph glyph-name="Lacute.smcp" unicode="&#xf68a;" horiz-adv-x="661" 
d="M596 1536l-219 -295h-146l162 295h203zM625 0h-531v1126h240v-917h291v-209z" />
    <glyph glyph-name="Lcaron.smcp" unicode="&#xf68b;" horiz-adv-x="694" 
d="M529 1145q52 0 91 -43t39 -123t-45 -158t-118 -131l-82 66q45 26 81 74t44 92q-4 -4 -38 -4t-64 30q-29 30 -29 79q0 48 34 83q35 35 87 35zM625 0h-531v1126h240v-917h291v-209z" />
    <glyph glyph-name="Lcommaaccent.smcp" unicode="&#xf68c;" horiz-adv-x="661" 
d="M361 -125q51 0 91 -43t40 -123t-46 -158t-118 -131l-82 66q45 27 81 75t44 91q-4 -4 -38 -4t-64 30q-29 30 -29 79q0 48 34 83q35 35 87 35zM625 0h-531v1126h240v-917h291v-209z" />
    <glyph glyph-name="Ldot.smcp" unicode="&#xf68d;" horiz-adv-x="831" 
d="M485 617q0 63 45 107q46 44 108 44t106 -44t44 -107q0 -62 -44 -106t-106 -44t-108 44q-45 44 -45 106zM625 0h-531v1126h240v-917h291v-209z" />
    <glyph glyph-name="Nacute.smcp" unicode="&#xf68e;" horiz-adv-x="874" 
d="M670 1536l-219 -295h-146l162 295h203zM780 0h-229l-217 641v-641h-240v1126h244l203 -612v612h239v-1126z" />
    <glyph glyph-name="Ncaron.smcp" unicode="&#xf68f;" horiz-adv-x="874" 
d="M545 1241h-211l-133 295h129l110 -188l103 188h129zM780 0h-229l-217 641v-641h-240v1126h244l203 -612v612h239v-1126z" />
    <glyph glyph-name="Ncommaaccent.smcp" unicode="&#xf690;" horiz-adv-x="874" 
d="M445 -125q52 0 91 -43t39 -123t-45 -158t-118 -131l-82 66q45 27 81 75t44 91q-4 -4 -38 -4t-64 30q-29 30 -29 79q0 48 34 83q35 35 87 35zM780 0h-229l-217 641v-641h-240v1126h244l203 -612v612h239v-1126z" />
    <glyph glyph-name="Obreve.smcp" unicode="&#xf691;" horiz-adv-x="884" 
d="M443 1225q-159 0 -255 127l109 82q53 -74 146 -74t145 74l108 -82q-94 -127 -253 -127zM442 186q137 0 138 377q0 377 -138 377t-137 -377q0 -377 137 -377zM442 -25q-194 0 -288 162t-95 426t95 426t288 162t288 -162q95 -162 95 -426t-95 -426t-288 -162z" />
    <glyph glyph-name="Ohungarumlaut.smcp" unicode="&#xf692;" horiz-adv-x="884" 
d="M778 1536l-164 -295h-120l110 295h174zM516 1536l-164 -295h-121l111 295h174zM442 186q137 0 138 377q0 377 -138 377t-137 -377q0 -377 137 -377zM442 -25q-194 0 -288 162t-95 426t95 426t288 162t288 -162q95 -162 95 -426t-95 -426t-288 -162z" />
    <glyph glyph-name="Omacron.smcp" unicode="&#xf693;" horiz-adv-x="884" 
d="M707 1280h-529v135h529v-135zM442 186q137 0 138 377q0 377 -138 377t-137 -377q0 -377 137 -377zM442 -25q-194 0 -288 162t-95 426t95 426t288 162t288 -162q95 -162 95 -426t-95 -426t-288 -162z" />
    <glyph glyph-name="Oslashacute.smcp" unicode="&#xf694;" horiz-adv-x="884" 
d="M680 1536l-219 -295h-146l162 295h203zM442 186q137 0 138 377q0 43 -5 117l-229 -418q37 -76 96 -76zM305 563q0 -92 4 -133l234 424q-37 86 -101 86q-137 0 -137 -377zM442 -25q-129 0 -213 72l-26 -47h-129l78 141q-92 152 -92 419t94 429q96 162 288 162
q129 0 220 -80l30 55h127l-82 -149q88 -156 88 -417t-95 -423t-288 -162z" />
    <glyph glyph-name="Racute.smcp" unicode="&#xf695;" horiz-adv-x="821" 
d="M643 1536l-219 -295h-145l161 295h203zM395 610q55 0 85 42t30 112t-30 112t-85 42h-61v-308h61zM334 401v-401h-240v1126h332q156 0 243 -101t87 -241t-43 -218q-43 -79 -105 -111l162 -455h-258l-117 401h-61z" />
    <glyph glyph-name="Rcaron.smcp" unicode="&#xf696;" horiz-adv-x="821" 
d="M516 1241h-211l-133 295h129l111 -188l102 188h129zM395 610q55 0 85 42t30 112t-30 112t-85 42h-61v-308h61zM334 401v-401h-240v1126h332q156 0 243 -101t87 -241t-43 -218q-43 -79 -105 -111l162 -455h-258l-117 401h-61z" />
    <glyph glyph-name="Rcommaaccent.smcp" unicode="&#xf697;" horiz-adv-x="821" 
d="M543 -291q0 -80 -45 -158t-119 -131l-82 66q45 27 81 75t44 91q-4 -4 -38 -4t-64 30t-29 79q0 48 35 83t87 35t91 -43t39 -123zM395 610q55 0 85 42t30 112t-30 112t-85 42h-61v-308h61zM334 401v-401h-240v1126h332q156 0 243 -101t87 -241t-43 -218q-43 -79 -105 -111
l162 -455h-258l-117 401h-61z" />
    <glyph glyph-name="Sacute.smcp" unicode="&#xf698;" horiz-adv-x="724" 
d="M610 1536l-219 -295h-145l162 295h202zM684 301q0 -145 -92 -235t-262 -91q-170 0 -299 121l96 185q84 -100 199 -101q49 0 81 32q31 32 31 83t-38 94t-92 81t-108 83t-92 120t-38 169q0 133 89 221t245 88t270 -94l-88 -183q-74 72 -168 72q-43 0 -72 -28t-29 -75
q0 -46 38 -86t91 -78q54 -38 108 -84t92 -122t38 -172z" />
    <glyph glyph-name="Scedilla.smcp" unicode="&#xf699;" horiz-adv-x="724" 
d="M555 -236q1 -70 -55 -115q-56 -46 -148 -46t-170 63l45 94q68 -57 115 -57q47 1 71 21t23 53q0 55 -47 55q-31 0 -53 -27l-86 50l45 122q-152 12 -264 119l96 185q84 -100 199 -101q49 0 81 32q31 32 31 83t-38 94t-92 81t-108 83t-92 120t-38 169q0 133 89 221t245 88
t270 -94l-88 -183q-74 72 -168 72q-43 0 -72 -28t-29 -75q0 -46 38 -86t91 -78q54 -38 108 -84t92 -122q38 -75 38 -187t-74 -199t-198 -105l-35 -88q29 18 69 18t75 -39q34 -39 34 -109z" />
    <glyph glyph-name="Scircumflex.smcp" unicode="&#xf69a;" horiz-adv-x="724" 
d="M612 1241h-129l-108 189l-105 -189h-129l127 295h211zM684 301q0 -145 -92 -235t-262 -91q-170 0 -299 121l96 185q84 -100 199 -101q49 0 81 32q31 32 31 83t-38 94t-92 81t-108 83t-92 120t-38 169q0 133 89 221t245 88t270 -94l-88 -183q-74 72 -168 72q-43 0 -72 -28
t-29 -75q0 -46 38 -86t91 -78q54 -38 108 -84t92 -122t38 -172z" />
    <glyph glyph-name="Scommaaccent.smcp" unicode="&#xf69b;" horiz-adv-x="724" 
d="M500 -291q0 -80 -45 -158t-119 -131l-82 66q45 27 81 75t44 91q-4 -4 -38 -4q-33 0 -63 30t-30 79q0 48 35 83t87 35t91 -43t39 -123zM684 301q0 -145 -92 -235t-262 -91q-170 0 -299 121l96 185q84 -100 199 -101q49 0 81 32q31 32 31 83t-38 94t-92 81t-108 83t-92 120
t-38 169q0 133 89 221t245 88t270 -94l-88 -183q-74 72 -168 72q-43 0 -72 -28t-29 -75q0 -46 38 -86t91 -78q54 -38 108 -84t92 -122t38 -172z" />
    <glyph glyph-name="Tbar.smcp" unicode="&#xf69c;" horiz-adv-x="634" 
d="M438 0h-241v442h-103v136h103v340h-166v208h573v-208h-166v-340h90v-136h-90v-442z" />
    <glyph glyph-name="Tcaron.smcp" unicode="&#xf69d;" horiz-adv-x="634" 
d="M428 1241h-211l-133 295h129l111 -188l102 188h129zM438 0h-241v918h-166v208h573v-208h-166v-918z" />
    <glyph glyph-name="Tcommaaccent.smcp" unicode="&#xf69e;" horiz-adv-x="634" 
d="M320 -125q52 0 92 -43t39 -123q0 -80 -45 -158t-119 -131l-82 66q45 27 81 75t44 91q-4 -4 -38 -4t-64 30t-30 79q0 48 35 83t87 35zM438 0h-241v918h-166v208h573v-208h-166v-918z" />
    <glyph glyph-name="Ubreve.smcp" unicode="&#xf69f;" horiz-adv-x="886" 
d="M445 1225q-159 0 -255 127l109 82q53 -74 146 -74t145 74l108 -82q-94 -127 -253 -127zM793 403q-1 -215 -95 -321t-255 -107t-255 105t-94 321v725h240v-780q0 -160 108 -160t109 160v780h242v-723z" />
    <glyph glyph-name="Uhungarumlaut.smcp" unicode="&#xf6a0;" horiz-adv-x="886" 
d="M776 1536l-164 -295h-120l110 295h174zM514 1536l-164 -295h-121l111 295h174zM793 403q-1 -215 -95 -321t-255 -107t-255 105t-94 321v725h240v-780q0 -160 108 -160t109 160v780h242v-723z" />
    <glyph glyph-name="Umacron.smcp" unicode="&#xf6a1;" horiz-adv-x="886" 
d="M709 1280h-529v135h529v-135zM793 403q-1 -215 -95 -321t-255 -107t-255 105t-94 321v725h240v-780q0 -160 108 -160t109 160v780h242v-723z" />
    <glyph glyph-name="Uogonek.smcp" unicode="&#xf6a2;" horiz-adv-x="886" 
d="M512 -381q-76 0 -120 42t-44 135t68 181q-146 7 -234 113t-88 311v725h240v-780q0 -160 108 -160t109 160v780h242v-723q0 -324 -209 -403q-117 -84 -117 -205q0 -74 47 -74q43 1 55 58l97 -51q-43 -109 -154 -109z" />
    <glyph glyph-name="Uring.smcp" unicode="&#xf6a3;" horiz-adv-x="886" 
d="M446 1329q33 0 57 24q23 23 23 57t-24 58t-56 23q-32 0 -56 -24q-24 -23 -24 -57t24 -58q23 -24 56 -23zM446 1229q-76 0 -129 53t-53 129t53 128t129 52t128 -52t52 -128t-52 -129t-128 -53zM793 403q-1 -215 -95 -321t-255 -107t-255 105t-94 321v725h240v-780
q0 -160 108 -160t109 160v780h242v-723z" />
    <glyph glyph-name="Utilde.smcp" unicode="&#xf6a4;" horiz-adv-x="886" 
d="M530 1237q-38 0 -64 24q-26 25 -38 53q-32 76 -68 75q-59 0 -59 -140h-121q0 123 46 199t128 76q47 0 76 -38t49 -76t45 -38q59 0 60 139h121q-1 -123 -47 -199t-128 -75zM793 403q-1 -215 -95 -321t-255 -107t-255 105t-94 321v725h240v-780q0 -160 108 -160t109 160
v780h242v-723z" />
    <glyph glyph-name="Wcircumflex.smcp" unicode="&#xf6a6;" horiz-adv-x="1105" 
d="M889 0h-242l-94 657l-94 -657h-242l-209 1126h246l96 -686l109 686h190l109 -688l96 688h244zM788 1241h-129l-108 189l-105 -189h-129l127 295h211z" />
    <glyph glyph-name="Ycircumflex.smcp" unicode="&#xf6a9;" horiz-adv-x="776" 
d="M625 1241h-129l-109 189l-104 -189h-129l127 295h211zM510 0h-242v467l-276 659h254l141 -421l145 421h252l-274 -659v-467z" />
    <glyph glyph-name="Zacute.smcp" unicode="&#xf6ab;" horiz-adv-x="659" 
d="M555 1536l-219 -295h-146l162 295h203zM610 0h-561v182l277 736h-277v208h549v-176l-279 -741h291v-209z" />
    <glyph glyph-name="Zdotaccent.smcp" unicode="&#xf6ac;" horiz-adv-x="659" 
d="M343 1268q-52 0 -89 37t-37 89t37 89t89 37t89 -37t37 -89t-37 -89t-89 -37zM610 0h-561v182l277 736h-277v208h549v-176l-279 -741h291v-209z" />
    <glyph glyph-name="Idotaccent.smcp" unicode="&#xf6ad;" horiz-adv-x="405" 
d="M206 1268q-52 0 -89 37t-37 89t37 89t89 37t89 -37t37 -89t-37 -89t-89 -37zM326 0h-240v1126h240v-1126z" />
    <glyph glyph-name="parenleft.case" unicode="&#xf6ae;" horiz-adv-x="528" 
d="M96 682q0 481 221 905l168 -74q-137 -412 -137 -832t137 -828l-168 -76q-221 424 -221 905z" />
    <glyph glyph-name="parenright.case" unicode="&#xf6af;" horiz-adv-x="528" 
d="M178 682q0 430 -137 831l170 74q221 -424 221 -905t-221 -905l-170 76q137 399 137 829z" />
    <glyph glyph-name="bracketleft.case" unicode="&#xf6b0;" horiz-adv-x="419" 
d="M383 -205h-311v1778h311v-156h-141v-1466h141v-156z" />
    <glyph glyph-name="bracketright.case" unicode="&#xf6b1;" horiz-adv-x="419" 
d="M346 -205h-309v156h141v1466h-141v156h309v-1778z" />
    <glyph glyph-name="braceleft.case" unicode="&#xf6b2;" horiz-adv-x="450" 
d="M416 -205h-60q-96 0 -169 69t-72 173v442q0 59 -28 99t-79 38v136q51 0 79 39t28 98v442q0 102 72 172q73 70 169 70h60v-156h-60q-28 -1 -50 -25t-21 -61v-465q0 -141 -95 -182q94 -41 95 -182v-465q-1 -37 21 -62t50 -24h60v-156z" />
    <glyph glyph-name="braceright.case" unicode="&#xf6b3;" horiz-adv-x="450" 
d="M35 -205v156h57q30 1 52 25t22 61v465q0 143 92 182q-92 39 -92 182v465q0 37 -22 62t-52 24h-57v156h57q96 0 169 -70t73 -172v-442q0 -59 28 -98t78 -39v-136q-51 0 -79 -38t-27 -99v-442q0 -104 -73 -173t-169 -69h-57z" />
    <glyph glyph-name="exclamdown.case" unicode="&#xf6b4;" horiz-adv-x="509" 
d="M104 1237q0 61 44 106t106 45t108 -44q46 -46 46 -107t-46 -107t-107 -45q-62 0 -107 45q-44 46 -44 107zM115 0l39 938h202l39 -938h-280z" />
    <glyph glyph-name="questiondown.case" unicode="&#xf6b5;" horiz-adv-x="665" 
d="M328 1389q61 1 106 -45t45 -107t-45 -107t-106 -45q-61 0 -107 45q-45 44 -45 106t46 108t106 45zM473 794q0 -154 -95 -264t-93 -206q1 -49 31 -87t88 -38t104 61l106 -160q-117 -125 -267 -125t-233 83t-83 212q0 82 36 158t78 124q115 128 115 236q0 51 -31 95l193 71
q51 -66 51 -160z" />
    <glyph glyph-name="guillemotleft.case" unicode="&#xf6b6;" horiz-adv-x="788" 
d="M426 332h-180l-185 368l185 363h180l-184 -363zM727 332h-180l-185 368l185 363h180l-184 -363z" />
    <glyph glyph-name="guillemotright.case" unicode="&#xf6b7;" horiz-adv-x="788" 
d="M727 700l-184 -368h-181l185 368l-185 363h181zM426 700l-184 -368h-181l185 368l-185 363h181z" />
    <glyph glyph-name="guilsinglleft.case" unicode="&#xf6b8;" horiz-adv-x="487" 
d="M426 332h-180l-185 368l185 363h180l-184 -363z" />
    <glyph glyph-name="guilsinglright.case" unicode="&#xf6b9;" horiz-adv-x="487" 
d="M426 700l-184 -368h-181l185 368l-185 363h181z" />
    <glyph glyph-name="hyphen.case" unicode="&#xf6ba;" horiz-adv-x="493" 
d="M432 600h-371v197h371v-197z" />
    <glyph glyph-name="endash.case" unicode="&#xf6bb;" horiz-adv-x="942" 
d="M881 600h-820v197h820v-197z" />
    <glyph glyph-name="emdash.case" unicode="&#xf6bc;" horiz-adv-x="1310" 
d="M1249 600h-1188v197h1188v-197z" />
    <glyph glyph-name="periodcentered.case" unicode="&#xf6bd;" horiz-adv-x="507" 
d="M102 701q0 63 45 107t107 44t108 -44q44 -44 44 -107q0 -62 -44 -106t-107 -44q-62 0 -108 44q-45 44 -45 106z" />
    <glyph glyph-name="bullet.case" unicode="&#xf6be;" horiz-adv-x="733" 
d="M369 936q97 0 167 -70t70 -167t-70 -167t-167 -70q-98 0 -168 70t-70 167t70 167t168 70z" />
    <glyph glyph-name="cent.case" unicode="&#xf6bf;" horiz-adv-x="704" 
d="M293 681q0 -99 24 -173v346q-24 -74 -24 -173zM317 -18v198q-125 45 -193 178q-68 132 -69 322q0 190 69 322t193 178v163h170v-147q115 -14 185 -84l-76 -180q-55 57 -109 63v-628q53 2 109 63l76 -180q-63 -72 -185 -86v-182h-170z" />
    <glyph glyph-name="commaaccent" unicode="&#xf6c3;" horiz-adv-x="514" 
d="M385 -291q0 -80 -45 -158t-119 -131l-82 66q45 27 81 75t44 91q-4 -4 -38 -4t-63 30q-30 30 -30 79q0 48 35 83t87 35t91 -43t39 -123z" />
    <glyph glyph-name="one.tnum" unicode="&#xf6dc;" horiz-adv-x="903" 
d="M715 0h-258v1034l-189 -198l-149 155l373 375h223v-1366z" />
    <glyph glyph-name="rupiah" unicode="&#xf6dd;" horiz-adv-x="1742" 
d="M1313 180q131 0 131 314t-131 315q-37 0 -70 -33t-49 -82v-395q16 -51 49 -85t70 -34zM1389 -25q-59 0 -113 37q-53 37 -82 111v-500h-229v1366h229v-123q33 72 86 110t109 38q143 0 218 -138t75 -379t-76 -381q-74 -140 -217 -141zM446 729q72 0 111 55q39 56 39 150
t-39 149t-111 56h-81v-410h81zM365 502v-502h-259v1366h381q165 0 269 -119t104 -305q0 -281 -176 -379l188 -563h-276l-147 502h-84z" />
    <glyph glyph-name="centinferior" unicode="&#xf6df;" horiz-adv-x="475" 
d="M215 -309v119q-84 26 -132 106t-48 195t48 195t132 106v96h115v-90q80 -12 125 -60l-60 -108q-35 45 -86 45q-113 0 -113 -184t113 -185q53 0 86 45l60 -108q-41 -47 -125 -60v-112h-115z" />
    <glyph glyph-name="centsuperior" unicode="&#xf6e0;" horiz-adv-x="475" 
d="M215 852v119q-84 25 -132 105t-48 196q0 114 48 194t132 107v96h115v-90q80 -12 125 -59l-60 -109q-35 45 -86 45q-113 0 -113 -184t113 -185q53 0 86 46l60 -109q-43 -49 -125 -61v-111h-115z" />
    <glyph glyph-name="commainferior" unicode="&#xf6e1;" horiz-adv-x="315" 
d="M258 -225q0 -152 -123 -238q-45 37 -69 55q28 14 60 48t36 61q-6 -2 -10 -2q-37 0 -66 28q-29 29 -29 67t29 68t72 30q44 0 72 -34q28 -32 28 -83z" />
    <glyph glyph-name="commasuperior" unicode="&#xf6e2;" horiz-adv-x="315" 
d="M258 936q0 -152 -123 -238q-45 37 -69 56q28 14 60 47t36 61q-6 -2 -10 -2q-37 0 -66 28t-29 66t29 69q29 30 72 30q44 0 72 -33t28 -84z" />
    <glyph glyph-name="dollarinferior" unicode="&#xf6e3;" horiz-adv-x="538" 
d="M223 -422v111q-129 8 -207 90l72 133q72 -78 156 -78q44 0 72 25t28 67q0 75 -154 145q-57 26 -105 85t-48 142t49 145t137 81v121h117v-115q96 -12 168 -75l-68 -129q-57 61 -131 61q-41 -1 -67 -23t-25 -62q0 -67 153 -139q56 -28 104 -89q48 -62 48 -148t-48 -147
t-134 -82v-119h-117z" />
    <glyph glyph-name="dollarsuperior" unicode="&#xf6e4;" horiz-adv-x="538" 
d="M223 739v109q-127 8 -207 92l72 133q72 -78 156 -78q44 0 72 25q28 26 28 68q0 75 -154 144q-57 26 -105 85t-48 142t49 145t137 82v120h117v-114q96 -12 168 -76l-68 -129q-57 61 -131 61q-41 0 -67 -22t-25 -63q0 -39 48 -75q49 -36 105 -64t104 -89t48 -149t-48 -148
q-48 -61 -134 -82v-117h-117z" />
    <glyph glyph-name="hypheninferior" unicode="&#xf6e5;" horiz-adv-x="313" 
d="M276 43h-239v131h239v-131z" />
    <glyph glyph-name="hyphensuperior" unicode="&#xf6e6;" horiz-adv-x="313" 
d="M276 1204h-239v131h239v-131z" />
    <glyph glyph-name="periodinferior" unicode="&#xf6e7;" horiz-adv-x="313" 
d="M256 -209q0 -41 -30 -70t-70 -29t-69 30q-30 28 -30 69t30 71t71 30q42 0 70 -30t28 -71z" />
    <glyph glyph-name="periodsuperior" unicode="&#xf6e8;" horiz-adv-x="313" 
d="M158 1053q42 0 70 -30t28 -70q0 -39 -30 -69t-70 -30t-69 29q-30 29 -30 69t30 71q30 30 71 30z" />
    <glyph glyph-name="asuperior" unicode="&#xf6e9;" horiz-adv-x="616" 
d="M287 764q59 0 84 57v90q-25 61 -84 62q-37 0 -59 -30t-21 -75q0 -104 80 -104zM541 668h-170v63q-49 -80 -139 -80q-90 1 -141 57q-52 56 -52 154t53 154t142 57q89 0 137 -76v82q0 119 -105 119q-74 0 -137 -74l-63 113q88 90 237 90q111 0 174 -58t64 -175v-426z" />
    <glyph glyph-name="bsuperior" unicode="&#xf6ea;" horiz-adv-x="641" 
d="M246 668h-170v888h170v-325q43 96 139 96q95 0 151 -91t56 -249t-54 -247t-148 -89t-144 94v-77zM328 784q90 0 90 204t-90 204q-57 0 -82 -72v-264q10 -32 32 -52t50 -20z" />
    <glyph glyph-name="dsuperior" unicode="&#xf6eb;" horiz-adv-x="641" 
d="M315 784q25 0 47 20t33 52v264q-25 72 -80 72q-94 0 -94 -204t94 -204zM565 668h-170v77q-49 -94 -143 -94t-149 89q-54 89 -54 247t55 249q56 91 152 91t139 -96v325h170v-888z" />
    <glyph glyph-name="esuperior" unicode="&#xf6ec;" horiz-adv-x="608" 
d="M406 1047q0 160 -97 159q-94 0 -94 -159h191zM328 651q-129 0 -204 93q-75 94 -75 242t71 244q70 96 194 97q124 0 189 -94t64 -246v-57h-352q4 -152 131 -152q63 0 117 60l78 -86q-84 -101 -213 -101z" />
    <glyph glyph-name="isuperior" unicode="&#xf6ed;" horiz-adv-x="321" 
d="M246 668h-170v643h170v-643zM162 1382q-41 0 -71 30t-30 71t30 71t71 29q40 0 70 -30q30 -31 30 -71t-30 -70t-70 -30z" />
    <glyph glyph-name="lsuperior" unicode="&#xf6ee;" horiz-adv-x="321" 
d="M246 668h-170v888h170v-888z" />
    <glyph glyph-name="msuperior" unicode="&#xf6ef;" horiz-adv-x="942" 
d="M866 668h-170v448q0 70 -54 70t-87 -78v-440h-168v448q0 70 -54 70t-87 -78v-440h-170v643h170v-80q18 35 66 65t96 31q123 0 143 -108q18 43 67 75t99 33q150 0 149 -156v-503z" />
    <glyph glyph-name="osuperior" unicode="&#xf6f0;" horiz-adv-x="630" 
d="M315 788q93 0 93 200t-92 200t-93 -200q0 -200 92 -200zM315 651q-129 -1 -197 97t-69 241q0 143 69 241q70 98 198 97q128 0 197 -97q69 -96 69 -240t-69 -242t-198 -97z" />
    <glyph glyph-name="rsuperior" unicode="&#xf6f1;" horiz-adv-x="421" 
d="M246 668h-170v643h170v-86q20 43 64 73t87 29v-164l-32 4q-33 1 -67 -21t-52 -52v-426z" />
    <glyph glyph-name="ssuperior" unicode="&#xf6f2;" horiz-adv-x="512" 
d="M274 1208q-73 0 -73 -59t139 -107q53 -18 96 -67t43 -129q1 -80 -63 -138t-166 -57q-147 0 -230 88l68 113q68 -76 148 -76q36 0 60 18t24 51q-1 54 -104 96q-103 41 -138 91q-35 51 -35 120t57 122t173 53t198 -82l-63 -102q-61 65 -134 65z" />
    <glyph glyph-name="tsuperior" unicode="&#xf6f3;" horiz-adv-x="380" 
d="M245 651q-83 0 -118 45t-35 129v365h-65v121h65v176h170v-176h86v-121h-86v-350q0 -59 37 -60q27 0 39 17q17 -78 31 -113q-41 -33 -124 -33z" />
    <glyph glyph-name="Lslash.smcp" unicode="&#xf6f9;" horiz-adv-x="684" 
d="M117 1126h239v-391l129 76v-215l-129 -74v-313h291v-209h-530v383l-84 -47v213l84 47v530z" />
    <glyph glyph-name="OE.smcp" unicode="&#xf6fa;" horiz-adv-x="1157" 
d="M444 940q-139 0 -139 -377t139 -377q86 0 119 160v436q-33 158 -119 158zM1096 0h-533v86q-53 -111 -178 -111q-166 0 -246 161t-80 427t80 427t246 161q125 0 178 -111v86h533v-211h-293v-235h280v-211h-280v-258h293v-211z" />
    <glyph glyph-name="Scaron.smcp" unicode="&#xf6fd;" horiz-adv-x="724" 
d="M485 1241h-211l-133 295h129l111 -188l102 188h129zM684 301q0 -145 -92 -235t-262 -91q-170 0 -299 121l96 185q84 -100 199 -101q49 0 81 32q31 32 31 83t-38 94t-92 81t-108 83t-92 120t-38 169q0 133 89 221t245 88t270 -94l-88 -183q-74 72 -168 72q-43 0 -72 -28
t-29 -75q0 -46 38 -86t91 -78q54 -38 108 -84t92 -122t38 -172z" />
    <glyph glyph-name="Zcaron.smcp" unicode="&#xf6ff;" horiz-adv-x="659" 
d="M434 1241h-211l-133 295h129l111 -188l102 188h129zM610 0h-561v182l277 736h-277v208h549v-176l-279 -741h291v-209z" />
    <glyph glyph-name="exclam.smcp" unicode="&#xf721;" horiz-adv-x="405" 
d="M356 129q0 -61 -45 -106t-107 -45t-106 44q-44 46 -45 107q0 61 44 107q45 46 107 45q62 1 107 -45t45 -107zM332 1126l-35 -729h-184l-37 729h256z" />
    <glyph glyph-name="dollar.onum" unicode="&#xf724;" horiz-adv-x="724" 
d="M289 -152v129q-147 14 -258 119l96 185q84 -100 199 -101q49 0 81 32q31 32 31 83t-38 94t-92 81t-108 83t-92 120t-38 174t57 179t162 111v149h170v-139q119 -12 215 -90l-88 -183q-74 72 -168 72q-43 0 -72 -28t-29 -75q0 -46 38 -86t91 -78q54 -38 108 -84t92 -122
q38 -75 38 -181t-60 -189t-165 -111v-144h-170z" />
    <glyph glyph-name="ampersand.smcp" unicode="&#xf726;" horiz-adv-x="796" 
d="M342 864q0 -57 25 -123q86 76 86 156q1 47 -15 76t-37 28q-59 0 -59 -137zM250 314q0 -79 32 -127t79 -48q46 0 96 60q-92 145 -156 266q-51 -72 -51 -151zM43 280q0 132 47 208t129 143q-61 141 -61 251t69 190q70 79 168 79t169 -70t71 -182t-63 -183t-138 -126
q29 -59 55 -101q23 -45 60 -104q31 84 55 193l162 -70q-43 -176 -109 -291q18 -29 42 -61q23 -32 55 -79q32 -46 55 -77h-225q-16 23 -45 68q-101 -90 -223 -90t-198 85t-75 217z" />
    <glyph glyph-name="zero.onum" unicode="&#xf730;" horiz-adv-x="929" 
d="M604 563q0 358 -139 359q-139 0 -139 -358t139 -359q139 0 139 358zM866 563q0 -337 -170 -498q-94 -89 -231 -90q-201 0 -302 173t-102 415q0 336 172 499q94 89 232 89q201 0 301 -172t100 -416z" />
    <glyph glyph-name="one.onum" unicode="&#xf731;" horiz-adv-x="712" 
d="M606 0h-258v795l-188 -199l-150 156l373 374h223v-1126z" />
    <glyph glyph-name="two.onum" unicode="&#xf732;" horiz-adv-x="874" 
d="M793 0h-709v215q463 350 463 549q0 70 -37 114t-98 44q-117 0 -199 -138l-166 140q143 227 385 227q168 0 271 -94t104 -252q0 -264 -375 -578h361v-227z" />
    <glyph glyph-name="three.onum" unicode="&#xf733;" horiz-adv-x="901" 
d="M438 -264q-131 0 -234 61t-161 162l174 152q80 -145 211 -146q156 0 156 191q0 100 -49 143t-115 43t-86 -2v231q16 -2 83 -2t109 44t43 128q0 176 -143 177q-131 0 -201 -132l-168 138q131 223 383 223q172 0 276 -93t105 -276q0 -110 -61 -200t-156 -113
q102 -21 168 -113t66 -217q0 -179 -108 -289t-292 -110z" />
    <glyph glyph-name="four.onum" unicode="&#xf734;" horiz-adv-x="880" 
d="M489 299v526l-247 -526h247zM850 72h-102v-312h-259v312h-458v229l415 825h302v-827h102v-227z" />
    <glyph glyph-name="five.onum" unicode="&#xf735;" horiz-adv-x="911" 
d="M446 -264q-258 0 -389 223l168 152q78 -145 205 -146q74 0 117 67t43 161q0 227 -141 227q-96 0 -166 -115l-193 51v770h698v-227h-440v-367q70 111 203 111t218 -117q85 -116 85 -322t-111 -337t-297 -131z" />
    <glyph glyph-name="six.onum" unicode="&#xf736;" horiz-adv-x="905" 
d="M465 205q63 -1 94 65t31 174t-36 161q-36 54 -91 54q-86 0 -139 -149q10 -305 141 -305zM852 442q0 -205 -104 -336t-260 -131q-156 -1 -252 101t-136 254q-39 152 -39 350q0 315 120 511t339 195q92 0 170 -40t125 -113l-133 -184q-56 109 -154 109t-151 -127
q-53 -126 -53 -302v-18q31 76 91 123t138 47q129 0 214 -117t85 -322z" />
    <glyph glyph-name="seven.onum" unicode="&#xf737;" horiz-adv-x="798" 
d="M35 899v227h729v-178l-342 -1188h-275l332 1139h-444z" />
    <glyph glyph-name="eight.onum" unicode="&#xf738;" horiz-adv-x="903" 
d="M451 205q59 0 98 46t39 135t-51 154t-86 72q-35 -8 -85 -72t-50 -155q0 -90 38 -135t97 -45zM450 1157q-122 0 -122 -170q0 -57 28 -106t52 -67q23 -18 43 -28q57 26 95 95q28 49 27 106q-1 170 -123 170zM451 -25q-189 1 -291 97t-103 270q0 119 69 221t161 142
q-88 35 -151 123q-62 89 -62 208q0 170 109 260q110 90 268 90q159 0 269 -90t109 -260q0 -119 -63 -208t-152 -123q92 -39 162 -141t70 -220q0 -174 -102 -272t-293 -97z" />
    <glyph glyph-name="nine.onum" unicode="&#xf739;" horiz-adv-x="905" 
d="M442 920q-127 0 -127 -238q0 -108 36 -162q36 -55 89 -55q88 0 142 149q-10 305 -140 306zM385 -262q-193 0 -297 153l135 185q57 -109 151 -109t151 124q56 124 57 302v21q-32 -76 -92 -123t-138 -47q-129 0 -214 116t-85 321q1 204 103 336t258 132t254 -101t136 -253
t38 -351q0 -314 -119 -510t-338 -196z" />
    <glyph glyph-name="question.smcp" unicode="&#xf73f;" horiz-adv-x="587" 
d="M451 129q0 -61 -45 -106q-44 -45 -106 -45t-107 44q-45 46 -46 107t45 107t107 45q61 0 107 -45q45 -46 45 -107zM303 1151q121 0 191 -69t71 -157q0 -150 -100 -242t-98 -173q0 -41 26 -72l-176 -65q-43 51 -43 129t38 136t76 108t38 98t-22 79t-68 31t-82 -51l-111 133
q96 115 260 115z" />
    <glyph glyph-name="A.smcp" unicode="&#xf761;" horiz-adv-x="759" 
d="M453 412l-74 444l-72 -444h146zM242 1126h274l244 -1126h-248l-31 203h-202l-33 -203h-246z" />
    <glyph glyph-name="B.smcp" unicode="&#xf762;" horiz-adv-x="798" 
d="M397 680q94 0 95 119q0 119 -95 119h-63v-238h63zM406 209q102 0 102 129q0 57 -27 94t-75 37h-72v-260h72zM459 0h-365v1126h352q145 0 219 -80q73 -80 73 -192q-1 -216 -165 -272q80 -20 129 -98q50 -78 50 -196q0 -120 -72 -204t-221 -84z" />
    <glyph glyph-name="C.smcp" unicode="&#xf763;" horiz-adv-x="788" 
d="M444 -25q-192 0 -288 162t-96 427t96 426t288 161q131 0 199 -78t109 -205l-193 -63q-37 135 -115 135q-139 0 -139 -377t139 -377q82 0 115 144l193 -62q-39 -131 -107 -212t-201 -81z" />
    <glyph glyph-name="D.smcp" unicode="&#xf764;" horiz-adv-x="874" 
d="M401 209q82 0 125 92t43 262q0 354 -168 355h-67v-709h67zM403 0h-309v1126h307q207 0 310 -154q102 -155 102 -410q1 -254 -101 -408t-309 -154z" />
    <glyph glyph-name="E.smcp" unicode="&#xf765;" horiz-adv-x="688" 
d="M625 0h-531v1126h531v-208h-291v-240h278v-209h-278v-260h291v-209z" />
    <glyph glyph-name="F.smcp" unicode="&#xf766;" horiz-adv-x="681" 
d="M334 0h-240v1126h531v-208h-291v-240h278v-209h-278v-469z" />
    <glyph glyph-name="G.smcp" unicode="&#xf767;" horiz-adv-x="833" 
d="M440 -25q-190 0 -286 159q-94 159 -95 429q1 270 97 429t286 159q229 0 308 -283l-191 -63q-20 67 -46 101t-71 34q-137 0 -137 -377t144 -377q63 0 96 47v187h-117v196h332v-489q-130 -152 -320 -152z" />
    <glyph glyph-name="H.smcp" unicode="&#xf768;" horiz-adv-x="888" 
d="M795 0h-240v473h-221v-473h-240v1126h240v-444h221v444h240v-1126z" />
    <glyph glyph-name="I.smcp" unicode="&#xf769;" horiz-adv-x="425" 
d="M334 0h-240v1126h240v-1126z" />
    <glyph glyph-name="J.smcp" unicode="&#xf76a;" horiz-adv-x="630" 
d="M228 -25q-136 0 -218 68l62 193q47 -49 108 -50q117 0 117 123v817h240v-845q2 -154 -85 -230q-88 -76 -224 -76z" />
    <glyph glyph-name="K.smcp" unicode="&#xf76b;" horiz-adv-x="854" 
d="M334 0h-240v1126h240v-477l229 477h262l-288 -530l309 -596h-268l-185 410l-59 -121v-289z" />
    <glyph glyph-name="L.smcp" unicode="&#xf76c;" horiz-adv-x="661" 
d="M625 0h-531v1126h240v-917h291v-209z" />
    <glyph glyph-name="M.smcp" unicode="&#xf76d;" horiz-adv-x="1105" 
d="M1014 0h-238v668l-176 -668h-92l-174 670v-670h-240v1126h297l162 -620l168 620h293v-1126z" />
    <glyph glyph-name="N.smcp" unicode="&#xf76e;" horiz-adv-x="874" 
d="M780 0h-229l-217 641v-641h-240v1126h244l203 -612v612h239v-1126z" />
    <glyph glyph-name="O.smcp" unicode="&#xf76f;" horiz-adv-x="884" 
d="M442 186q137 0 138 377q0 377 -138 377t-137 -377q0 -377 137 -377zM442 -25q-194 0 -288 162t-95 426t95 426t288 162t288 -162q95 -162 95 -426t-95 -426t-288 -162z" />
    <glyph glyph-name="P.smcp" unicode="&#xf770;" horiz-adv-x="790" 
d="M395 610q55 0 85 43t30 112t-30 111t-85 42h-61v-308h61zM334 0h-240v1126h330q162 0 247 -103t85 -260t-85 -259t-247 -103h-90v-401z" />
    <glyph glyph-name="Q.smcp" unicode="&#xf771;" horiz-adv-x="884" 
d="M442 940q-138 0 -137 -374q0 -374 133 -380l-67 176l155 60l33 -90q20 90 21 231q0 377 -138 377zM442 -25q-194 0 -288 162t-95 426t95 426t288 162t288 -162q95 -162 95 -426q0 -358 -159 -506l26 -67l-155 -62l-21 54q-33 -7 -74 -7z" />
    <glyph glyph-name="R.smcp" unicode="&#xf772;" horiz-adv-x="821" 
d="M395 610q55 0 85 42t30 112t-30 112t-85 42h-61v-308h61zM334 401v-401h-240v1126h332q156 0 243 -101t87 -241t-43 -218q-43 -79 -105 -111l162 -455h-258l-117 401h-61z" />
    <glyph glyph-name="S.smcp" unicode="&#xf773;" horiz-adv-x="724" 
d="M684 301q0 -145 -92 -235t-262 -91q-170 0 -299 121l96 185q84 -100 199 -101q49 0 81 32q31 32 31 83t-38 94t-92 81t-108 83t-92 120t-38 169q0 133 89 221t245 88t270 -94l-88 -183q-74 72 -168 72q-43 0 -72 -28t-29 -75q0 -46 38 -86t91 -78q54 -38 108 -84t92 -122
t38 -172z" />
    <glyph glyph-name="T.smcp" unicode="&#xf774;" horiz-adv-x="634" 
d="M438 0h-241v918h-166v208h573v-208h-166v-918z" />
    <glyph glyph-name="U.smcp" unicode="&#xf775;" horiz-adv-x="886" 
d="M793 403q-1 -215 -95 -321t-255 -107t-255 105t-94 321v725h240v-780q0 -160 108 -160t109 160v780h242v-723z" />
    <glyph glyph-name="V.smcp" unicode="&#xf776;" horiz-adv-x="759" 
d="M516 0h-274l-242 1126h246l133 -792l133 792h248z" />
    <glyph glyph-name="W.smcp" unicode="&#xf777;" horiz-adv-x="1105" 
d="M889 0h-242l-94 657l-94 -657h-242l-209 1126h246l96 -686l109 686h190l109 -688l96 688h244z" />
    <glyph glyph-name="X.smcp" unicode="&#xf778;" horiz-adv-x="790" 
d="M795 0h-263l-135 377l-137 -377h-264l250 575l-236 551h262l125 -356l121 356h264l-237 -551z" />
    <glyph glyph-name="Y.smcp" unicode="&#xf779;" horiz-adv-x="776" 
d="M510 0h-242v467l-276 659h254l141 -421l145 421h252l-274 -659v-467z" />
    <glyph glyph-name="Z.smcp" unicode="&#xf77a;" horiz-adv-x="659" 
d="M610 0h-561v182l277 736h-277v208h549v-176l-279 -741h291v-209z" />
    <glyph glyph-name="exclamdown.smcp" unicode="&#xf7a1;" horiz-adv-x="405" 
d="M49 997q0 61 45 107q46 46 108 45q62 0 106 -45q44 -44 44 -106t-44 -107t-106 -45t-108 45q-45 45 -45 106zM74 0l35 729h184l37 -729h-256z" />
    <glyph glyph-name="questiondown.smcp" unicode="&#xf7b8;" horiz-adv-x="587" 
d="M137 997q0 61 45 107q44 46 106 45q62 0 107 -45q45 -44 45 -106t-45 -107t-106 -45t-107 45q-45 45 -45 106zM23 201q0 150 99 241t99 174q0 41 -26 72l176 66q43 -52 43 -130t-38 -136t-76 -108t-38 -98t22 -78q22 -32 68 -32t82 51l111 -133q-96 -115 -260 -115
q-121 0 -192 69q-70 69 -70 157z" />
    <glyph glyph-name="Agrave.smcp" unicode="&#xf7e0;" horiz-adv-x="759" 
d="M512 1241h-147l-218 295h201zM453 412l-74 444l-72 -444h146zM242 1126h274l244 -1126h-248l-31 203h-202l-33 -203h-246z" />
    <glyph glyph-name="Aacute.smcp" unicode="&#xf7e1;" horiz-adv-x="759" 
d="M614 1536l-219 -295h-145l162 295h202zM453 412l-74 444l-72 -444h146zM242 1126h274l244 -1126h-248l-31 203h-202l-33 -203h-246z" />
    <glyph glyph-name="Acircumflex.smcp" unicode="&#xf7e2;" horiz-adv-x="759" 
d="M614 1241h-129l-108 189l-105 -189h-129l127 295h211zM453 412l-74 444l-72 -444h146zM242 1126h274l244 -1126h-248l-31 203h-202l-33 -203h-246z" />
    <glyph glyph-name="Atilde.smcp" unicode="&#xf7e3;" horiz-adv-x="759" 
d="M467 1237q-37 0 -64 24q-27 25 -39 53q-30 75 -67 75q-59 0 -59 -140h-121q0 123 46 199t128 76q47 0 76 -38t49 -76t45 -38q59 0 59 139h121q0 -123 -46 -199t-128 -75zM453 412l-74 444l-72 -444h146zM242 1126h274l244 -1126h-248l-31 203h-202l-33 -203h-246z" />
    <glyph glyph-name="Adieresis.smcp" unicode="&#xf7e4;" horiz-adv-x="759" 
d="M338 1372q0 -53 -37 -90t-89 -37t-89 38t-37 89t37 89t89 38t89 -37t37 -90zM672 1372q0 -53 -37 -90t-90 -37t-90 37t-37 90t37 90t90 37t90 -37t37 -90zM453 412l-74 444l-72 -444h146zM242 1126h274l244 -1126h-248l-31 203h-202l-33 -203h-246z" />
    <glyph glyph-name="Aring.smcp" unicode="&#xf7e5;" horiz-adv-x="759" 
d="M379 1329q33 0 57 24q24 23 23 57q0 34 -24 58q-25 24 -57 23q-32 0 -56 -24q-24 -23 -23 -57q-1 -34 23 -58t57 -23zM379 1229q-76 0 -129 53t-53 129t53 128t129 52t128 -52t52 -128t-52 -129t-128 -53zM453 412l-74 444l-72 -444h146zM242 1126h274l244 -1126h-248
l-31 203h-202l-33 -203h-246z" />
    <glyph glyph-name="AE.smcp" unicode="&#xf7e6;" horiz-adv-x="1077" 
d="M483 412v446l-133 -446h133zM1014 0h-531v203h-186l-57 -203h-248l385 1126h637v-208h-291v-240h278v-209h-278v-260h291v-209z" />
    <glyph glyph-name="Ccedilla.smcp" unicode="&#xf7e7;" horiz-adv-x="788" 
d="M623 -236q1 -70 -55 -115q-56 -46 -148 -46t-170 63l45 94q68 -57 115 -57q46 1 70 21t24 53q0 55 -47 55q-31 0 -54 -27l-86 50l48 129q-152 32 -229 188t-77 406q1 250 97 412q96 161 288 161q131 0 199 -78t109 -205l-193 -63q-37 135 -115 135q-139 0 -139 -377
t139 -377q82 0 115 144l193 -62q-38 -124 -98 -202t-175 -89l-35 -83q27 18 69 18t76 -39t34 -109z" />
    <glyph glyph-name="Egrave.smcp" unicode="&#xf7e8;" horiz-adv-x="688" 
d="M492 1241h-148l-217 295h201zM625 0h-531v1126h531v-208h-291v-240h278v-209h-278v-260h291v-209z" />
    <glyph glyph-name="Eacute.smcp" unicode="&#xf7e9;" horiz-adv-x="688" 
d="M596 1536l-219 -295h-146l162 295h203zM625 0h-531v1126h531v-208h-291v-240h278v-209h-278v-260h291v-209z" />
    <glyph glyph-name="Ecircumflex.smcp" unicode="&#xf7ea;" horiz-adv-x="688" 
d="M594 1241h-129l-109 189l-104 -189h-129l127 295h211zM625 0h-531v1126h531v-208h-291v-240h278v-209h-278v-260h291v-209z" />
    <glyph glyph-name="Edieresis.smcp" unicode="&#xf7eb;" horiz-adv-x="688" 
d="M319 1372q-1 -53 -37 -90t-88 -37t-90 38q-37 38 -36 89q0 51 36 89q38 38 90 38t88 -37t37 -90zM653 1372q0 -53 -38 -90t-89 -37t-89 37t-38 90t38 90t89 37t89 -37t38 -90zM625 0h-531v1126h531v-208h-291v-240h278v-209h-278v-260h291v-209z" />
    <glyph glyph-name="Igrave.smcp" unicode="&#xf7ec;" horiz-adv-x="419" 
d="M342 1241h-147l-218 295h201zM334 0h-240v1126h240v-1126z" />
    <glyph glyph-name="Iacute.smcp" unicode="&#xf7ed;" horiz-adv-x="419" 
d="M446 1536l-219 -295h-145l162 295h202zM334 0h-240v1126h240v-1126z" />
    <glyph glyph-name="Icircumflex.smcp" unicode="&#xf7ee;" horiz-adv-x="419" 
d="M444 1241h-129l-108 189l-105 -189h-129l127 295h211zM334 0h-240v1126h240v-1126z" />
    <glyph glyph-name="Idieresis.smcp" unicode="&#xf7ef;" horiz-adv-x="419" 
d="M172 1372q0 -53 -37 -90t-89 -37t-89 38t-37 89t37 89t89 38t89 -37t37 -90zM506 1372q0 -53 -38 -90t-89 -37t-89 37t-38 90t38 90t89 37t89 -37t38 -90zM334 0h-240v1126h240v-1126z" />
    <glyph glyph-name="Eth.smcp" unicode="&#xf7f0;" horiz-adv-x="915" 
d="M475 485h-106v-276h67q82 0 125 92t43 262q0 354 -168 355h-67v-277h106v-156zM438 0h-309v485h-96v156h96v485h307q207 0 309 -154q103 -154 103 -410q0 -254 -102 -408t-308 -154z" />
    <glyph glyph-name="Ntilde.smcp" unicode="&#xf7f1;" horiz-adv-x="874" 
d="M522 1237q-38 0 -64 24q-26 25 -38 53q-32 76 -68 75q-59 0 -59 -140h-121q0 123 46 199t128 76q47 0 76 -38t49 -76t45 -38q59 0 59 139h121q0 -123 -46 -199t-128 -75zM780 0h-229l-217 641v-641h-240v1126h244l203 -612v612h239v-1126z" />
    <glyph glyph-name="Ograve.smcp" unicode="&#xf7f2;" horiz-adv-x="884" 
d="M573 1241h-147l-217 295h201zM442 186q137 0 138 377q0 377 -138 377t-137 -377q0 -377 137 -377zM442 -25q-194 0 -288 162t-95 426t95 426t288 162t288 -162q95 -162 95 -426t-95 -426t-288 -162z" />
    <glyph glyph-name="Oacute.smcp" unicode="&#xf7f3;" horiz-adv-x="884" 
d="M680 1536l-219 -295h-146l162 295h203zM442 186q137 0 138 377q0 377 -138 377t-137 -377q0 -377 137 -377zM442 -25q-194 0 -288 162t-95 426t95 426t288 162t288 -162q95 -162 95 -426t-95 -426t-288 -162z" />
    <glyph glyph-name="Ocircumflex.smcp" unicode="&#xf7f4;" horiz-adv-x="884" 
d="M678 1241h-129l-109 189l-104 -189h-129l127 295h211zM442 186q137 0 138 377q0 377 -138 377t-137 -377q0 -377 137 -377zM442 -25q-194 0 -288 162t-95 426t95 426t288 162t288 -162q95 -162 95 -426t-95 -426t-288 -162z" />
    <glyph glyph-name="Otilde.smcp" unicode="&#xf7f5;" horiz-adv-x="884" 
d="M528 1237q-38 0 -64 24q-26 25 -38 53q-32 76 -68 75q-59 0 -59 -140h-121q0 123 46 199t128 76q47 0 76 -38t49 -76t45 -38q59 0 60 139h120q0 -123 -46 -199t-128 -75zM442 186q137 0 138 377q0 377 -138 377t-137 -377q0 -377 137 -377zM442 -25q-194 0 -288 162
t-95 426t95 426t288 162t288 -162q95 -162 95 -426t-95 -426t-288 -162z" />
    <glyph glyph-name="Odieresis.smcp" unicode="&#xf7f6;" horiz-adv-x="884" 
d="M401 1372q-1 -53 -37 -90t-88 -37t-90 38q-37 38 -36 89q0 51 36 89q37 38 89 38t89 -37t37 -90zM735 1372q0 -53 -38 -90t-89 -37t-89 37t-38 90t38 90t89 37t89 -37t38 -90zM442 186q137 0 138 377q0 377 -138 377t-137 -377q0 -377 137 -377zM442 -25q-194 0 -288 162
t-95 426t95 426t288 162t288 -162q95 -162 95 -426t-95 -426t-288 -162z" />
    <glyph glyph-name="Oslash.smcp" unicode="&#xf7f8;" horiz-adv-x="884" 
d="M442 186q137 0 138 377q0 43 -5 117l-229 -418q37 -76 96 -76zM305 563q0 -92 4 -133l234 424q-37 86 -101 86q-137 0 -137 -377zM442 -25q-129 0 -213 72l-26 -47h-129l78 141q-92 152 -92 419t94 429q96 162 288 162q129 0 220 -80l30 55h127l-82 -149q88 -156 88 -417
t-95 -423t-288 -162z" />
    <glyph glyph-name="Ugrave.smcp" unicode="&#xf7f9;" horiz-adv-x="886" 
d="M573 1241h-147l-217 295h201zM793 403q-1 -215 -95 -321t-255 -107t-255 105t-94 321v725h240v-780q0 -160 108 -160t109 160v780h242v-723z" />
    <glyph glyph-name="Uacute.smcp" unicode="&#xf7fa;" horiz-adv-x="886" 
d="M680 1536l-219 -295h-146l162 295h203zM793 403q-1 -215 -95 -321t-255 -107t-255 105t-94 321v725h240v-780q0 -160 108 -160t109 160v780h242v-723z" />
    <glyph glyph-name="Ucircumflex.smcp" unicode="&#xf7fb;" horiz-adv-x="886" 
d="M680 1241h-129l-109 189l-104 -189h-129l127 295h211zM793 403q-1 -215 -95 -321t-255 -107t-255 105t-94 321v725h240v-780q0 -160 108 -160t109 160v780h242v-723z" />
    <glyph glyph-name="Udieresis.smcp" unicode="&#xf7fc;" horiz-adv-x="886" 
d="M401 1372q-1 -53 -37 -90t-88 -37t-90 38q-37 38 -36 89q0 51 36 89q37 38 89 38t89 -37t37 -90zM735 1372q0 -53 -38 -90t-89 -37t-89 37t-38 90t38 90t89 37t89 -37t38 -90zM793 403q-1 -215 -95 -321t-255 -107t-255 105t-94 321v725h240v-780q0 -160 108 -160
t109 160v780h242v-723z" />
    <glyph glyph-name="Yacute.smcp" unicode="&#xf7fd;" horiz-adv-x="776" 
d="M625 1536l-219 -295h-146l162 295h203zM510 0h-242v467l-276 659h254l141 -421l145 421h252l-274 -659v-467z" />
    <glyph glyph-name="Thorn.smcp" unicode="&#xf7fe;" horiz-adv-x="790" 
d="M395 436q55 0 85 43t30 112t-30 111t-85 43h-61v-309h61zM334 0h-240v1126h240v-172h90q162 0 247 -103t85 -261t-85 -260t-247 -103h-90v-227z" />
    <glyph glyph-name="Ydieresis.smcp" unicode="&#xf7ff;" horiz-adv-x="776" 
d="M346 1372q0 -53 -37 -90t-89 -37t-89 38t-37 89t37 89t89 38t89 -37t37 -90zM680 1372q0 -53 -37 -90t-90 -37t-90 37t-37 90t37 90t90 37t90 -37t37 -90zM510 0h-242v467l-276 659h254l141 -421l145 421h252l-274 -659v-467z" />
    <glyph glyph-name="FI.smcp" unicode="&#xf800;" horiz-adv-x="1107" 
d="M1016 0h-240v1126h240v-1126zM334 0h-240v1126h531v-208h-291v-240h278v-209h-278v-469z" />
    <glyph glyph-name="FL.smcp" unicode="&#xf801;" horiz-adv-x="1343" 
d="M1307 0h-531v1126h240v-917h291v-209zM334 0h-240v1126h531v-208h-291v-240h278v-209h-278v-469z" />
    <glyph glyph-name="SS.smcp" unicode="&#xf802;" horiz-adv-x="1449" 
d="M1409 301q0 -145 -92 -235t-262 -91q-170 0 -299 121l96 185q84 -100 199 -101q49 0 81 32t32 83t-39 94q-38 43 -92 81t-108 83t-92 120t-38 169q0 133 89 221q88 88 244 88t271 -94l-88 -183q-74 72 -168 72q-43 0 -72 -28t-29 -75q0 -46 38 -86t91 -78t107 -84
t93 -122q38 -76 38 -172zM684 301q0 -145 -92 -235t-262 -91q-170 0 -299 121l96 185q84 -100 199 -101q49 0 81 32q31 32 31 83t-38 94t-92 81t-108 83t-92 120t-38 169q0 133 89 221t245 88t270 -94l-88 -183q-74 72 -168 72q-43 0 -72 -28t-29 -75q0 -46 38 -86t91 -78
q54 -38 108 -84t92 -122t38 -172z" />
    </font>
</defs>
</svg>
